<svg xmlns="http://www.w3.org/2000/svg" width="1280" height="720"><rect width="1280" height="720" x="0" y="0" fill="#ffffff" id="backgorund"/><g transform="translate(10,10)" id="viz"><g id="arcs"><path d="M5,555A8.223684210526315,8.223684210526315 0,0,1 21.44736842105263,555" fill="none" stroke="gray" stroke-width="0.16129032258064516" opacity="0.5"/><path d="M37.89473684210526,555A8.223684210526315,8.223684210526315 0,0,0 21.44736842105263,555" fill="none" stroke="gray" stroke-width="1.2903225806451613" opacity="0.5"/><path d="M54.34210526315789,555A16.44736842105263,16.44736842105263 0,0,0 21.44736842105263,555" fill="none" stroke="gray" stroke-width="1.6129032258064515" opacity="0.5"/><path d="M54.34210526315789,555A8.223684210526315,8.223684210526315 0,0,0 37.89473684210526,555" fill="none" stroke="gray" stroke-width="0.967741935483871" opacity="0.5"/><path d="M70.78947368421052,555A24.671052631578945,24.671052631578945 0,0,0 21.44736842105263,555" fill="none" stroke="gray" stroke-width="0.16129032258064516" opacity="0.5"/><path d="M87.23684210526315,555A32.89473684210526,32.89473684210526 0,0,0 21.44736842105263,555" fill="none" stroke="gray" stroke-width="0.16129032258064516" opacity="0.5"/><path d="M103.68421052631578,555A41.118421052631575,41.118421052631575 0,0,0 21.44736842105263,555" fill="none" stroke="gray" stroke-width="0.16129032258064516" opacity="0.5"/><path d="M120.13157894736841,555A49.34210526315789,49.34210526315789 0,0,0 21.44736842105263,555" fill="none" stroke="gray" stroke-width="0.16129032258064516" opacity="0.5"/><path d="M136.57894736842104,555A57.565789473684205,57.565789473684205 0,0,0 21.44736842105263,555" fill="none" stroke="gray" stroke-width="0.3225806451612903" opacity="0.5"/><path d="M153.02631578947367,555A65.78947368421052,65.78947368421052 0,0,0 21.44736842105263,555" fill="none" stroke="gray" stroke-width="0.16129032258064516" opacity="0.5"/><path d="M169.4736842105263,555A8.223684210526315,8.223684210526315 0,0,1 185.92105263157893,555" fill="none" stroke="gray" stroke-width="0.16129032258064516" opacity="0.5"/><path d="M169.4736842105263,555A57.565789473684205,57.565789473684205 0,0,0 54.34210526315789,555" fill="none" stroke="gray" stroke-width="0.4838709677419355" opacity="0.5"/><path d="M169.4736842105263,555A65.78947368421052,65.78947368421052 0,0,0 37.89473684210526,555" fill="none" stroke="gray" stroke-width="0.4838709677419355" opacity="0.5"/><path d="M169.4736842105263,555A74.01315789473684,74.01315789473684 0,0,0 21.44736842105263,555" fill="none" stroke="gray" stroke-width="0.8064516129032258" opacity="0.5"/><path d="M202.36842105263156,555A16.44736842105263,16.44736842105263 0,0,0 169.4736842105263,555" fill="none" stroke="gray" stroke-width="0.16129032258064516" opacity="0.5"/><path d="M218.8157894736842,555A24.671052631578945,24.671052631578945 0,0,0 169.4736842105263,555" fill="none" stroke="gray" stroke-width="0.16129032258064516" opacity="0.5"/><path d="M235.26315789473682,555A32.89473684210526,32.89473684210526 0,0,0 169.4736842105263,555" fill="none" stroke="gray" stroke-width="0.16129032258064516" opacity="0.5"/><path d="M251.71052631578945,555A41.118421052631575,41.118421052631575 0,0,0 169.4736842105263,555" fill="none" stroke="gray" stroke-width="0.16129032258064516" opacity="0.5"/><path d="M268.1578947368421,555A8.2236842105263,8.2236842105263 0,0,1 284.6052631578947,555" fill="none" stroke="gray" stroke-width="0.6451612903225806" opacity="0.5"/><path d="M301.0526315789473,555A8.2236842105263,8.2236842105263 0,0,0 284.6052631578947,555" fill="none" stroke="gray" stroke-width="0.6451612903225806" opacity="0.5"/><path d="M301.0526315789473,555A16.4473684210526,16.4473684210526 0,0,0 268.1578947368421,555" fill="none" stroke="gray" stroke-width="0.6451612903225806" opacity="0.5"/><path d="M317.4999999999999,555A16.4473684210526,16.4473684210526 0,0,0 284.6052631578947,555" fill="none" stroke="gray" stroke-width="0.6451612903225806" opacity="0.5"/><path d="M317.4999999999999,555A24.671052631578902,24.671052631578902 0,0,0 268.1578947368421,555" fill="none" stroke="gray" stroke-width="0.6451612903225806" opacity="0.5"/><path d="M317.4999999999999,555A8.2236842105263,8.2236842105263 0,0,0 301.0526315789473,555" fill="none" stroke="gray" stroke-width="0.6451612903225806" opacity="0.5"/><path d="M333.9473684210525,555A24.671052631578902,24.671052631578902 0,0,0 284.6052631578947,555" fill="none" stroke="gray" stroke-width="0.4838709677419355" opacity="0.5"/><path d="M333.9473684210525,555A32.8947368421052,32.8947368421052 0,0,0 268.1578947368421,555" fill="none" stroke="gray" stroke-width="0.4838709677419355" opacity="0.5"/><path d="M333.9473684210525,555A16.4473684210526,16.4473684210526 0,0,0 301.0526315789473,555" fill="none" stroke="gray" stroke-width="0.4838709677419355" opacity="0.5"/><path d="M333.9473684210525,555A8.2236842105263,8.2236842105263 0,0,0 317.4999999999999,555" fill="none" stroke="gray" stroke-width="0.6451612903225806" opacity="0.5"/><path d="M350.3947368421051,555A32.8947368421052,32.8947368421052 0,0,0 284.6052631578947,555" fill="none" stroke="gray" stroke-width="0.4838709677419355" opacity="0.5"/><path d="M350.3947368421051,555A41.118421052631504,41.118421052631504 0,0,0 268.1578947368421,555" fill="none" stroke="gray" stroke-width="0.4838709677419355" opacity="0.5"/><path d="M350.3947368421051,555A24.671052631578902,24.671052631578902 0,0,0 301.0526315789473,555" fill="none" stroke="gray" stroke-width="0.4838709677419355" opacity="0.5"/><path d="M350.3947368421051,555A16.4473684210526,16.4473684210526 0,0,0 317.4999999999999,555" fill="none" stroke="gray" stroke-width="0.4838709677419355" opacity="0.5"/><path d="M350.3947368421051,555A8.2236842105263,8.2236842105263 0,0,0 333.9473684210525,555" fill="none" stroke="gray" stroke-width="0.8064516129032258" opacity="0.5"/><path d="M366.8421052631577,555A41.118421052631504,41.118421052631504 0,0,0 284.6052631578947,555" fill="none" stroke="gray" stroke-width="0.4838709677419355" opacity="0.5"/><path d="M366.8421052631577,555A49.342105263157805,49.342105263157805 0,0,0 268.1578947368421,555" fill="none" stroke="gray" stroke-width="0.4838709677419355" opacity="0.5"/><path d="M366.8421052631577,555A32.8947368421052,32.8947368421052 0,0,0 301.0526315789473,555" fill="none" stroke="gray" stroke-width="0.4838709677419355" opacity="0.5"/><path d="M366.8421052631577,555A24.671052631578902,24.671052631578902 0,0,0 317.4999999999999,555" fill="none" stroke="gray" stroke-width="0.4838709677419355" opacity="0.5"/><path d="M366.8421052631577,555A16.4473684210526,16.4473684210526 0,0,0 333.9473684210525,555" fill="none" stroke="gray" stroke-width="0.6451612903225806" opacity="0.5"/><path d="M366.8421052631577,555A8.2236842105263,8.2236842105263 0,0,0 350.3947368421051,555" fill="none" stroke="gray" stroke-width="0.6451612903225806" opacity="0.5"/><path d="M383.2894736842103,555A49.342105263157805,49.342105263157805 0,0,0 284.6052631578947,555" fill="none" stroke="gray" stroke-width="0.4838709677419355" opacity="0.5"/><path d="M383.2894736842103,555A57.565789473684106,57.565789473684106 0,0,0 268.1578947368421,555" fill="none" stroke="gray" stroke-width="0.4838709677419355" opacity="0.5"/><path d="M383.2894736842103,555A41.118421052631504,41.118421052631504 0,0,0 301.0526315789473,555" fill="none" stroke="gray" stroke-width="0.4838709677419355" opacity="0.5"/><path d="M383.2894736842103,555A32.8947368421052,32.8947368421052 0,0,0 317.4999999999999,555" fill="none" stroke="gray" stroke-width="0.4838709677419355" opacity="0.5"/><path d="M383.2894736842103,555A24.671052631578902,24.671052631578902 0,0,0 333.9473684210525,555" fill="none" stroke="gray" stroke-width="0.6451612903225806" opacity="0.5"/><path d="M383.2894736842103,555A16.4473684210526,16.4473684210526 0,0,0 350.3947368421051,555" fill="none" stroke="gray" stroke-width="0.6451612903225806" opacity="0.5"/><path d="M383.2894736842103,555A8.2236842105263,8.2236842105263 0,0,0 366.8421052631577,555" fill="none" stroke="gray" stroke-width="0.6451612903225806" opacity="0.5"/><path d="M383.2894736842103,555A90.46052631578937,90.46052631578937 0,0,0 202.36842105263156,555" fill="none" stroke="gray" stroke-width="0.3225806451612903" opacity="0.5"/><path d="M383.2894736842103,555A106.907894736842,106.907894736842 0,0,0 169.4736842105263,555" fill="none" stroke="gray" stroke-width="1.4516129032258065" opacity="0.5"/><path d="M399.7368421052629,555A8.2236842105263,8.2236842105263 0,0,0 383.2894736842103,555" fill="none" stroke="gray" stroke-width="0.3225806451612903" opacity="0.5"/><path d="M399.7368421052629,555A115.1315789473683,115.1315789473683 0,0,0 169.4736842105263,555" fill="none" stroke="gray" stroke-width="1.129032258064516" opacity="0.5"/><path d="M416.1842105263155,555A8.2236842105263,8.2236842105263 0,0,0 399.7368421052629,555" fill="none" stroke="gray" stroke-width="2.096774193548387" opacity="0.5"/><path d="M416.1842105263155,555A16.4473684210526,16.4473684210526 0,0,0 383.2894736842103,555" fill="none" stroke="gray" stroke-width="0.16129032258064516" opacity="0.5"/><path d="M416.1842105263155,555A123.3552631578946,123.3552631578946 0,0,0 169.4736842105263,555" fill="none" stroke="gray" stroke-width="1.935483870967742" opacity="0.5"/><path d="M432.6315789473681,555A16.4473684210526,16.4473684210526 0,0,0 399.7368421052629,555" fill="none" stroke="gray" stroke-width="0.6451612903225806" opacity="0.5"/><path d="M432.6315789473681,555A131.5789473684209,131.5789473684209 0,0,0 169.4736842105263,555" fill="none" stroke="gray" stroke-width="5" opacity="0.5"/><path d="M432.6315789473681,555A74.01315789473671,74.01315789473671 0,0,0 284.6052631578947,555" fill="none" stroke="gray" stroke-width="0.16129032258064516" opacity="0.5"/><path d="M432.6315789473681,555A8.2236842105263,8.2236842105263 0,0,0 416.1842105263155,555" fill="none" stroke="gray" stroke-width="0.16129032258064516" opacity="0.5"/><path d="M449.0789473684207,555A139.8026315789472,139.8026315789472 0,0,0 169.4736842105263,555" fill="none" stroke="gray" stroke-width="2.7419354838709675" opacity="0.5"/><path d="M449.0789473684207,555A32.8947368421052,32.8947368421052 0,0,0 383.2894736842103,555" fill="none" stroke="gray" stroke-width="0.8064516129032258" opacity="0.5"/><path d="M449.0789473684207,555A16.4473684210526,16.4473684210526 0,0,0 416.1842105263155,555" fill="none" stroke="gray" stroke-width="0.8064516129032258" opacity="0.5"/><path d="M449.0789473684207,555A24.671052631578902,24.671052631578902 0,0,0 399.7368421052629,555" fill="none" stroke="gray" stroke-width="0.16129032258064516" opacity="0.5"/><path d="M449.0789473684207,555A8.2236842105263,8.2236842105263 0,0,0 432.6315789473681,555" fill="none" stroke="gray" stroke-width="0.16129032258064516" opacity="0.5"/><path d="M465.5263157894733,555A148.0263157894735,148.0263157894735 0,0,0 169.4736842105263,555" fill="none" stroke="gray" stroke-width="1.2903225806451613" opacity="0.5"/><path d="M465.5263157894733,555A8.2236842105263,8.2236842105263 0,0,0 449.0789473684207,555" fill="none" stroke="gray" stroke-width="0.16129032258064516" opacity="0.5"/><path d="M481.9736842105259,555A49.342105263157805,49.342105263157805 0,0,0 383.2894736842103,555" fill="none" stroke="gray" stroke-width="0.16129032258064516" opacity="0.5"/><path d="M481.9736842105259,555A16.4473684210526,16.4473684210526 0,0,0 449.0789473684207,555" fill="none" stroke="gray" stroke-width="0.16129032258064516" opacity="0.5"/><path d="M481.9736842105259,555A156.2499999999998,156.2499999999998 0,0,0 169.4736842105263,555" fill="none" stroke="gray" stroke-width="0.3225806451612903" opacity="0.5"/><path d="M498.4210526315785,555A57.565789473684106,57.565789473684106 0,0,0 383.2894736842103,555" fill="none" stroke="gray" stroke-width="0.16129032258064516" opacity="0.5"/><path d="M514.8684210526311,555A8.2236842105263,8.2236842105263 0,0,0 498.4210526315785,555" fill="none" stroke="gray" stroke-width="0.3225806451612903" opacity="0.5"/><path d="M514.8684210526311,555A172.6973684210524,172.6973684210524 0,0,0 169.4736842105263,555" fill="none" stroke="gray" stroke-width="0.4838709677419355" opacity="0.5"/><path d="M514.8684210526311,555A65.7894736842104,65.7894736842104 0,0,0 383.2894736842103,555" fill="none" stroke="gray" stroke-width="0.3225806451612903" opacity="0.5"/><path d="M514.8684210526311,555A32.8947368421052,32.8947368421052 0,0,0 449.0789473684207,555" fill="none" stroke="gray" stroke-width="0.16129032258064516" opacity="0.5"/><path d="M531.3157894736837,555A180.9210526315787,180.9210526315787 0,0,0 169.4736842105263,555" fill="none" stroke="gray" stroke-width="0.16129032258064516" opacity="0.5"/><path d="M547.7631578947363,555A189.144736842105,189.144736842105 0,0,0 169.4736842105263,555" fill="none" stroke="gray" stroke-width="0.3225806451612903" opacity="0.5"/><path d="M547.7631578947363,555A49.342105263157805,49.342105263157805 0,0,0 449.0789473684207,555" fill="none" stroke="gray" stroke-width="0.16129032258064516" opacity="0.5"/><path d="M564.2105263157889,555A197.3684210526313,197.3684210526313 0,0,0 169.4736842105263,555" fill="none" stroke="gray" stroke-width="0.4838709677419355" opacity="0.5"/><path d="M564.2105263157889,555A41.118421052631504,41.118421052631504 0,0,0 481.9736842105259,555" fill="none" stroke="gray" stroke-width="0.3225806451612903" opacity="0.5"/><path d="M580.6578947368415,555A205.5921052631576,205.5921052631576 0,0,0 169.4736842105263,555" fill="none" stroke="gray" stroke-width="0.4838709677419355" opacity="0.5"/><path d="M580.6578947368415,555A8.2236842105263,8.2236842105263 0,0,0 564.2105263157889,555" fill="none" stroke="gray" stroke-width="0.4838709677419355" opacity="0.5"/><path d="M580.6578947368415,555A49.342105263157805,49.342105263157805 0,0,0 481.9736842105259,555" fill="none" stroke="gray" stroke-width="0.3225806451612903" opacity="0.5"/><path d="M597.1052631578941,555A16.4473684210526,16.4473684210526 0,0,0 564.2105263157889,555" fill="none" stroke="gray" stroke-width="0.3225806451612903" opacity="0.5"/><path d="M597.1052631578941,555A8.2236842105263,8.2236842105263 0,0,0 580.6578947368415,555" fill="none" stroke="gray" stroke-width="0.3225806451612903" opacity="0.5"/><path d="M597.1052631578941,555A213.8157894736839,213.8157894736839 0,0,0 169.4736842105263,555" fill="none" stroke="gray" stroke-width="0.3225806451612903" opacity="0.5"/><path d="M597.1052631578941,555A57.565789473684106,57.565789473684106 0,0,0 481.9736842105259,555" fill="none" stroke="gray" stroke-width="0.16129032258064516" opacity="0.5"/><path d="M613.5526315789467,555A24.671052631578902,24.671052631578902 0,0,0 564.2105263157889,555" fill="none" stroke="gray" stroke-width="0.3225806451612903" opacity="0.5"/><path d="M613.5526315789467,555A16.4473684210526,16.4473684210526 0,0,0 580.6578947368415,555" fill="none" stroke="gray" stroke-width="0.3225806451612903" opacity="0.5"/><path d="M613.5526315789467,555A8.2236842105263,8.2236842105263 0,0,0 597.1052631578941,555" fill="none" stroke="gray" stroke-width="0.3225806451612903" opacity="0.5"/><path d="M613.5526315789467,555A222.0394736842102,222.0394736842102 0,0,0 169.4736842105263,555" fill="none" stroke="gray" stroke-width="0.3225806451612903" opacity="0.5"/><path d="M613.5526315789467,555A65.7894736842104,65.7894736842104 0,0,0 481.9736842105259,555" fill="none" stroke="gray" stroke-width="0.16129032258064516" opacity="0.5"/><path d="M629.9999999999993,555A32.8947368421052,32.8947368421052 0,0,0 564.2105263157889,555" fill="none" stroke="gray" stroke-width="0.3225806451612903" opacity="0.5"/><path d="M629.9999999999993,555A24.671052631578902,24.671052631578902 0,0,0 580.6578947368415,555" fill="none" stroke="gray" stroke-width="0.3225806451612903" opacity="0.5"/><path d="M629.9999999999993,555A16.4473684210526,16.4473684210526 0,0,0 597.1052631578941,555" fill="none" stroke="gray" stroke-width="0.3225806451612903" opacity="0.5"/><path d="M629.9999999999993,555A8.2236842105263,8.2236842105263 0,0,0 613.5526315789467,555" fill="none" stroke="gray" stroke-width="0.3225806451612903" opacity="0.5"/><path d="M629.9999999999993,555A230.2631578947365,230.2631578947365 0,0,0 169.4736842105263,555" fill="none" stroke="gray" stroke-width="0.3225806451612903" opacity="0.5"/><path d="M629.9999999999993,555A74.01315789473671,74.01315789473671 0,0,0 481.9736842105259,555" fill="none" stroke="gray" stroke-width="0.16129032258064516" opacity="0.5"/><path d="M646.4473684210519,555A115.13157894736821,115.13157894736821 0,0,0 416.1842105263155,555" fill="none" stroke="gray" stroke-width="0.16129032258064516" opacity="0.5"/><path d="M662.8947368421045,555A123.35526315789451,123.35526315789451 0,0,0 416.1842105263155,555" fill="none" stroke="gray" stroke-width="0.16129032258064516" opacity="0.5"/><path d="M679.3421052631571,555A139.8026315789471,139.8026315789471 0,0,0 399.7368421052629,555" fill="none" stroke="gray" stroke-width="0.3225806451612903" opacity="0.5"/><path d="M679.3421052631571,555A131.5789473684208,131.5789473684208 0,0,0 416.1842105263155,555" fill="none" stroke="gray" stroke-width="0.4838709677419355" opacity="0.5"/><path d="M695.7894736842097,555A8.2236842105263,8.2236842105263 0,0,0 679.3421052631571,555" fill="none" stroke="gray" stroke-width="0.3225806451612903" opacity="0.5"/><path d="M695.7894736842097,555A139.8026315789471,139.8026315789471 0,0,0 416.1842105263155,555" fill="none" stroke="gray" stroke-width="0.3225806451612903" opacity="0.5"/><path d="M695.7894736842097,555A148.02631578947341,148.02631578947341 0,0,0 399.7368421052629,555" fill="none" stroke="gray" stroke-width="0.16129032258064516" opacity="0.5"/><path d="M712.2368421052623,555A271.381578947368,271.381578947368 0,0,0 169.4736842105263,555" fill="none" stroke="gray" stroke-width="0.4838709677419355" opacity="0.5"/><path d="M712.2368421052623,555A139.8026315789471,139.8026315789471 0,0,0 432.6315789473681,555" fill="none" stroke="gray" stroke-width="0.16129032258064516" opacity="0.5"/><path d="M712.2368421052623,555A131.5789473684208,131.5789473684208 0,0,0 449.0789473684207,555" fill="none" stroke="gray" stroke-width="0.16129032258064516" opacity="0.5"/><path d="M728.6842105263149,555A131.5789473684208,131.5789473684208 0,0,0 465.5263157894733,555" fill="none" stroke="gray" stroke-width="0.4838709677419355" opacity="0.5"/><path d="M728.6842105263149,555A279.60526315789434,279.60526315789434 0,0,0 169.4736842105263,555" fill="none" stroke="gray" stroke-width="0.16129032258064516" opacity="0.5"/><path d="M745.1315789473675,555A139.8026315789471,139.8026315789471 0,0,0 465.5263157894733,555" fill="none" stroke="gray" stroke-width="0.3225806451612903" opacity="0.5"/><path d="M761.5789473684201,555A8.2236842105263,8.2236842105263 0,0,1 778.0263157894727,555" fill="none" stroke="gray" stroke-width="0.16129032258064516" opacity="0.5"/><path d="M794.4736842105253,555A16.4473684210526,16.4473684210526 0,0,0 761.5789473684201,555" fill="none" stroke="gray" stroke-width="0.3225806451612903" opacity="0.5"/><path d="M794.4736842105253,555A189.14473684210492,189.14473684210492 0,0,0 416.1842105263155,555" fill="none" stroke="gray" stroke-width="0.16129032258064516" opacity="0.5"/><path d="M794.4736842105253,555A172.69736842105232,172.69736842105232 0,0,0 449.0789473684207,555" fill="none" stroke="gray" stroke-width="0.16129032258064516" opacity="0.5"/><path d="M794.4736842105253,555A312.49999999999955,312.49999999999955 0,0,0 169.4736842105263,555" fill="none" stroke="gray" stroke-width="0.16129032258064516" opacity="0.5"/><path d="M810.9210526315779,555A189.14473684210492,189.14473684210492 0,0,0 432.6315789473681,555" fill="none" stroke="gray" stroke-width="0.4838709677419355" opacity="0.5"/><path d="M810.9210526315779,555A320.7236842105258,320.7236842105258 0,0,0 169.4736842105263,555" fill="none" stroke="gray" stroke-width="0.3225806451612903" opacity="0.5"/><path d="M827.3684210526305,555A8.2236842105263,8.2236842105263 0,0,0 810.9210526315779,555" fill="none" stroke="gray" stroke-width="0.16129032258064516" opacity="0.5"/><path d="M827.3684210526305,555A213.81578947368382,213.81578947368382 0,0,0 399.7368421052629,555" fill="none" stroke="gray" stroke-width="0.16129032258064516" opacity="0.5"/><path d="M843.8157894736831,555A16.4473684210526,16.4473684210526 0,0,0 810.9210526315779,555" fill="none" stroke="gray" stroke-width="1.4516129032258065" opacity="0.5"/><path d="M843.8157894736831,555A205.59210526315752,205.59210526315752 0,0,0 432.6315789473681,555" fill="none" stroke="gray" stroke-width="0.3225806451612903" opacity="0.5"/><path d="M843.8157894736831,555A337.1710526315784,337.1710526315784 0,0,0 169.4736842105263,555" fill="none" stroke="gray" stroke-width="0.3225806451612903" opacity="0.5"/><path d="M860.2631578947357,555A8.2236842105263,8.2236842105263 0,0,0 843.8157894736831,555" fill="none" stroke="gray" stroke-width="0.16129032258064516" opacity="0.5"/><path d="M860.2631578947357,555A106.90789473684191,106.90789473684191 0,0,0 646.4473684210519,555" fill="none" stroke="gray" stroke-width="0.16129032258064516" opacity="0.5"/><path d="M876.7105263157883,555A16.4473684210526,16.4473684210526 0,0,0 843.8157894736831,555" fill="none" stroke="gray" stroke-width="0.16129032258064516" opacity="0.5"/><path d="M893.157894736841,555A24.671052631578902,24.671052631578902 0,0,0 843.8157894736831,555" fill="none" stroke="gray" stroke-width="0.3225806451612903" opacity="0.5"/><path d="M893.157894736841,555A41.118421052631504,41.118421052631504 0,0,0 810.9210526315779,555" fill="none" stroke="gray" stroke-width="0.16129032258064516" opacity="0.5"/><path d="M893.157894736841,555A230.26315789473642,230.26315789473642 0,0,0 432.6315789473681,555" fill="none" stroke="gray" stroke-width="0.16129032258064516" opacity="0.5"/><path d="M909.6052631578935,555A32.8947368421052,32.8947368421052 0,0,0 843.8157894736831,555" fill="none" stroke="gray" stroke-width="0.967741935483871" opacity="0.5"/><path d="M909.6052631578935,555A49.342105263157805,49.342105263157805 0,0,0 810.9210526315779,555" fill="none" stroke="gray" stroke-width="1.935483870967742" opacity="0.5"/><path d="M909.6052631578935,555A131.5789473684208,131.5789473684208 0,0,0 646.4473684210519,555" fill="none" stroke="gray" stroke-width="0.16129032258064516" opacity="0.5"/><path d="M909.6052631578935,555A8.2236842105263,8.2236842105263 0,0,0 893.157894736841,555" fill="none" stroke="gray" stroke-width="0.16129032258064516" opacity="0.5"/><path d="M909.6052631578935,555A238.48684210526272,238.48684210526272 0,0,0 432.6315789473681,555" fill="none" stroke="gray" stroke-width="3.387096774193548" opacity="0.5"/><path d="M909.6052631578935,555A370.0657894736836,370.0657894736836 0,0,0 169.4736842105263,555" fill="none" stroke="gray" stroke-width="3.064516129032258" opacity="0.5"/><path d="M909.6052631578935,555A312.49999999999943,312.49999999999943 0,0,0 284.6052631578947,555" fill="none" stroke="gray" stroke-width="0.16129032258064516" opacity="0.5"/><path d="M909.6052631578935,555A246.71052631578902,246.71052631578902 0,0,0 416.1842105263155,555" fill="none" stroke="gray" stroke-width="0.3225806451612903" opacity="0.5"/><path d="M909.6052631578935,555A115.13157894736821,115.13157894736821 0,0,0 679.3421052631571,555" fill="none" stroke="gray" stroke-width="0.8064516129032258" opacity="0.5"/><path d="M909.6052631578935,555A57.565789473684106,57.565789473684106 0,0,0 794.4736842105253,555" fill="none" stroke="gray" stroke-width="0.6451612903225806" opacity="0.5"/><path d="M926.0526315789461,555A57.565789473684106,57.565789473684106 0,0,0 810.9210526315779,555" fill="none" stroke="gray" stroke-width="0.16129032258064516" opacity="0.5"/><path d="M926.0526315789461,555A8.2236842105263,8.2236842105263 0,0,0 909.6052631578935,555" fill="none" stroke="gray" stroke-width="0.16129032258064516" opacity="0.5"/><path d="M942.4999999999987,555A16.4473684210526,16.4473684210526 0,0,0 909.6052631578935,555" fill="none" stroke="gray" stroke-width="0.16129032258064516" opacity="0.5"/><path d="M942.4999999999987,555A131.5789473684208,131.5789473684208 0,0,0 679.3421052631571,555" fill="none" stroke="gray" stroke-width="0.16129032258064516" opacity="0.5"/><path d="M942.4999999999987,555A74.01315789473671,74.01315789473671 0,0,0 794.4736842105253,555" fill="none" stroke="gray" stroke-width="0.16129032258064516" opacity="0.5"/><path d="M958.9473684210514,555A24.671052631578902,24.671052631578902 0,0,0 909.6052631578935,555" fill="none" stroke="gray" stroke-width="1.129032258064516" opacity="0.5"/><path d="M958.9473684210514,555A82.23684210526301,82.23684210526301 0,0,0 794.4736842105253,555" fill="none" stroke="gray" stroke-width="1.129032258064516" opacity="0.5"/><path d="M958.9473684210514,555A254.93421052631533,254.93421052631533 0,0,0 449.0789473684207,555" fill="none" stroke="gray" stroke-width="0.967741935483871" opacity="0.5"/><path d="M958.9473684210514,555A8.2236842105263,8.2236842105263 0,0,0 942.4999999999987,555" fill="none" stroke="gray" stroke-width="0.16129032258064516" opacity="0.5"/><path d="M958.9473684210514,555A394.73684210526255,394.73684210526255 0,0,0 169.4736842105263,555" fill="none" stroke="gray" stroke-width="0.6451612903225806" opacity="0.5"/><path d="M975.394736842104,555A8.2236842105263,8.2236842105263 0,0,0 958.9473684210514,555" fill="none" stroke="gray" stroke-width="2.4193548387096775" opacity="0.5"/><path d="M975.394736842104,555A32.8947368421052,32.8947368421052 0,0,0 909.6052631578935,555" fill="none" stroke="gray" stroke-width="0.8064516129032258" opacity="0.5"/><path d="M975.394736842104,555A90.46052631578931,90.46052631578931 0,0,0 794.4736842105253,555" fill="none" stroke="gray" stroke-width="0.967741935483871" opacity="0.5"/><path d="M975.394736842104,555A16.4473684210526,16.4473684210526 0,0,0 942.4999999999987,555" fill="none" stroke="gray" stroke-width="0.3225806451612903" opacity="0.5"/><path d="M991.8421052631566,555A98.68421052631561,98.68421052631561 0,0,0 794.4736842105253,555" fill="none" stroke="gray" stroke-width="0.16129032258064516" opacity="0.5"/><path d="M991.8421052631566,555A16.4473684210526,16.4473684210526 0,0,0 958.9473684210514,555" fill="none" stroke="gray" stroke-width="0.6451612903225806" opacity="0.5"/><path d="M991.8421052631566,555A8.2236842105263,8.2236842105263 0,0,0 975.394736842104,555" fill="none" stroke="gray" stroke-width="0.3225806451612903" opacity="0.5"/><path d="M1008.2894736842092,555A106.90789473684191,106.90789473684191 0,0,0 794.4736842105253,555" fill="none" stroke="gray" stroke-width="0.3225806451612903" opacity="0.5"/><path d="M1008.2894736842092,555A24.671052631578902,24.671052631578902 0,0,0 958.9473684210514,555" fill="none" stroke="gray" stroke-width="0.967741935483871" opacity="0.5"/><path d="M1008.2894736842092,555A8.2236842105263,8.2236842105263 0,0,0 991.8421052631566,555" fill="none" stroke="gray" stroke-width="0.3225806451612903" opacity="0.5"/><path d="M1008.2894736842092,555A16.4473684210526,16.4473684210526 0,0,0 975.394736842104,555" fill="none" stroke="gray" stroke-width="0.8064516129032258" opacity="0.5"/><path d="M1008.2894736842092,555A32.8947368421052,32.8947368421052 0,0,0 942.4999999999987,555" fill="none" stroke="gray" stroke-width="0.16129032258064516" opacity="0.5"/><path d="M1008.2894736842092,555A49.342105263157805,49.342105263157805 0,0,0 909.6052631578935,555" fill="none" stroke="gray" stroke-width="0.16129032258064516" opacity="0.5"/><path d="M1024.7368421052618,555A57.565789473684106,57.565789473684106 0,0,0 909.6052631578935,555" fill="none" stroke="gray" stroke-width="1.4516129032258065" opacity="0.5"/><path d="M1024.7368421052618,555A32.8947368421052,32.8947368421052 0,0,0 958.9473684210514,555" fill="none" stroke="gray" stroke-width="2.7419354838709675" opacity="0.5"/><path d="M1024.7368421052618,555A24.671052631578902,24.671052631578902 0,0,0 975.394736842104,555" fill="none" stroke="gray" stroke-width="2.096774193548387" opacity="0.5"/><path d="M1024.7368421052618,555A115.13157894736821,115.13157894736821 0,0,0 794.4736842105253,555" fill="none" stroke="gray" stroke-width="1.129032258064516" opacity="0.5"/><path d="M1024.7368421052618,555A41.118421052631504,41.118421052631504 0,0,0 942.4999999999987,555" fill="none" stroke="gray" stroke-width="0.3225806451612903" opacity="0.5"/><path d="M1024.7368421052618,555A172.69736842105232,172.69736842105232 0,0,0 679.3421052631571,555" fill="none" stroke="gray" stroke-width="0.16129032258064516" opacity="0.5"/><path d="M1024.7368421052618,555A8.2236842105263,8.2236842105263 0,0,0 1008.2894736842092,555" fill="none" stroke="gray" stroke-width="0.967741935483871" opacity="0.5"/><path d="M1024.7368421052618,555A16.4473684210526,16.4473684210526 0,0,0 991.8421052631566,555" fill="none" stroke="gray" stroke-width="0.4838709677419355" opacity="0.5"/><path d="M1041.1842105263145,555A32.89473684210526,32.89473684210526 0,0,0 975.394736842104,555" fill="none" stroke="gray" stroke-width="0.8064516129032258" opacity="0.5"/><path d="M1041.1842105263145,555A123.35526315789457,123.35526315789457 0,0,0 794.4736842105253,555" fill="none" stroke="gray" stroke-width="0.8064516129032258" opacity="0.5"/><path d="M1041.1842105263145,555A8.223684210526358,8.223684210526358 0,0,0 1024.7368421052618,555" fill="none" stroke="gray" stroke-width="0.967741935483871" opacity="0.5"/><path d="M1041.1842105263145,555A49.34210526315786,49.34210526315786 0,0,0 942.4999999999987,555" fill="none" stroke="gray" stroke-width="0.3225806451612903" opacity="0.5"/><path d="M1041.1842105263145,555A41.11842105263156,41.11842105263156 0,0,0 958.9473684210514,555" fill="none" stroke="gray" stroke-width="0.6451612903225806" opacity="0.5"/><path d="M1041.1842105263145,555A16.44736842105266,16.44736842105266 0,0,0 1008.2894736842092,555" fill="none" stroke="gray" stroke-width="0.4838709677419355" opacity="0.5"/><path d="M1041.1842105263145,555A24.67105263157896,24.67105263157896 0,0,0 991.8421052631566,555" fill="none" stroke="gray" stroke-width="0.3225806451612903" opacity="0.5"/><path d="M1041.1842105263145,555A65.78947368421046,65.78947368421046 0,0,0 909.6052631578935,555" fill="none" stroke="gray" stroke-width="0.16129032258064516" opacity="0.5"/><path d="M1057.6315789473672,555A74.01315789473682,74.01315789473682 0,0,0 909.6052631578935,555" fill="none" stroke="gray" stroke-width="0.8064516129032258" opacity="0.5"/><path d="M1057.6315789473672,555A16.447368421052715,16.447368421052715 0,0,0 1024.7368421052618,555" fill="none" stroke="gray" stroke-width="1.935483870967742" opacity="0.5"/><path d="M1057.6315789473672,555A131.57894736842093,131.57894736842093 0,0,0 794.4736842105253,555" fill="none" stroke="gray" stroke-width="0.8064516129032258" opacity="0.5"/><path d="M1057.6315789473672,555A8.223684210526358,8.223684210526358 0,0,0 1041.1842105263145,555" fill="none" stroke="gray" stroke-width="0.6451612903225806" opacity="0.5"/><path d="M1057.6315789473672,555A49.34210526315792,49.34210526315792 0,0,0 958.9473684210514,555" fill="none" stroke="gray" stroke-width="1.6129032258064515" opacity="0.5"/><path d="M1057.6315789473672,555A24.671052631579016,24.671052631579016 0,0,0 1008.2894736842092,555" fill="none" stroke="gray" stroke-width="0.967741935483871" opacity="0.5"/><path d="M1057.6315789473672,555A32.89473684210532,32.89473684210532 0,0,0 991.8421052631566,555" fill="none" stroke="gray" stroke-width="0.3225806451612903" opacity="0.5"/><path d="M1057.6315789473672,555A41.11842105263162,41.11842105263162 0,0,0 975.394736842104,555" fill="none" stroke="gray" stroke-width="1.4516129032258065" opacity="0.5"/><path d="M1057.6315789473672,555A57.56578947368422,57.56578947368422 0,0,0 942.4999999999987,555" fill="none" stroke="gray" stroke-width="0.16129032258064516" opacity="0.5"/><path d="M1057.6315789473672,555A444.0789473684205,444.0789473684205 0,0,0 169.4736842105263,555" fill="none" stroke="gray" stroke-width="0.16129032258064516" opacity="0.5"/><path d="M1074.07894736842,555A16.447368421052715,16.447368421052715 0,0,0 1041.1842105263145,555" fill="none" stroke="gray" stroke-width="0.8064516129032258" opacity="0.5"/><path d="M1074.07894736842,555A8.223684210526358,8.223684210526358 0,0,0 1057.6315789473672,555" fill="none" stroke="gray" stroke-width="1.129032258064516" opacity="0.5"/><path d="M1074.07894736842,555A139.80263157894728,139.80263157894728 0,0,0 794.4736842105253,555" fill="none" stroke="gray" stroke-width="0.4838709677419355" opacity="0.5"/><path d="M1074.07894736842,555A24.671052631579073,24.671052631579073 0,0,0 1024.7368421052618,555" fill="none" stroke="gray" stroke-width="0.8064516129032258" opacity="0.5"/><path d="M1074.07894736842,555A57.565789473684276,57.565789473684276 0,0,0 958.9473684210514,555" fill="none" stroke="gray" stroke-width="0.8064516129032258" opacity="0.5"/><path d="M1074.07894736842,555A32.894736842105374,32.894736842105374 0,0,0 1008.2894736842092,555" fill="none" stroke="gray" stroke-width="0.8064516129032258" opacity="0.5"/><path d="M1074.07894736842,555A41.118421052631675,41.118421052631675 0,0,0 991.8421052631566,555" fill="none" stroke="gray" stroke-width="0.3225806451612903" opacity="0.5"/><path d="M1074.07894736842,555A49.342105263157976,49.342105263157976 0,0,0 975.394736842104,555" fill="none" stroke="gray" stroke-width="0.8064516129032258" opacity="0.5"/><path d="M1074.07894736842,555A65.78947368421058,65.78947368421058 0,0,0 942.4999999999987,555" fill="none" stroke="gray" stroke-width="0.16129032258064516" opacity="0.5"/><path d="M1074.07894736842,555A82.23684210526318,82.23684210526318 0,0,0 909.6052631578935,555" fill="none" stroke="gray" stroke-width="0.3225806451612903" opacity="0.5"/><path d="M1090.5263157894726,555A16.447368421052715,16.447368421052715 0,0,0 1057.6315789473672,555" fill="none" stroke="gray" stroke-width="0.4838709677419355" opacity="0.5"/><path d="M1090.5263157894726,555A65.78947368421063,65.78947368421063 0,0,0 958.9473684210514,555" fill="none" stroke="gray" stroke-width="0.4838709677419355" opacity="0.5"/><path d="M1090.5263157894726,555A57.56578947368433,57.56578947368433 0,0,0 975.394736842104,555" fill="none" stroke="gray" stroke-width="0.16129032258064516" opacity="0.5"/><path d="M1090.5263157894726,555A32.89473684210543,32.89473684210543 0,0,0 1024.7368421052618,555" fill="none" stroke="gray" stroke-width="0.3225806451612903" opacity="0.5"/><path d="M1090.5263157894726,555A8.223684210526358,8.223684210526358 0,0,0 1074.07894736842,555" fill="none" stroke="gray" stroke-width="0.3225806451612903" opacity="0.5"/><path d="M1090.5263157894726,555A148.02631578947364,148.02631578947364 0,0,0 794.4736842105253,555" fill="none" stroke="gray" stroke-width="0.16129032258064516" opacity="0.5"/><path d="M1090.5263157894726,555A24.671052631579073,24.671052631579073 0,0,0 1041.1842105263145,555" fill="none" stroke="gray" stroke-width="0.16129032258064516" opacity="0.5"/><path d="M1090.5263157894726,555A41.11842105263173,41.11842105263173 0,0,0 1008.2894736842092,555" fill="none" stroke="gray" stroke-width="0.16129032258064516" opacity="0.5"/><path d="M1090.5263157894726,555A49.34210526315803,49.34210526315803 0,0,0 991.8421052631566,555" fill="none" stroke="gray" stroke-width="0.16129032258064516" opacity="0.5"/><path d="M1106.9736842105253,555A82.23684210526329,82.23684210526329 0,0,0 942.4999999999987,555" fill="none" stroke="gray" stroke-width="0.4838709677419355" opacity="0.5"/><path d="M1123.421052631578,555A353.6184210526313,353.6184210526313 0,0,0 416.1842105263155,555" fill="none" stroke="gray" stroke-width="0.8064516129032258" opacity="0.5"/><path d="M1123.421052631578,555A476.9736842105259,476.9736842105259 0,0,0 169.4736842105263,555" fill="none" stroke="gray" stroke-width="0.16129032258064516" opacity="0.5"/><path d="M1123.421052631578,555A361.8421052631576,361.8421052631576 0,0,0 399.7368421052629,555" fill="none" stroke="gray" stroke-width="0.16129032258064516" opacity="0.5"/><path d="M1123.421052631578,555A337.1710526315787,337.1710526315787 0,0,0 449.0789473684207,555" fill="none" stroke="gray" stroke-width="0.16129032258064516" opacity="0.5"/><path d="M1123.421052631578,555A164.47368421052636,164.47368421052636 0,0,0 794.4736842105253,555" fill="none" stroke="gray" stroke-width="0.16129032258064516" opacity="0.5"/><path d="M1123.421052631578,555A222.03947368421046,222.03947368421046 0,0,0 679.3421052631571,555" fill="none" stroke="gray" stroke-width="0.16129032258064516" opacity="0.5"/><path d="M1139.8684210526308,555A361.84210526315763,361.84210526315763 0,0,0 416.1842105263155,555" fill="none" stroke="gray" stroke-width="0.967741935483871" opacity="0.5"/><path d="M1139.8684210526308,555A8.223684210526358,8.223684210526358 0,0,0 1123.421052631578,555" fill="none" stroke="gray" stroke-width="0.967741935483871" opacity="0.5"/><path d="M1139.8684210526308,555A485.19736842105226,485.19736842105226 0,0,0 169.4736842105263,555" fill="none" stroke="gray" stroke-width="0.16129032258064516" opacity="0.5"/><path d="M1139.8684210526308,555A370.06578947368394,370.06578947368394 0,0,0 399.7368421052629,555" fill="none" stroke="gray" stroke-width="0.16129032258064516" opacity="0.5"/><path d="M1139.8684210526308,555A345.39473684210503,345.39473684210503 0,0,0 449.0789473684207,555" fill="none" stroke="gray" stroke-width="0.3225806451612903" opacity="0.5"/><path d="M1139.8684210526308,555A172.69736842105272,172.69736842105272 0,0,0 794.4736842105253,555" fill="none" stroke="gray" stroke-width="0.16129032258064516" opacity="0.5"/><path d="M1139.8684210526308,555A230.26315789473682,230.26315789473682 0,0,0 679.3421052631571,555" fill="none" stroke="gray" stroke-width="0.16129032258064516" opacity="0.5"/><path d="M1156.3157894736835,555A370.065789473684,370.065789473684 0,0,0 416.1842105263155,555" fill="none" stroke="gray" stroke-width="0.6451612903225806" opacity="0.5"/><path d="M1156.3157894736835,555A8.223684210526358,8.223684210526358 0,0,0 1139.8684210526308,555" fill="none" stroke="gray" stroke-width="0.6451612903225806" opacity="0.5"/><path d="M1156.3157894736835,555A16.447368421052715,16.447368421052715 0,0,0 1123.421052631578,555" fill="none" stroke="gray" stroke-width="0.6451612903225806" opacity="0.5"/><path d="M1156.3157894736835,555A493.4210526315786,493.4210526315786 0,0,0 169.4736842105263,555" fill="none" stroke="gray" stroke-width="0.16129032258064516" opacity="0.5"/><path d="M1156.3157894736835,555A378.2894736842103,378.2894736842103 0,0,0 399.7368421052629,555" fill="none" stroke="gray" stroke-width="0.16129032258064516" opacity="0.5"/><path d="M1156.3157894736835,555A353.6184210526314,353.6184210526314 0,0,0 449.0789473684207,555" fill="none" stroke="gray" stroke-width="0.16129032258064516" opacity="0.5"/><path d="M1156.3157894736835,555A238.48684210526318,238.48684210526318 0,0,0 679.3421052631571,555" fill="none" stroke="gray" stroke-width="0.16129032258064516" opacity="0.5"/><path d="M1156.3157894736835,555A98.68421052631606,98.68421052631606 0,0,0 958.9473684210514,555" fill="none" stroke="gray" stroke-width="0.16129032258064516" opacity="0.5"/><path d="M1172.7631578947362,555A361.84210526315775,361.84210526315775 0,0,0 449.0789473684207,555" fill="none" stroke="gray" stroke-width="0.16129032258064516" opacity="0.5"/><path d="M1172.7631578947362,555A16.447368421052715,16.447368421052715 0,0,0 1139.8684210526308,555" fill="none" stroke="gray" stroke-width="0.3225806451612903" opacity="0.5"/><path d="M1172.7631578947362,555A24.671052631579073,24.671052631579073 0,0,0 1123.421052631578,555" fill="none" stroke="gray" stroke-width="0.3225806451612903" opacity="0.5"/><path d="M1172.7631578947362,555A8.223684210526358,8.223684210526358 0,0,0 1156.3157894736835,555" fill="none" stroke="gray" stroke-width="0.3225806451612903" opacity="0.5"/><path d="M1172.7631578947362,555A501.644736842105,501.644736842105 0,0,0 169.4736842105263,555" fill="none" stroke="gray" stroke-width="0.16129032258064516" opacity="0.5"/><path d="M1172.7631578947362,555A189.14473684210543,189.14473684210543 0,0,0 794.4736842105253,555" fill="none" stroke="gray" stroke-width="0.16129032258064516" opacity="0.5"/><path d="M1172.7631578947362,555A246.71052631578954,246.71052631578954 0,0,0 679.3421052631571,555" fill="none" stroke="gray" stroke-width="0.16129032258064516" opacity="0.5"/><path d="M1172.7631578947362,555A378.28947368421035,378.28947368421035 0,0,0 416.1842105263155,555" fill="none" stroke="gray" stroke-width="0.16129032258064516" opacity="0.5"/><path d="M1189.210526315789,555A378.2894736842104,378.2894736842104 0,0,0 432.6315789473681,555" fill="none" stroke="gray" stroke-width="0.3225806451612903" opacity="0.5"/><path d="M1189.210526315789,555A370.0657894736841,370.0657894736841 0,0,0 449.0789473684207,555" fill="none" stroke="gray" stroke-width="0.16129032258064516" opacity="0.5"/><path d="M1189.210526315789,555A509.86842105263133,509.86842105263133 0,0,0 169.4736842105263,555" fill="none" stroke="gray" stroke-width="0.16129032258064516" opacity="0.5"/><path d="M1205.6578947368416,555A205.59210526315815,205.59210526315815 0,0,0 794.4736842105253,555" fill="none" stroke="gray" stroke-width="0.3225806451612903" opacity="0.5"/><path d="M1222.1052631578943,555A213.8157894736845,213.8157894736845 0,0,0 794.4736842105253,555" fill="none" stroke="gray" stroke-width="0.3225806451612903" opacity="0.5"/><path d="M1222.1052631578943,555A8.223684210526358,8.223684210526358 0,0,0 1205.6578947368416,555" fill="none" stroke="gray" stroke-width="0.4838709677419355" opacity="0.5"/><path d="M1238.552631578947,555A49.342105263158146,49.342105263158146 0,0,0 1139.8684210526308,555" fill="none" stroke="gray" stroke-width="0.4838709677419355" opacity="0.5"/><path d="M1238.552631578947,555A57.565789473684504,57.565789473684504 0,0,0 1123.421052631578,555" fill="none" stroke="gray" stroke-width="0.4838709677419355" opacity="0.5"/><path d="M1238.552631578947,555A411.1842105263158,411.1842105263158 0,0,0 416.1842105263155,555" fill="none" stroke="gray" stroke-width="0.4838709677419355" opacity="0.5"/><path d="M1238.552631578947,555A222.03947368421086,222.03947368421086 0,0,0 794.4736842105253,555" fill="none" stroke="gray" stroke-width="0.16129032258064516" opacity="0.5"/><path d="M1238.552631578947,555A279.60526315789497,279.60526315789497 0,0,0 679.3421052631571,555" fill="none" stroke="gray" stroke-width="0.16129032258064516" opacity="0.5"/><path d="M1238.552631578947,555A41.11842105263179,41.11842105263179 0,0,0 1156.3157894736835,555" fill="none" stroke="gray" stroke-width="0.16129032258064516" opacity="0.5"/><path d="M1238.552631578947,555A32.89473684210543,32.89473684210543 0,0,0 1172.7631578947362,555" fill="none" stroke="gray" stroke-width="0.16129032258064516" opacity="0.5"/><path d="M1254.9999999999998,555A98.68421052631629,98.68421052631629 0,0,0 1057.6315789473672,555" fill="none" stroke="gray" stroke-width="0.16129032258064516" opacity="0.5"/><path d="M1254.9999999999998,555A90.46052631578993,90.46052631578993 0,0,0 1074.07894736842,555" fill="none" stroke="gray" stroke-width="0.16129032258064516" opacity="0.5"/><path d="M1254.9999999999998,555A82.23684210526358,82.23684210526358 0,0,0 1090.5263157894726,555" fill="none" stroke="gray" stroke-width="0.16129032258064516" opacity="0.5"/><path d="M1254.9999999999998,555A106.90789473684265,106.90789473684265 0,0,0 1041.1842105263145,555" fill="none" stroke="gray" stroke-width="0.16129032258064516" opacity="0.5"/><path d="M1254.9999999999998,555A115.13157894736901,115.13157894736901 0,0,0 1024.7368421052618,555" fill="none" stroke="gray" stroke-width="0.16129032258064516" opacity="0.5"/><path d="M1254.9999999999998,555A230.26315789473722,230.26315789473722 0,0,0 794.4736842105253,555" fill="none" stroke="gray" stroke-width="0.16129032258064516" opacity="0.5"/><path d="M1254.9999999999998,555A148.0263157894742,148.0263157894742 0,0,0 958.9473684210514,555" fill="none" stroke="gray" stroke-width="0.16129032258064516" opacity="0.5"/></g><g id="nodes"><g><circle cx="5" cy="555" r="5"/><text transform="translate(5,565) rotate(-90)" alignment-baseline="middle" font-family="Helvetica, Arial, sans-serif" font-size="12" text-anchor="end">Napoleon</text></g><g><circle cx="21.44736842105263" cy="555" r="5"/><text transform="translate(21.44736842105263,565) rotate(-90)" alignment-baseline="middle" font-family="Helvetica, Arial, sans-serif" font-size="12" text-anchor="end">Myriel</text></g><g><circle cx="37.89473684210526" cy="555" r="5"/><text transform="translate(37.89473684210526,565) rotate(-90)" alignment-baseline="middle" font-family="Helvetica, Arial, sans-serif" font-size="12" text-anchor="end">Mlle.Baptistine</text></g><g><circle cx="54.34210526315789" cy="555" r="5"/><text transform="translate(54.34210526315789,565) rotate(-90)" alignment-baseline="middle" font-family="Helvetica, Arial, sans-serif" font-size="12" text-anchor="end">Mme.Magloire</text></g><g><circle cx="70.78947368421052" cy="555" r="5"/><text transform="translate(70.78947368421052,565) rotate(-90)" alignment-baseline="middle" font-family="Helvetica, Arial, sans-serif" font-size="12" text-anchor="end">CountessdeLo</text></g><g><circle cx="87.23684210526315" cy="555" r="5"/><text transform="translate(87.23684210526315,565) rotate(-90)" alignment-baseline="middle" font-family="Helvetica, Arial, sans-serif" font-size="12" text-anchor="end">Geborand</text></g><g><circle cx="103.68421052631578" cy="555" r="5"/><text transform="translate(103.68421052631578,565) rotate(-90)" alignment-baseline="middle" font-family="Helvetica, Arial, sans-serif" font-size="12" text-anchor="end">Champtercier</text></g><g><circle cx="120.13157894736841" cy="555" r="5"/><text transform="translate(120.13157894736841,565) rotate(-90)" alignment-baseline="middle" font-family="Helvetica, Arial, sans-serif" font-size="12" text-anchor="end">Cravatte</text></g><g><circle cx="136.57894736842104" cy="555" r="5"/><text transform="translate(136.57894736842104,565) rotate(-90)" alignment-baseline="middle" font-family="Helvetica, Arial, sans-serif" font-size="12" text-anchor="end">Count</text></g><g><circle cx="153.02631578947367" cy="555" r="5"/><text transform="translate(153.02631578947367,565) rotate(-90)" alignment-baseline="middle" font-family="Helvetica, Arial, sans-serif" font-size="12" text-anchor="end">OldMan</text></g><g><circle cx="169.4736842105263" cy="555" r="5"/><text transform="translate(169.4736842105263,565) rotate(-90)" alignment-baseline="middle" font-family="Helvetica, Arial, sans-serif" font-size="12" text-anchor="end">Valjean</text></g><g><circle cx="185.92105263157893" cy="555" r="5"/><text transform="translate(185.92105263157893,565) rotate(-90)" alignment-baseline="middle" font-family="Helvetica, Arial, sans-serif" font-size="12" text-anchor="end">Labarre</text></g><g><circle cx="202.36842105263156" cy="555" r="5"/><text transform="translate(202.36842105263156,565) rotate(-90)" alignment-baseline="middle" font-family="Helvetica, Arial, sans-serif" font-size="12" text-anchor="end">Marguerite</text></g><g><circle cx="218.8157894736842" cy="555" r="5"/><text transform="translate(218.8157894736842,565) rotate(-90)" alignment-baseline="middle" font-family="Helvetica, Arial, sans-serif" font-size="12" text-anchor="end">Mme.deR</text></g><g><circle cx="235.26315789473682" cy="555" r="5"/><text transform="translate(235.26315789473682,565) rotate(-90)" alignment-baseline="middle" font-family="Helvetica, Arial, sans-serif" font-size="12" text-anchor="end">Isabeau</text></g><g><circle cx="251.71052631578945" cy="555" r="5"/><text transform="translate(251.71052631578945,565) rotate(-90)" alignment-baseline="middle" font-family="Helvetica, Arial, sans-serif" font-size="12" text-anchor="end">Gervais</text></g><g><circle cx="268.1578947368421" cy="555" r="5"/><text transform="translate(268.1578947368421,565) rotate(-90)" alignment-baseline="middle" font-family="Helvetica, Arial, sans-serif" font-size="12" text-anchor="end">Listolier</text></g><g><circle cx="284.6052631578947" cy="555" r="5"/><text transform="translate(284.6052631578947,565) rotate(-90)" alignment-baseline="middle" font-family="Helvetica, Arial, sans-serif" font-size="12" text-anchor="end">Tholomyes</text></g><g><circle cx="301.0526315789473" cy="555" r="5"/><text transform="translate(301.0526315789473,565) rotate(-90)" alignment-baseline="middle" font-family="Helvetica, Arial, sans-serif" font-size="12" text-anchor="end">Fameuil</text></g><g><circle cx="317.4999999999999" cy="555" r="5"/><text transform="translate(317.4999999999999,565) rotate(-90)" alignment-baseline="middle" font-family="Helvetica, Arial, sans-serif" font-size="12" text-anchor="end">Blacheville</text></g><g><circle cx="333.9473684210525" cy="555" r="5"/><text transform="translate(333.9473684210525,565) rotate(-90)" alignment-baseline="middle" font-family="Helvetica, Arial, sans-serif" font-size="12" text-anchor="end">Favourite</text></g><g><circle cx="350.3947368421051" cy="555" r="5"/><text transform="translate(350.3947368421051,565) rotate(-90)" alignment-baseline="middle" font-family="Helvetica, Arial, sans-serif" font-size="12" text-anchor="end">Dahlia</text></g><g><circle cx="366.8421052631577" cy="555" r="5"/><text transform="translate(366.8421052631577,565) rotate(-90)" alignment-baseline="middle" font-family="Helvetica, Arial, sans-serif" font-size="12" text-anchor="end">Zephine</text></g><g><circle cx="383.2894736842103" cy="555" r="5"/><text transform="translate(383.2894736842103,565) rotate(-90)" alignment-baseline="middle" font-family="Helvetica, Arial, sans-serif" font-size="12" text-anchor="end">Fantine</text></g><g><circle cx="399.7368421052629" cy="555" r="5"/><text transform="translate(399.7368421052629,565) rotate(-90)" alignment-baseline="middle" font-family="Helvetica, Arial, sans-serif" font-size="12" text-anchor="end">Mme.Thenardier</text></g><g><circle cx="416.1842105263155" cy="555" r="5"/><text transform="translate(416.1842105263155,565) rotate(-90)" alignment-baseline="middle" font-family="Helvetica, Arial, sans-serif" font-size="12" text-anchor="end">Thenardier</text></g><g><circle cx="432.6315789473681" cy="555" r="5"/><text transform="translate(432.6315789473681,565) rotate(-90)" alignment-baseline="middle" font-family="Helvetica, Arial, sans-serif" font-size="12" text-anchor="end">Cosette</text></g><g><circle cx="449.0789473684207" cy="555" r="5"/><text transform="translate(449.0789473684207,565) rotate(-90)" alignment-baseline="middle" font-family="Helvetica, Arial, sans-serif" font-size="12" text-anchor="end">Javert</text></g><g><circle cx="465.5263157894733" cy="555" r="5"/><text transform="translate(465.5263157894733,565) rotate(-90)" alignment-baseline="middle" font-family="Helvetica, Arial, sans-serif" font-size="12" text-anchor="end">Fauchelevent</text></g><g><circle cx="481.9736842105259" cy="555" r="5"/><text transform="translate(481.9736842105259,565) rotate(-90)" alignment-baseline="middle" font-family="Helvetica, Arial, sans-serif" font-size="12" text-anchor="end">Bamatabois</text></g><g><circle cx="498.4210526315785" cy="555" r="5"/><text transform="translate(498.4210526315785,565) rotate(-90)" alignment-baseline="middle" font-family="Helvetica, Arial, sans-serif" font-size="12" text-anchor="end">Perpetue</text></g><g><circle cx="514.8684210526311" cy="555" r="5"/><text transform="translate(514.8684210526311,565) rotate(-90)" alignment-baseline="middle" font-family="Helvetica, Arial, sans-serif" font-size="12" text-anchor="end">Simplice</text></g><g><circle cx="531.3157894736837" cy="555" r="5"/><text transform="translate(531.3157894736837,565) rotate(-90)" alignment-baseline="middle" font-family="Helvetica, Arial, sans-serif" font-size="12" text-anchor="end">Scaufflaire</text></g><g><circle cx="547.7631578947363" cy="555" r="5"/><text transform="translate(547.7631578947363,565) rotate(-90)" alignment-baseline="middle" font-family="Helvetica, Arial, sans-serif" font-size="12" text-anchor="end">Woman1</text></g><g><circle cx="564.2105263157889" cy="555" r="5"/><text transform="translate(564.2105263157889,565) rotate(-90)" alignment-baseline="middle" font-family="Helvetica, Arial, sans-serif" font-size="12" text-anchor="end">Judge</text></g><g><circle cx="580.6578947368415" cy="555" r="5"/><text transform="translate(580.6578947368415,565) rotate(-90)" alignment-baseline="middle" font-family="Helvetica, Arial, sans-serif" font-size="12" text-anchor="end">Champmathieu</text></g><g><circle cx="597.1052631578941" cy="555" r="5"/><text transform="translate(597.1052631578941,565) rotate(-90)" alignment-baseline="middle" font-family="Helvetica, Arial, sans-serif" font-size="12" text-anchor="end">Brevet</text></g><g><circle cx="613.5526315789467" cy="555" r="5"/><text transform="translate(613.5526315789467,565) rotate(-90)" alignment-baseline="middle" font-family="Helvetica, Arial, sans-serif" font-size="12" text-anchor="end">Chenildieu</text></g><g><circle cx="629.9999999999993" cy="555" r="5"/><text transform="translate(629.9999999999993,565) rotate(-90)" alignment-baseline="middle" font-family="Helvetica, Arial, sans-serif" font-size="12" text-anchor="end">Cochepaille</text></g><g><circle cx="646.4473684210519" cy="555" r="5"/><text transform="translate(646.4473684210519,565) rotate(-90)" alignment-baseline="middle" font-family="Helvetica, Arial, sans-serif" font-size="12" text-anchor="end">Pontmercy</text></g><g><circle cx="662.8947368421045" cy="555" r="5"/><text transform="translate(662.8947368421045,565) rotate(-90)" alignment-baseline="middle" font-family="Helvetica, Arial, sans-serif" font-size="12" text-anchor="end">Boulatruelle</text></g><g><circle cx="679.3421052631571" cy="555" r="5"/><text transform="translate(679.3421052631571,565) rotate(-90)" alignment-baseline="middle" font-family="Helvetica, Arial, sans-serif" font-size="12" text-anchor="end">Eponine</text></g><g><circle cx="695.7894736842097" cy="555" r="5"/><text transform="translate(695.7894736842097,565) rotate(-90)" alignment-baseline="middle" font-family="Helvetica, Arial, sans-serif" font-size="12" text-anchor="end">Anzelma</text></g><g><circle cx="712.2368421052623" cy="555" r="5"/><text transform="translate(712.2368421052623,565) rotate(-90)" alignment-baseline="middle" font-family="Helvetica, Arial, sans-serif" font-size="12" text-anchor="end">Woman2</text></g><g><circle cx="728.6842105263149" cy="555" r="5"/><text transform="translate(728.6842105263149,565) rotate(-90)" alignment-baseline="middle" font-family="Helvetica, Arial, sans-serif" font-size="12" text-anchor="end">MotherInnocent</text></g><g><circle cx="745.1315789473675" cy="555" r="5"/><text transform="translate(745.1315789473675,565) rotate(-90)" alignment-baseline="middle" font-family="Helvetica, Arial, sans-serif" font-size="12" text-anchor="end">Gribier</text></g><g><circle cx="761.5789473684201" cy="555" r="5"/><text transform="translate(761.5789473684201,565) rotate(-90)" alignment-baseline="middle" font-family="Helvetica, Arial, sans-serif" font-size="12" text-anchor="end">Mme.Burgon</text></g><g><circle cx="778.0263157894727" cy="555" r="5"/><text transform="translate(778.0263157894727,565) rotate(-90)" alignment-baseline="middle" font-family="Helvetica, Arial, sans-serif" font-size="12" text-anchor="end">Jondrette</text></g><g><circle cx="794.4736842105253" cy="555" r="5"/><text transform="translate(794.4736842105253,565) rotate(-90)" alignment-baseline="middle" font-family="Helvetica, Arial, sans-serif" font-size="12" text-anchor="end">Gavroche</text></g><g><circle cx="810.9210526315779" cy="555" r="5"/><text transform="translate(810.9210526315779,565) rotate(-90)" alignment-baseline="middle" font-family="Helvetica, Arial, sans-serif" font-size="12" text-anchor="end">Gillenormand</text></g><g><circle cx="827.3684210526305" cy="555" r="5"/><text transform="translate(827.3684210526305,565) rotate(-90)" alignment-baseline="middle" font-family="Helvetica, Arial, sans-serif" font-size="12" text-anchor="end">Magnon</text></g><g><circle cx="843.8157894736831" cy="555" r="5"/><text transform="translate(843.8157894736831,565) rotate(-90)" alignment-baseline="middle" font-family="Helvetica, Arial, sans-serif" font-size="12" text-anchor="end">Mlle.Gillenormand</text></g><g><circle cx="860.2631578947357" cy="555" r="5"/><text transform="translate(860.2631578947357,565) rotate(-90)" alignment-baseline="middle" font-family="Helvetica, Arial, sans-serif" font-size="12" text-anchor="end">Mme.Pontmercy</text></g><g><circle cx="876.7105263157883" cy="555" r="5"/><text transform="translate(876.7105263157883,565) rotate(-90)" alignment-baseline="middle" font-family="Helvetica, Arial, sans-serif" font-size="12" text-anchor="end">Mlle.Vaubois</text></g><g><circle cx="893.157894736841" cy="555" r="5"/><text transform="translate(893.157894736841,565) rotate(-90)" alignment-baseline="middle" font-family="Helvetica, Arial, sans-serif" font-size="12" text-anchor="end">Lt.Gillenormand</text></g><g><circle cx="909.6052631578935" cy="555" r="5"/><text transform="translate(909.6052631578935,565) rotate(-90)" alignment-baseline="middle" font-family="Helvetica, Arial, sans-serif" font-size="12" text-anchor="end">Marius</text></g><g><circle cx="926.0526315789461" cy="555" r="5"/><text transform="translate(926.0526315789461,565) rotate(-90)" alignment-baseline="middle" font-family="Helvetica, Arial, sans-serif" font-size="12" text-anchor="end">BaronessT</text></g><g><circle cx="942.4999999999987" cy="555" r="5"/><text transform="translate(942.4999999999987,565) rotate(-90)" alignment-baseline="middle" font-family="Helvetica, Arial, sans-serif" font-size="12" text-anchor="end">Mabeuf</text></g><g><circle cx="958.9473684210514" cy="555" r="5"/><text transform="translate(958.9473684210514,565) rotate(-90)" alignment-baseline="middle" font-family="Helvetica, Arial, sans-serif" font-size="12" text-anchor="end">Enjolras</text></g><g><circle cx="975.394736842104" cy="555" r="5"/><text transform="translate(975.394736842104,565) rotate(-90)" alignment-baseline="middle" font-family="Helvetica, Arial, sans-serif" font-size="12" text-anchor="end">Combeferre</text></g><g><circle cx="991.8421052631566" cy="555" r="5"/><text transform="translate(991.8421052631566,565) rotate(-90)" alignment-baseline="middle" font-family="Helvetica, Arial, sans-serif" font-size="12" text-anchor="end">Prouvaire</text></g><g><circle cx="1008.2894736842092" cy="555" r="5"/><text transform="translate(1008.2894736842092,565) rotate(-90)" alignment-baseline="middle" font-family="Helvetica, Arial, sans-serif" font-size="12" text-anchor="end">Feuilly</text></g><g><circle cx="1024.7368421052618" cy="555" r="5"/><text transform="translate(1024.7368421052618,565) rotate(-90)" alignment-baseline="middle" font-family="Helvetica, Arial, sans-serif" font-size="12" text-anchor="end">Courfeyrac</text></g><g><circle cx="1041.1842105263145" cy="555" r="5"/><text transform="translate(1041.1842105263145,565) rotate(-90)" alignment-baseline="middle" font-family="Helvetica, Arial, sans-serif" font-size="12" text-anchor="end">Bahorel</text></g><g><circle cx="1057.6315789473672" cy="555" r="5"/><text transform="translate(1057.6315789473672,565) rotate(-90)" alignment-baseline="middle" font-family="Helvetica, Arial, sans-serif" font-size="12" text-anchor="end">Bossuet</text></g><g><circle cx="1074.07894736842" cy="555" r="5"/><text transform="translate(1074.07894736842,565) rotate(-90)" alignment-baseline="middle" font-family="Helvetica, Arial, sans-serif" font-size="12" text-anchor="end">Joly</text></g><g><circle cx="1090.5263157894726" cy="555" r="5"/><text transform="translate(1090.5263157894726,565) rotate(-90)" alignment-baseline="middle" font-family="Helvetica, Arial, sans-serif" font-size="12" text-anchor="end">Grantaire</text></g><g><circle cx="1106.9736842105253" cy="555" r="5"/><text transform="translate(1106.9736842105253,565) rotate(-90)" alignment-baseline="middle" font-family="Helvetica, Arial, sans-serif" font-size="12" text-anchor="end">MotherPlutarch</text></g><g><circle cx="1123.421052631578" cy="555" r="5"/><text transform="translate(1123.421052631578,565) rotate(-90)" alignment-baseline="middle" font-family="Helvetica, Arial, sans-serif" font-size="12" text-anchor="end">Gueulemer</text></g><g><circle cx="1139.8684210526308" cy="555" r="5"/><text transform="translate(1139.8684210526308,565) rotate(-90)" alignment-baseline="middle" font-family="Helvetica, Arial, sans-serif" font-size="12" text-anchor="end">Babet</text></g><g><circle cx="1156.3157894736835" cy="555" r="5"/><text transform="translate(1156.3157894736835,565) rotate(-90)" alignment-baseline="middle" font-family="Helvetica, Arial, sans-serif" font-size="12" text-anchor="end">Claquesous</text></g><g><circle cx="1172.7631578947362" cy="555" r="5"/><text transform="translate(1172.7631578947362,565) rotate(-90)" alignment-baseline="middle" font-family="Helvetica, Arial, sans-serif" font-size="12" text-anchor="end">Montparnasse</text></g><g><circle cx="1189.210526315789" cy="555" r="5"/><text transform="translate(1189.210526315789,565) rotate(-90)" alignment-baseline="middle" font-family="Helvetica, Arial, sans-serif" font-size="12" text-anchor="end">Toussaint</text></g><g><circle cx="1205.6578947368416" cy="555" r="5"/><text transform="translate(1205.6578947368416,565) rotate(-90)" alignment-baseline="middle" font-family="Helvetica, Arial, sans-serif" font-size="12" text-anchor="end">Child1</text></g><g><circle cx="1222.1052631578943" cy="555" r="5"/><text transform="translate(1222.1052631578943,565) rotate(-90)" alignment-baseline="middle" font-family="Helvetica, Arial, sans-serif" font-size="12" text-anchor="end">Child2</text></g><g><circle cx="1238.552631578947" cy="555" r="5"/><text transform="translate(1238.552631578947,565) rotate(-90)" alignment-baseline="middle" font-family="Helvetica, Arial, sans-serif" font-size="12" text-anchor="end">Brujon</text></g><g><circle cx="1254.9999999999998" cy="555" r="5"/><text transform="translate(1254.9999999999998,565) rotate(-90)" alignment-baseline="middle" font-family="Helvetica, Arial, sans-serif" font-size="12" text-anchor="end">Mme.Hucheloup</text></g></g></g></svg>