<svg xmlns="http://www.w3.org/2000/svg" width="1080" height="720"><rect width="1080" height="720" x="0" y="0" fill="#FFFFFF" id="backgorund"/><g transform="translate(30,30)" id="visualization"><g><rect x="0" y="15" height="318.75" width="5" fill="black"><title>Edible: 102</title></rect><rect x="472.5" y="12.5" height="175" width="5" fill="black"><title>Fibrous: 56</title></rect><rect x="472.5" y="192.5" height="184.375" width="5" fill="black"><title>Smooth: 59</title></rect><rect x="472.5" y="381.875" height="265.625" width="5" fill="black"><title>Scaly: 85</title></rect><rect x="0" y="338.75" height="306.25" width="5" fill="black"><title>Poisonous: 98</title></rect><rect x="945" y="0" height="234.375" width="5" fill="black"><title>None: 75</title></rect><rect x="945" y="239.375" height="187.5" width="5" fill="black"><title>Foul: 60</title></rect><rect x="945" y="431.875" height="12.5" width="5" fill="black"><title>Creosote: 4</title></rect><rect x="945" y="449.375" height="53.125" width="5" fill="black"><title>Fishy: 17</title></rect><rect x="945" y="507.5" height="21.875" width="5" fill="black"><title>Pungent: 7</title></rect><rect x="945" y="534.375" height="25" width="5" fill="black"><title>Spicy: 8</title></rect><rect x="945" y="564.375" height="40.625" width="5" fill="black"><title>Almond: 13</title></rect><rect x="945" y="610" height="50" width="5" fill="black"><title>Anise: 16</title></rect></g><g fill="none" stroke-opacity="1"><g style="mix-blend-mode: multiply;"><path d="M5,68.125C238.75,68.125,238.75,65.625,472.5,65.625" stroke="#1f77b4" stroke-width="106.25"/><title>Edible → Fibrous: 34</title></g><g style="mix-blend-mode: multiply;"><path d="M5,157.1875C238.75,157.1875,238.75,228.4375,472.5,228.4375" stroke="#1f77b4" stroke-width="71.875"/><title>Edible → Smooth: 23</title></g><g style="mix-blend-mode: multiply;"><path d="M5,263.4375C238.75,263.4375,238.75,452.1875,472.5,452.1875" stroke="#1f77b4" stroke-width="140.625"/><title>Edible → Scaly: 45</title></g><g style="mix-blend-mode: multiply;"><path d="M5,373.125C238.75,373.125,238.75,153.125,472.5,153.125" stroke="#ff7f0e" stroke-width="68.75"/><title>Poisonous → Fibrous: 22</title></g><g style="mix-blend-mode: multiply;"><path d="M5,582.5C238.75,582.5,238.75,585,472.5,585" stroke="#ff7f0e" stroke-width="125"/><title>Poisonous → Scaly: 40</title></g><g style="mix-blend-mode: multiply;"><path d="M5,463.75C238.75,463.75,238.75,320.625,472.5,320.625" stroke="#ff7f0e" stroke-width="112.5"/><title>Poisonous → Smooth: 36</title></g><g style="mix-blend-mode: multiply;"><path d="M477.5,65.625C711.25,65.625,711.25,53.125,945,53.125" stroke="#2ca02c" stroke-width="106.25"/><title>Fibrous → None: 34</title></g><g style="mix-blend-mode: multiply;"><path d="M477.5,214.375C711.25,214.375,711.25,128.125,945,128.125" stroke="#9467bd" stroke-width="43.75"/><title>Smooth → None: 14</title></g><g style="mix-blend-mode: multiply;"><path d="M477.5,424.0625C711.25,424.0625,711.25,192.1875,945,192.1875" stroke="#d62728" stroke-width="84.375"/><title>Scaly → None: 27</title></g><g style="mix-blend-mode: multiply;"><path d="M477.5,148.4375C711.25,148.4375,711.25,269.0625,945,269.0625" stroke="#2ca02c" stroke-width="59.375"/><title>Fibrous → Foul: 19</title></g><g style="mix-blend-mode: multiply;"><path d="M477.5,182.8125C711.25,182.8125,711.25,436.5625,945,436.5625" stroke="#2ca02c" stroke-width="9.375"/><title>Fibrous → Creosote: 3</title></g><g style="mix-blend-mode: multiply;"><path d="M477.5,564.6875C711.25,564.6875,711.25,491.5625,945,491.5625" stroke="#d62728" stroke-width="21.875"/><title>Scaly → Fishy: 7</title></g><g style="mix-blend-mode: multiply;"><path d="M477.5,580.3125C711.25,580.3125,711.25,524.6875,945,524.6875" stroke="#d62728" stroke-width="9.375"/><title>Scaly → Pungent: 3</title></g><g style="mix-blend-mode: multiply;"><path d="M477.5,256.5625C711.25,256.5625,711.25,319.0625,945,319.0625" stroke="#9467bd" stroke-width="40.625"/><title>Smooth → Foul: 13</title></g><g style="mix-blend-mode: multiply;"><path d="M477.5,334.6875C711.25,334.6875,711.25,545.3125,945,545.3125" stroke="#9467bd" stroke-width="21.875"/><title>Smooth → Spicy: 7</title></g><g style="mix-blend-mode: multiply;"><path d="M477.5,295.625C711.25,295.625,711.25,465,945,465" stroke="#9467bd" stroke-width="31.25"/><title>Smooth → Fishy: 10</title></g><g style="mix-blend-mode: multiply;"><path d="M477.5,351.875C711.25,351.875,711.25,570.625,945,570.625" stroke="#9467bd" stroke-width="12.5"/><title>Smooth → Almond: 4</title></g><g style="mix-blend-mode: multiply;"><path d="M477.5,367.5C711.25,367.5,711.25,619.375,945,619.375" stroke="#9467bd" stroke-width="18.75"/><title>Smooth → Anise: 6</title></g><g style="mix-blend-mode: multiply;"><path d="M477.5,602.1875C711.25,602.1875,711.25,590.9375,945,590.9375" stroke="#d62728" stroke-width="28.125"/><title>Scaly → Almond: 9</title></g><g style="mix-blend-mode: multiply;"><path d="M477.5,510C711.25,510,711.25,383.125,945,383.125" stroke="#d62728" stroke-width="87.5"/><title>Scaly → Foul: 28</title></g><g style="mix-blend-mode: multiply;"><path d="M477.5,317.5C711.25,317.5,711.25,513.75,945,513.75" stroke="#9467bd" stroke-width="12.5"/><title>Smooth → Pungent: 4</title></g><g style="mix-blend-mode: multiply;"><path d="M477.5,631.875C711.25,631.875,711.25,644.375,945,644.375" stroke="#d62728" stroke-width="31.25"/><title>Scaly → Anise: 10</title></g><g style="mix-blend-mode: multiply;"><path d="M477.5,278.4375C711.25,278.4375,711.25,442.8125,945,442.8125" stroke="#9467bd" stroke-width="3.125"/><title>Smooth → Creosote: 1</title></g><g style="mix-blend-mode: multiply;"><path d="M477.5,586.5625C711.25,586.5625,711.25,557.8125,945,557.8125" stroke="#d62728" stroke-width="3.125"/><title>Scaly → Spicy: 1</title></g></g><g><text x="9" y="174.375" text-anchor="start"><tspan alignment-baseline="middle" x="9" style="font-family: Arial, sans-serif; font-size: 10px; fill: black; font-weight: bold;">Edible</tspan></text><text x="481.5" y="100" text-anchor="start"><tspan alignment-baseline="middle" x="481.5" style="font-family: Arial, sans-serif; font-size: 10px; fill: black; font-weight: bold;">Fibrous</tspan></text><text x="481.5" y="284.6875" text-anchor="start"><tspan alignment-baseline="middle" x="481.5" style="font-family: Arial, sans-serif; font-size: 10px; fill: black; font-weight: bold;">Smooth</tspan></text><text x="481.5" y="514.6875" text-anchor="start"><tspan alignment-baseline="middle" x="481.5" style="font-family: Arial, sans-serif; font-size: 10px; fill: black; font-weight: bold;">Scaly</tspan></text><text x="9" y="491.875" text-anchor="start"><tspan alignment-baseline="middle" x="9" style="font-family: Arial, sans-serif; font-size: 10px; fill: black; font-weight: bold;">Poisonous</tspan></text><text x="941" y="117.1875" text-anchor="end"><tspan alignment-baseline="middle" x="941" style="font-family: Arial, sans-serif; font-size: 10px; fill: black; font-weight: bold;">None</tspan></text><text x="941" y="333.125" text-anchor="end"><tspan alignment-baseline="middle" x="941" style="font-family: Arial, sans-serif; font-size: 10px; fill: black; font-weight: bold;">Foul</tspan></text><text x="941" y="438.125" text-anchor="end"><tspan alignment-baseline="middle" x="941" style="font-family: Arial, sans-serif; font-size: 10px; fill: black; font-weight: bold;">Creosote</tspan></text><text x="941" y="475.9375" text-anchor="end"><tspan alignment-baseline="middle" x="941" style="font-family: Arial, sans-serif; font-size: 10px; fill: black; font-weight: bold;">Fishy</tspan></text><text x="941" y="518.4375" text-anchor="end"><tspan alignment-baseline="middle" x="941" style="font-family: Arial, sans-serif; font-size: 10px; fill: black; font-weight: bold;">Pungent</tspan></text><text x="941" y="546.875" text-anchor="end"><tspan alignment-baseline="middle" x="941" style="font-family: Arial, sans-serif; font-size: 10px; fill: black; font-weight: bold;">Spicy</tspan></text><text x="941" y="584.6875" text-anchor="end"><tspan alignment-baseline="middle" x="941" style="font-family: Arial, sans-serif; font-size: 10px; fill: black; font-weight: bold;">Almond</tspan></text><text x="941" y="635" text-anchor="end"><tspan alignment-baseline="middle" x="941" style="font-family: Arial, sans-serif; font-size: 10px; fill: black; font-weight: bold;">Anise</tspan></text></g><g><text x="2.5" y="11" text-anchor="middle" style="font-family: Arial, sans-serif; font-size: 12px; fill: rgb(123, 123, 123); font-weight: bold;">IsEdible</text><text x="475" y="8.5" text-anchor="middle" style="font-family: Arial, sans-serif; font-size: 12px; fill: rgb(123, 123, 123); font-weight: bold;">Surface</text><text x="947.5" y="-4" text-anchor="middle" style="font-family: Arial, sans-serif; font-size: 12px; fill: rgb(123, 123, 123); font-weight: bold;">Odor</text></g></g></svg>