<svg xmlns="http://www.w3.org/2000/svg" width="805" height="600"><rect width="805" height="600" x="0" y="0" fill="#FFFFFF" id="backgorund"/><g id="viz"><g transform="translate(0,0)"><g transform="translate(10,20)"><g><path fill="rgb(65, 244, 144)" d="M0,534.5454545454546C17.444444444444446,524.7878787878789,34.888888888888886,515.030303030303,52.333333333333336,504C69.77777777777779,492.96969696969694,87.22222222222223,481.0909090909091,104.66666666666667,468.3636363636364C122.11111111111111,455.6363636363636,139.55555555555554,437.8181818181818,157,427.6363636363636C174.44444444444446,417.45454545454544,191.88888888888889,418.30303030303037,209.33333333333334,407.2727272727273C226.77777777777777,396.2424242424243,244.2222222222222,375.03030303030306,261.66666666666663,361.4545454545455C279.1111111111111,347.8787878787879,296.55555555555554,339.3939393939394,314,325.8181818181818C331.44444444444446,312.24242424242425,348.88888888888886,292.72727272727275,366.3333333333333,280C383.77777777777777,267.27272727272725,401.22222222222223,257.93939393939394,418.6666666666667,249.45454545454544C436.11111111111114,240.96969696969697,453.55555555555554,236.7272727272727,471,229.09090909090907C488.4444444444444,221.45454545454544,505.88888888888886,213.8181818181818,523.3333333333333,203.63636363636365C540.7777777777777,193.45454545454547,558.2222222222222,182.42424242424246,575.6666666666666,168.00000000000003C593.1111111111111,153.5757575757576,610.5555555555555,128.96969696969697,628,117.0909090909091C645.4444444444445,105.21212121212122,662.8888888888889,106.90909090909093,680.3333333333334,96.72727272727273C697.7777777777778,86.54545454545455,715.2222222222222,66.18181818181817,732.6666666666666,55.999999999999986C750.1111111111111,45.81818181818178,767.5555555555555,40.7272727272727,785,35.63636363636362L785,106.9090909090909C767.5555555555555,109.87878787878786,750.1111111111111,112.8484848484848,732.6666666666666,122.18181818181816C715.2222222222222,131.5151515151515,697.7777777777778,152.72727272727272,680.3333333333334,162.9090909090909C662.8888888888889,173.09090909090912,645.4444444444445,172.24242424242425,628,183.27272727272728C610.5555555555555,194.3030303030303,593.1111111111111,216.36363636363635,575.6666666666666,229.09090909090907C558.2222222222222,241.81818181818178,540.7777777777777,251.15151515151513,523.3333333333333,259.6363636363636C505.88888888888886,268.1212121212121,488.4444444444444,274.06060606060606,471,280C453.55555555555554,285.93939393939394,436.11111111111114,287.6363636363637,418.6666666666667,295.2727272727273C401.22222222222223,302.90909090909093,383.77777777777777,313.09090909090907,366.3333333333333,325.8181818181818C348.88888888888886,338.5454545454545,331.44444444444446,358.06060606060606,314,371.6363636363636C296.55555555555554,385.21212121212125,279.1111111111111,395.39393939393943,261.66666666666663,407.2727272727273C244.2222222222222,419.1515151515152,226.77777777777777,436.12121212121207,209.33333333333334,442.9090909090909C191.88888888888889,449.6969696969697,174.44444444444446,446.30303030303025,157,453.09090909090907C139.55555555555554,459.8787878787879,122.11111111111111,477.69696969696975,104.66666666666667,488.72727272727275C87.22222222222223,499.7575757575758,69.77777777777779,509.93939393939394,52.333333333333336,519.2727272727273C34.888888888888886,528.6060606060606,17.444444444444446,536.6666666666666,0,544.7272727272727Z"><title>GER</title></path><path fill="rgb(250, 192, 41)" d="M0,544.7272727272727C17.444444444444446,537.5151515151515,34.888888888888886,530.3030303030304,52.333333333333336,524.3636363636364C69.77777777777779,518.4242424242424,87.22222222222223,515.8787878787879,104.66666666666667,509.09090909090907C122.11111111111111,502.30303030303025,139.55555555555554,489.57575757575756,157,483.6363636363636C174.44444444444446,477.6969696969697,191.88888888888889,477.6969696969697,209.33333333333334,473.45454545454544C226.77777777777777,469.2121212121212,244.2222222222222,466.66666666666663,261.66666666666663,458.18181818181813C279.1111111111111,449.69696969696963,296.55555555555554,434.4242424242424,314,422.5454545454545C331.44444444444446,410.66666666666663,348.88888888888886,396.24242424242425,366.3333333333333,386.90909090909093C383.77777777777777,377.5757575757576,401.22222222222223,366.54545454545456,418.6666666666667,366.54545454545456C436.11111111111114,366.54545454545456,453.55555555555554,366.54545454545456,471,366.54545454545456C488.4444444444444,366.54545454545456,505.88888888888886,360.6060606060606,523.3333333333333,356.3636363636364C540.7777777777777,352.1212121212121,558.2222222222222,351.2727272727273,575.6666666666666,341.0909090909091C593.1111111111111,330.90909090909093,610.5555555555555,305.4545454545455,628,295.2727272727273C645.4444444444445,285.0909090909091,662.8888888888889,288.4848484848485,680.3333333333334,280C697.7777777777778,271.5151515151515,715.2222222222222,251.15151515151516,732.6666666666666,244.36363636363637C750.1111111111111,237.5757575757576,767.5555555555555,235.87878787878788,785,234.1818181818182L785,274.90909090909093C767.5555555555555,276.6060606060606,750.1111111111111,278.3030303030303,732.6666666666666,285.09090909090907C715.2222222222222,291.8787878787878,697.7777777777778,313.939393939394,680.3333333333334,320.72727272727275C662.8888888888889,327.5151515151515,645.4444444444445,324.1212121212121,628,330.9090909090909C610.5555555555555,337.69696969696963,593.1111111111111,362.3030303030303,575.6666666666666,371.6363636363636C558.2222222222222,380.96969696969694,540.7777777777777,382.6666666666667,523.3333333333333,386.90909090909093C505.88888888888886,391.1515151515152,488.4444444444444,397.0909090909091,471,397.0909090909091C453.55555555555554,397.0909090909091,436.11111111111114,397.0909090909091,418.6666666666667,397.0909090909091C401.22222222222223,397.0909090909091,383.77777777777777,408.1212121212122,366.3333333333333,417.4545454545455C348.88888888888886,426.7878787878788,331.44444444444446,442.06060606060606,314,453.09090909090907C296.55555555555554,464.12121212121207,279.1111111111111,476,261.66666666666663,483.6363636363636C244.2222222222222,491.27272727272725,226.77777777777777,495.5151515151515,209.33333333333334,498.9090909090909C191.88888888888889,502.30303030303025,174.44444444444446,500.60606060606057,157,504C139.55555555555554,507.39393939393943,122.11111111111111,519.2727272727273,104.66666666666667,524.3636363636364C87.22222222222223,529.4545454545455,69.77777777777779,530.3030303030304,52.333333333333336,534.5454545454546C34.888888888888886,538.7878787878789,17.444444444444446,544.3030303030304,0,549.8181818181819Z"><title>NED</title></path><path fill="rgb(189, 239, 63)" d="M0,554.909090909091C17.444444444444446,554.909090909091,34.888888888888886,554.909090909091,52.333333333333336,554.909090909091C69.77777777777779,554.909090909091,87.22222222222223,554.909090909091,104.66666666666667,554.909090909091C122.11111111111111,554.909090909091,139.55555555555554,549.8181818181819,157,549.8181818181819C174.44444444444446,549.8181818181819,191.88888888888889,549.8181818181819,209.33333333333334,549.8181818181819C226.77777777777777,549.8181818181819,244.2222222222222,549.8181818181819,261.66666666666663,549.8181818181819C279.1111111111111,549.8181818181819,296.55555555555554,538.7878787878789,314,529.4545454545455C331.44444444444446,520.1212121212121,348.88888888888886,500.6060606060606,366.3333333333333,493.8181818181818C383.77777777777777,487.030303030303,401.22222222222223,483.6363636363636,418.6666666666667,483.6363636363636C436.11111111111114,483.6363636363636,453.55555555555554,483.6363636363636,471,483.6363636363636C488.4444444444444,483.6363636363636,505.88888888888886,481.09090909090907,523.3333333333333,478.5454545454545C540.7777777777777,475.99999999999994,558.2222222222222,473.45454545454544,575.6666666666666,468.3636363636364C593.1111111111111,463.2727272727273,610.5555555555555,451.39393939393943,628,448C645.4444444444445,444.60606060606057,662.8888888888889,446.3030303030303,680.3333333333334,442.9090909090909C697.7777777777778,439.51515151515144,715.2222222222222,415.75757575757575,732.6666666666666,412.3636363636364C750.1111111111111,408.969696969697,767.5555555555555,408.1212121212122,785,407.2727272727273L785,432.7272727272727C767.5555555555555,433.57575757575756,750.1111111111111,434.4242424242424,732.6666666666666,437.8181818181818C715.2222222222222,441.21212121212125,697.7777777777778,459.8787878787878,680.3333333333334,463.27272727272725C662.8888888888889,466.6666666666667,645.4444444444445,464.96969696969694,628,468.3636363636364C610.5555555555555,471.7575757575758,593.1111111111111,483.6363636363637,575.6666666666666,488.72727272727275C558.2222222222222,493.8181818181818,540.7777777777777,498.9090909090909,523.3333333333333,498.9090909090909C505.88888888888886,498.9090909090909,488.4444444444444,498.9090909090909,471,498.9090909090909C453.55555555555554,498.9090909090909,436.11111111111114,498.9090909090909,418.6666666666667,498.9090909090909C401.22222222222223,498.9090909090909,383.77777777777777,502.30303030303025,366.3333333333333,509.09090909090907C348.88888888888886,515.8787878787879,331.44444444444446,532,314,539.6363636363636C296.55555555555554,547.2727272727273,279.1111111111111,554.909090909091,261.66666666666663,554.909090909091C244.2222222222222,554.909090909091,226.77777777777777,554.909090909091,209.33333333333334,554.909090909091C191.88888888888889,554.909090909091,174.44444444444446,554.909090909091,157,554.909090909091C139.55555555555554,554.909090909091,122.11111111111111,560,104.66666666666667,560C87.22222222222223,560,69.77777777777779,560,52.333333333333336,560C34.888888888888886,560,17.444444444444446,560,0,560Z"><title>KOR</title></path><path fill="rgb(167, 21, 3)" d="M0,549.8181818181819C17.444444444444446,546,34.888888888888886,542.1818181818181,52.333333333333336,539.6363636363636C69.77777777777779,537.0909090909091,87.22222222222223,537.939393939394,104.66666666666667,534.5454545454546C122.11111111111111,531.1515151515152,139.55555555555554,519.2727272727273,157,519.2727272727273C174.44444444444446,519.2727272727273,191.88888888888889,519.2727272727273,209.33333333333334,519.2727272727273C226.77777777777777,519.2727272727273,244.2222222222222,515.8787878787879,261.66666666666663,509.09090909090907C279.1111111111111,502.30303030303025,296.55555555555554,489.57575757575756,314,478.5454545454545C331.44444444444446,467.5151515151515,348.88888888888886,452.2424242424242,366.3333333333333,442.9090909090909C383.77777777777777,433.57575757575756,401.22222222222223,422.5454545454545,418.6666666666667,422.5454545454545C436.11111111111114,422.5454545454545,453.55555555555554,422.5454545454545,471,422.5454545454545C488.4444444444444,422.5454545454545,505.88888888888886,415.75757575757575,523.3333333333333,412.3636363636364C540.7777777777777,408.969696969697,558.2222222222222,408.969696969697,575.6666666666666,402.18181818181824C593.1111111111111,395.3939393939395,610.5555555555555,378.4242424242424,628,371.6363636363636C645.4444444444445,364.8484848484849,662.8888888888889,368.24242424242425,680.3333333333334,361.4545454545455C697.7777777777778,354.66666666666674,715.2222222222222,337.69696969696963,732.6666666666666,330.9090909090909C750.1111111111111,324.1212121212121,767.5555555555555,322.42424242424244,785,320.72727272727275L785,356.3636363636364C767.5555555555555,357.21212121212125,750.1111111111111,358.06060606060606,732.6666666666666,361.4545454545455C715.2222222222222,364.84848484848493,697.7777777777778,388.60606060606057,680.3333333333334,392C662.8888888888889,395.39393939393943,645.4444444444445,393.6969696969697,628,397.0909090909091C610.5555555555555,400.48484848484856,593.1111111111111,416.60606060606057,575.6666666666666,422.5454545454545C558.2222222222222,428.48484848484844,540.7777777777777,429.3333333333333,523.3333333333333,432.7272727272727C505.88888888888886,436.12121212121207,488.4444444444444,442.9090909090909,471,442.9090909090909C453.55555555555554,442.9090909090909,436.11111111111114,442.9090909090909,418.6666666666667,442.9090909090909C401.22222222222223,442.9090909090909,383.77777777777777,453.93939393939394,366.3333333333333,463.27272727272725C348.88888888888886,472.60606060606057,331.44444444444446,488.7272727272727,314,498.9090909090909C296.55555555555554,509.09090909090907,279.1111111111111,520.969696969697,261.66666666666663,524.3636363636364C244.2222222222222,527.7575757575758,226.77777777777777,529.4545454545455,209.33333333333334,529.4545454545455C191.88888888888889,529.4545454545455,174.44444444444446,529.4545454545455,157,529.4545454545455C139.55555555555554,529.4545454545455,122.11111111111111,537.0909090909091,104.66666666666667,539.6363636363636C87.22222222222223,542.1818181818181,69.77777777777779,542.1818181818182,52.333333333333336,544.7272727272727C34.888888888888886,547.2727272727273,17.444444444444446,551.0909090909091,0,554.909090909091Z"><title>SWE</title></path><path fill="rgb(255, 171, 36)" d="M0,544.7272727272727C17.444444444444446,536.6666666666666,34.888888888888886,528.6060606060606,52.333333333333336,519.2727272727273C69.77777777777779,509.93939393939394,87.22222222222223,499.7575757575758,104.66666666666667,488.72727272727275C122.11111111111111,477.69696969696975,139.55555555555554,459.8787878787879,157,453.09090909090907C174.44444444444446,446.30303030303025,191.88888888888889,449.6969696969697,209.33333333333334,442.9090909090909C226.77777777777777,436.12121212121207,244.2222222222222,419.1515151515152,261.66666666666663,407.2727272727273C279.1111111111111,395.39393939393943,296.55555555555554,385.21212121212125,314,371.6363636363636C331.44444444444446,358.06060606060606,348.88888888888886,338.5454545454545,366.3333333333333,325.8181818181818C383.77777777777777,313.09090909090907,401.22222222222223,302.90909090909093,418.6666666666667,295.2727272727273C436.11111111111114,287.6363636363637,453.55555555555554,285.93939393939394,471,280C488.4444444444444,274.06060606060606,505.88888888888886,268.1212121212121,523.3333333333333,259.6363636363636C540.7777777777777,251.15151515151513,558.2222222222222,241.81818181818178,575.6666666666666,229.09090909090907C593.1111111111111,216.36363636363635,610.5555555555555,194.3030303030303,628,183.27272727272728C645.4444444444445,172.24242424242425,662.8888888888889,173.09090909090912,680.3333333333334,162.9090909090909C697.7777777777778,152.72727272727272,715.2222222222222,131.5151515151515,732.6666666666666,122.18181818181816C750.1111111111111,112.8484848484848,767.5555555555555,109.87878787878786,785,106.9090909090909L785,178.18181818181822C767.5555555555555,179.8787878787879,750.1111111111111,181.5757575757576,732.6666666666666,188.36363636363635C715.2222222222222,195.15151515151507,697.7777777777778,218.90909090909088,680.3333333333334,229.09090909090907C662.8888888888889,239.27272727272725,645.4444444444445,238.4242424242424,628,249.45454545454544C610.5555555555555,260.4848484848485,593.1111111111111,284.24242424242425,575.6666666666666,295.2727272727273C558.2222222222222,306.30303030303037,540.7777777777777,308.8484848484849,523.3333333333333,315.6363636363637C505.88888888888886,322.42424242424244,488.4444444444444,332.60606060606057,471,336C453.55555555555554,339.39393939393943,436.11111111111114,337.6969696969697,418.6666666666667,341.0909090909091C401.22222222222223,344.48484848484856,383.77777777777777,351.2727272727273,366.3333333333333,361.4545454545455C348.88888888888886,371.6363636363637,331.44444444444446,389.45454545454555,314,402.18181818181824C296.55555555555554,414.909090909091,279.1111111111111,428.4848484848485,261.66666666666663,437.8181818181818C244.2222222222222,447.1515151515151,226.77777777777777,453.09090909090907,209.33333333333334,458.18181818181813C191.88888888888889,463.27272727272725,174.44444444444446,461.57575757575756,157,468.3636363636364C139.55555555555554,475.1515151515152,122.11111111111111,489.57575757575756,104.66666666666667,498.9090909090909C87.22222222222223,508.2424242424242,69.77777777777779,516.7272727272727,52.333333333333336,524.3636363636364C34.888888888888886,532,17.444444444444446,538.3636363636364,0,544.7272727272727Z"><title>NOR</title></path><path fill="rgb(64, 44, 121)" d="M0,554.909090909091C17.444444444444446,552.3636363636365,34.888888888888886,549.8181818181819,52.333333333333336,549.8181818181819C69.77777777777779,549.8181818181819,87.22222222222223,549.8181818181819,104.66666666666667,549.8181818181819C122.11111111111111,549.8181818181819,139.55555555555554,539.6363636363636,157,539.6363636363636C174.44444444444446,539.6363636363636,191.88888888888889,539.6363636363636,209.33333333333334,539.6363636363636C226.77777777777777,539.6363636363636,244.2222222222222,539.6363636363636,261.66666666666663,539.6363636363636C279.1111111111111,539.6363636363636,296.55555555555554,524.3636363636365,314,514.1818181818182C331.44444444444446,504.00000000000006,348.88888888888886,487.030303030303,366.3333333333333,478.5454545454545C383.77777777777777,470.060606060606,401.22222222222223,463.27272727272725,418.6666666666667,463.27272727272725C436.11111111111114,463.27272727272725,453.55555555555554,463.27272727272725,471,463.27272727272725C488.4444444444444,463.27272727272725,505.88888888888886,460.7272727272727,523.3333333333333,458.18181818181813C540.7777777777777,455.63636363636357,558.2222222222222,453.93939393939394,575.6666666666666,448C593.1111111111111,442.06060606060606,610.5555555555555,425.9393939393938,628,422.5454545454545C645.4444444444445,419.1515151515152,662.8888888888889,420.8484848484848,680.3333333333334,417.4545454545455C697.7777777777778,414.0606060606062,715.2222222222222,390.3030303030303,732.6666666666666,386.90909090909093C750.1111111111111,383.51515151515156,767.5555555555555,382.66666666666674,785,381.81818181818187L785,407.2727272727273C767.5555555555555,408.1212121212122,750.1111111111111,408.969696969697,732.6666666666666,412.3636363636364C715.2222222222222,415.75757575757575,697.7777777777778,439.51515151515144,680.3333333333334,442.9090909090909C662.8888888888889,446.3030303030303,645.4444444444445,444.60606060606057,628,448C610.5555555555555,451.39393939393943,593.1111111111111,463.2727272727273,575.6666666666666,468.3636363636364C558.2222222222222,473.45454545454544,540.7777777777777,475.99999999999994,523.3333333333333,478.5454545454545C505.88888888888886,481.09090909090907,488.4444444444444,483.6363636363636,471,483.6363636363636C453.55555555555554,483.6363636363636,436.11111111111114,483.6363636363636,418.6666666666667,483.6363636363636C401.22222222222223,483.6363636363636,383.77777777777777,487.030303030303,366.3333333333333,493.8181818181818C348.88888888888886,500.6060606060606,331.44444444444446,520.1212121212121,314,529.4545454545455C296.55555555555554,538.7878787878789,279.1111111111111,549.8181818181819,261.66666666666663,549.8181818181819C244.2222222222222,549.8181818181819,226.77777777777777,549.8181818181819,209.33333333333334,549.8181818181819C191.88888888888889,549.8181818181819,174.44444444444446,549.8181818181819,157,549.8181818181819C139.55555555555554,549.8181818181819,122.11111111111111,554.909090909091,104.66666666666667,554.909090909091C87.22222222222223,554.909090909091,69.77777777777779,554.909090909091,52.333333333333336,554.909090909091C34.888888888888886,554.909090909091,17.444444444444446,554.909090909091,0,554.909090909091Z"><title>AUT</title></path><path fill="rgb(65, 115, 244)" d="M0,544.7272727272727C17.444444444444446,538.3636363636364,34.888888888888886,532,52.333333333333336,524.3636363636364C69.77777777777779,516.7272727272727,87.22222222222223,508.2424242424242,104.66666666666667,498.9090909090909C122.11111111111111,489.57575757575756,139.55555555555554,475.1515151515152,157,468.3636363636364C174.44444444444446,461.57575757575756,191.88888888888889,463.27272727272725,209.33333333333334,458.18181818181813C226.77777777777777,453.09090909090907,244.2222222222222,447.1515151515151,261.66666666666663,437.8181818181818C279.1111111111111,428.4848484848485,296.55555555555554,414.909090909091,314,402.18181818181824C331.44444444444446,389.45454545454555,348.88888888888886,371.6363636363637,366.3333333333333,361.4545454545455C383.77777777777777,351.2727272727273,401.22222222222223,344.48484848484856,418.6666666666667,341.0909090909091C436.11111111111114,337.6969696969697,453.55555555555554,339.39393939393943,471,336C488.4444444444444,332.60606060606057,505.88888888888886,322.42424242424244,523.3333333333333,315.6363636363637C540.7777777777777,308.8484848484849,558.2222222222222,306.30303030303037,575.6666666666666,295.2727272727273C593.1111111111111,284.24242424242425,610.5555555555555,260.4848484848485,628,249.45454545454544C645.4444444444445,238.4242424242424,662.8888888888889,239.27272727272725,680.3333333333334,229.09090909090907C697.7777777777778,218.90909090909088,715.2222222222222,195.15151515151507,732.6666666666666,188.36363636363635C750.1111111111111,181.5757575757576,767.5555555555555,179.8787878787879,785,178.18181818181822L785,234.1818181818182C767.5555555555555,235.87878787878788,750.1111111111111,237.5757575757576,732.6666666666666,244.36363636363637C715.2222222222222,251.15151515151516,697.7777777777778,271.5151515151515,680.3333333333334,280C662.8888888888889,288.4848484848485,645.4444444444445,285.0909090909091,628,295.2727272727273C610.5555555555555,305.4545454545455,593.1111111111111,330.90909090909093,575.6666666666666,341.0909090909091C558.2222222222222,351.2727272727273,540.7777777777777,352.1212121212121,523.3333333333333,356.3636363636364C505.88888888888886,360.6060606060606,488.4444444444444,366.54545454545456,471,366.54545454545456C453.55555555555554,366.54545454545456,436.11111111111114,366.54545454545456,418.6666666666667,366.54545454545456C401.22222222222223,366.54545454545456,383.77777777777777,377.5757575757576,366.3333333333333,386.90909090909093C348.88888888888886,396.24242424242425,331.44444444444446,410.66666666666663,314,422.5454545454545C296.55555555555554,434.4242424242424,279.1111111111111,449.69696969696963,261.66666666666663,458.18181818181813C244.2222222222222,466.66666666666663,226.77777777777777,469.2121212121212,209.33333333333334,473.45454545454544C191.88888888888889,477.6969696969697,174.44444444444446,477.6969696969697,157,483.6363636363636C139.55555555555554,489.57575757575756,122.11111111111111,502.30303030303025,104.66666666666667,509.09090909090907C87.22222222222223,515.8787878787879,69.77777777777779,518.4242424242424,52.333333333333336,524.3636363636364C34.888888888888886,530.3030303030304,17.444444444444446,537.5151515151515,0,544.7272727272727Z"><title>CAN</title></path><path fill="rgb(41, 219, 189)" d="M0,554.909090909091C17.444444444444446,551.0909090909091,34.888888888888886,547.2727272727273,52.333333333333336,544.7272727272727C69.77777777777779,542.1818181818182,87.22222222222223,542.1818181818181,104.66666666666667,539.6363636363636C122.11111111111111,537.0909090909091,139.55555555555554,529.4545454545455,157,529.4545454545455C174.44444444444446,529.4545454545455,191.88888888888889,529.4545454545455,209.33333333333334,529.4545454545455C226.77777777777777,529.4545454545455,244.2222222222222,527.7575757575758,261.66666666666663,524.3636363636364C279.1111111111111,520.969696969697,296.55555555555554,509.09090909090907,314,498.9090909090909C331.44444444444446,488.7272727272727,348.88888888888886,472.60606060606057,366.3333333333333,463.27272727272725C383.77777777777777,453.93939393939394,401.22222222222223,442.9090909090909,418.6666666666667,442.9090909090909C436.11111111111114,442.9090909090909,453.55555555555554,442.9090909090909,471,442.9090909090909C488.4444444444444,442.9090909090909,505.88888888888886,436.12121212121207,523.3333333333333,432.7272727272727C540.7777777777777,429.3333333333333,558.2222222222222,428.48484848484844,575.6666666666666,422.5454545454545C593.1111111111111,416.60606060606057,610.5555555555555,400.48484848484856,628,397.0909090909091C645.4444444444445,393.6969696969697,662.8888888888889,395.39393939393943,680.3333333333334,392C697.7777777777778,388.60606060606057,715.2222222222222,364.84848484848493,732.6666666666666,361.4545454545455C750.1111111111111,358.06060606060606,767.5555555555555,357.21212121212125,785,356.3636363636364L785,381.81818181818187C767.5555555555555,382.66666666666674,750.1111111111111,383.51515151515156,732.6666666666666,386.90909090909093C715.2222222222222,390.3030303030303,697.7777777777778,414.0606060606062,680.3333333333334,417.4545454545455C662.8888888888889,420.8484848484848,645.4444444444445,419.1515151515152,628,422.5454545454545C610.5555555555555,425.9393939393938,593.1111111111111,442.06060606060606,575.6666666666666,448C558.2222222222222,453.93939393939394,540.7777777777777,455.63636363636357,523.3333333333333,458.18181818181813C505.88888888888886,460.7272727272727,488.4444444444444,463.27272727272725,471,463.27272727272725C453.55555555555554,463.27272727272725,436.11111111111114,463.27272727272725,418.6666666666667,463.27272727272725C401.22222222222223,463.27272727272725,383.77777777777777,470.060606060606,366.3333333333333,478.5454545454545C348.88888888888886,487.030303030303,331.44444444444446,504.00000000000006,314,514.1818181818182C296.55555555555554,524.3636363636365,279.1111111111111,539.6363636363636,261.66666666666663,539.6363636363636C244.2222222222222,539.6363636363636,226.77777777777777,539.6363636363636,209.33333333333334,539.6363636363636C191.88888888888889,539.6363636363636,174.44444444444446,539.6363636363636,157,539.6363636363636C139.55555555555554,539.6363636363636,122.11111111111111,549.8181818181819,104.66666666666667,549.8181818181819C87.22222222222223,549.8181818181819,69.77777777777779,549.8181818181819,52.333333333333336,549.8181818181819C34.888888888888886,549.8181818181819,17.444444444444446,552.3636363636365,0,554.909090909091Z"><title>FRA</title></path><path fill="rgb(144, 12, 0)" d="M0,549.8181818181819C17.444444444444446,544.3030303030304,34.888888888888886,538.7878787878789,52.333333333333336,534.5454545454546C69.77777777777779,530.3030303030304,87.22222222222223,529.4545454545455,104.66666666666667,524.3636363636364C122.11111111111111,519.2727272727273,139.55555555555554,507.39393939393943,157,504C174.44444444444446,500.60606060606057,191.88888888888889,502.30303030303025,209.33333333333334,498.9090909090909C226.77777777777777,495.5151515151515,244.2222222222222,491.27272727272725,261.66666666666663,483.6363636363636C279.1111111111111,476,296.55555555555554,464.12121212121207,314,453.09090909090907C331.44444444444446,442.06060606060606,348.88888888888886,426.7878787878788,366.3333333333333,417.4545454545455C383.77777777777777,408.1212121212122,401.22222222222223,397.0909090909091,418.6666666666667,397.0909090909091C436.11111111111114,397.0909090909091,453.55555555555554,397.0909090909091,471,397.0909090909091C488.4444444444444,397.0909090909091,505.88888888888886,391.1515151515152,523.3333333333333,386.90909090909093C540.7777777777777,382.6666666666667,558.2222222222222,380.96969696969694,575.6666666666666,371.6363636363636C593.1111111111111,362.3030303030303,610.5555555555555,337.69696969696963,628,330.9090909090909C645.4444444444445,324.1212121212121,662.8888888888889,327.5151515151515,680.3333333333334,320.72727272727275C697.7777777777778,313.939393939394,715.2222222222222,291.8787878787878,732.6666666666666,285.09090909090907C750.1111111111111,278.3030303030303,767.5555555555555,276.6060606060606,785,274.90909090909093L785,320.72727272727275C767.5555555555555,322.42424242424244,750.1111111111111,324.1212121212121,732.6666666666666,330.9090909090909C715.2222222222222,337.69696969696963,697.7777777777778,354.66666666666674,680.3333333333334,361.4545454545455C662.8888888888889,368.24242424242425,645.4444444444445,364.8484848484849,628,371.6363636363636C610.5555555555555,378.4242424242424,593.1111111111111,395.3939393939395,575.6666666666666,402.18181818181824C558.2222222222222,408.969696969697,540.7777777777777,408.969696969697,523.3333333333333,412.3636363636364C505.88888888888886,415.75757575757575,488.4444444444444,422.5454545454545,471,422.5454545454545C453.55555555555554,422.5454545454545,436.11111111111114,422.5454545454545,418.6666666666667,422.5454545454545C401.22222222222223,422.5454545454545,383.77777777777777,433.57575757575756,366.3333333333333,442.9090909090909C348.88888888888886,452.2424242424242,331.44444444444446,467.5151515151515,314,478.5454545454545C296.55555555555554,489.57575757575756,279.1111111111111,502.30303030303025,261.66666666666663,509.09090909090907C244.2222222222222,515.8787878787879,226.77777777777777,519.2727272727273,209.33333333333334,519.2727272727273C191.88888888888889,519.2727272727273,174.44444444444446,519.2727272727273,157,519.2727272727273C139.55555555555554,519.2727272727273,122.11111111111111,531.1515151515152,104.66666666666667,534.5454545454546C87.22222222222223,537.939393939394,69.77777777777779,537.0909090909091,52.333333333333336,539.6363636363636C34.888888888888886,542.1818181818181,17.444444444444446,546,0,549.8181818181819Z"><title>USA</title></path></g><g id="xAxis" transform="translate(0,560)" fill="none" font-size="10" font-family="sans-serif" text-anchor="middle"><path class="domain" stroke="currentColor" d="M0.5,0.5H785.5"/><g class="tick" opacity="1" transform="translate(52.833333333333336,0)"><line stroke="currentColor" y2="6"/><text fill="currentColor" y="9" dy="0.71em">Feb 11</text></g><g class="tick" opacity="1" transform="translate(157.5,0)"><line stroke="currentColor" y2="6"/><text fill="currentColor" y="9" dy="0.71em">Tue 13</text></g><g class="tick" opacity="1" transform="translate(262.16666666666663,0)"><line stroke="currentColor" y2="6"/><text fill="currentColor" y="9" dy="0.71em">Thu 15</text></g><g class="tick" opacity="1" transform="translate(366.8333333333333,0)"><line stroke="currentColor" y2="6"/><text fill="currentColor" y="9" dy="0.71em">Sat 17</text></g><g class="tick" opacity="1" transform="translate(471.5,0)"><line stroke="currentColor" y2="6"/><text fill="currentColor" y="9" dy="0.71em">Mon 19</text></g><g class="tick" opacity="1" transform="translate(576.1666666666666,0)"><line stroke="currentColor" y2="6"/><text fill="currentColor" y="9" dy="0.71em">Wed 21</text></g><g class="tick" opacity="1" transform="translate(680.8333333333334,0)"><line stroke="currentColor" y2="6"/><text fill="currentColor" y="9" dy="0.71em">Fri 23</text></g><g class="tick" opacity="1" transform="translate(785.5,0)"><line stroke="currentColor" y2="6"/><text fill="currentColor" y="9" dy="0.71em">Feb 25</text></g></g><text style="font-family: Arial, sans-serif; font-size: 12px; fill: rgb(123, 123, 123); font-weight: bold;" y="556" x="785" text-anchor="end">date</text><text style="font-family: Arial, sans-serif; font-size: 12px; fill: rgb(123, 123, 123); font-weight: bold;" x="4" text-anchor="start" dominant-baseline="hanging">gold</text><g id="labels"><text x="785" y="71.2727272727273" text-anchor="end" alignment-baseline="middle" style="font-family: Arial, sans-serif; font-size: 10px; fill: black; font-weight: bold;">GER</text><text x="680.3333333333334" y="300.3636363636364" text-anchor="middle" alignment-baseline="middle" style="font-family: Arial, sans-serif; font-size: 10px; fill: black; font-weight: bold;">NED</text><text x="732.6666666666666" y="425.09090909090907" text-anchor="middle" alignment-baseline="middle" style="font-family: Arial, sans-serif; font-size: 10px; fill: black; font-weight: bold;">KOR</text><text x="785" y="338.5454545454545" text-anchor="end" alignment-baseline="middle" style="font-family: Arial, sans-serif; font-size: 10px; fill: black; font-weight: bold;">SWE</text><text x="785" y="142.54545454545453" text-anchor="end" alignment-baseline="middle" style="font-family: Arial, sans-serif; font-size: 10px; fill: black; font-weight: bold;">NOR</text><text x="628" y="435.2727272727273" text-anchor="middle" alignment-baseline="middle" style="font-family: Arial, sans-serif; font-size: 10px; fill: black; font-weight: bold;">AUT</text><text x="732.6666666666666" y="216.36363636363635" text-anchor="middle" alignment-baseline="middle" style="font-family: Arial, sans-serif; font-size: 10px; fill: black; font-weight: bold;">CAN</text><text x="523.3333333333333" y="445.45454545454544" text-anchor="middle" alignment-baseline="middle" style="font-family: Arial, sans-serif; font-size: 10px; fill: black; font-weight: bold;">FRA</text><text x="732.6666666666666" y="308" text-anchor="middle" alignment-baseline="middle" style="font-family: Arial, sans-serif; font-size: 10px; fill: black; font-weight: bold;">USA</text></g></g><text x="4" y="4" style="font-family: Arial, sans-serif; font-size: 12px; fill: black; font-weight: bold; dominant-baseline: hanging;"/></g></g></svg>