<?xml version="1.0" encoding="utf-8"?>
<!-- Generator: Adobe Illustrator 25.4.1, SVG Export Plug-In . SVG Version: 6.00 Build 0)  -->
<svg version="1.1" id="Layer_1" xmlns="http://www.w3.org/2000/svg" xmlns:xlink="http://www.w3.org/1999/xlink" x="0px" y="0px"
	 viewBox="0 0 1374.4 503.7" style="enable-background:new 0 0 1374.4 503.7;" xml:space="preserve">
<style type="text/css">
	.st0{opacity:0.4;fill:none;stroke:#000000;stroke-width:0.5;stroke-miterlimit:10;}
	.st1{fill:#1F77B4;}
	.st2{fill:#FF7F0E;}
	.st3{fill:#2CA02C;}
	.st4{fill:#D62728;}
	.st5{fill:#9467BD;}
	.st6{fill:#8C564B;}
	.st7{fill:none;}
	.st8{font-family:'Poppins-Bold';}
	.st9{font-size:30px;}
	.st10{font-family:'Poppins-Regular';}
	.st11{fill:#CCCCCC;}
	.st12{font-family:'Lato-Bold';}
	.st13{font-size:11.4947px;}
	.st14{font-size:18px;}
	.st15{font-family:'Poppins-Italic';}
	.st16{font-size:12px;}
</style>
<line class="st0" x1="145.2" y1="238.6" x2="145.2" y2="272.6"/>
<line class="st0" x1="223.4" y1="152.9" x2="223.4" y2="204.5"/>
<line class="st0" x1="542.4" y1="206.8" x2="542.4" y2="231.1"/>
<line class="st0" x1="826.5" y1="204.8" x2="826.5" y2="229.1"/>
<line class="st0" x1="1165.5" y1="164.3" x2="1165.5" y2="206.9"/>
<g>
	<g id="cicles">
		<circle class="st1" cx="81.7" cy="231" r="2.8"/>
		<circle class="st2" cx="109.1" cy="178.8" r="3"/>
		<circle class="st3" cx="52.1" cy="203.4" r="1.8"/>
		<circle class="st4" cx="145.3" cy="239.1" r="4"/>
		<circle class="st5" cx="88.1" cy="207.1" r="1.8"/>
		<circle class="st6" cx="181.8" cy="182.9" r="5.4"/>
		<circle class="st1" cx="82.2" cy="177.4" r="1.8"/>
		<circle class="st2" cx="214.8" cy="213.9" r="5.9"/>
		
			<ellipse transform="matrix(1.930497e-03 -1 1 1.930497e-03 -97.1734 302.2934)" class="st3" cx="102.9" cy="199.8" rx="2.8" ry="2.8"/>
		<circle class="st4" cx="60" cy="188.6" r="1.8"/>
		<circle class="st5" cx="67.9" cy="180.8" r="1.8"/>
		<circle class="st6" cx="310.4" cy="196.4" r="7.6"/>
		<circle class="st1" cx="105.8" cy="150.1" r="2.8"/>
		<circle class="st2" cx="201.8" cy="211.8" r="5.3"/>
		<circle class="st3" cx="102.7" cy="254.9" r="1.8"/>
		<circle class="st4" cx="84.1" cy="248.6" r="1.8"/>
		<circle class="st5" cx="96.3" cy="223.6" r="1.8"/>
		<circle class="st6" cx="268.4" cy="207" r="6.9"/>
		<circle class="st1" cx="66.4" cy="170.3" r="1.8"/>
		<circle class="st2" cx="164.1" cy="199.2" r="5"/>
		<circle class="st3" cx="386.1" cy="196.9" r="8.6"/>
		<circle class="st4" cx="152.9" cy="197.9" r="4.3"/>
		<circle class="st5" cx="98.1" cy="173.2" r="1.8"/>
		<circle class="st6" cx="448.9" cy="198" r="9.3"/>
		<circle class="st1" cx="223.3" cy="203.1" r="5.8"/>
		<circle class="st2" cx="543.5" cy="205.1" r="10.3"/>
		<circle class="st3" cx="1165" cy="205.1" r="15"/>
		<circle class="st4" cx="89.7" cy="243.5" r="3.2"/>
		<circle class="st5" cx="136.5" cy="174.6" r="3.7"/>
		<circle class="st6" cx="826" cy="205.1" r="12.7"/>
		<circle class="st1" cx="104.3" cy="191.9" r="3.3"/>
		<circle class="st2" cx="174.4" cy="204.9" r="4.9"/>
		<circle class="st3" cx="261.6" cy="192.5" r="7"/>
		<circle class="st4" cx="73.9" cy="241.8" r="3.3"/>
		<circle class="st5" cx="73.1" cy="184.9" r="2.8"/>
		<circle class="st6" cx="417.4" cy="213.9" r="9"/>
		<circle class="st1" cx="76.8" cy="161.4" r="1.8"/>
		<circle class="st2" cx="117.2" cy="177.8" r="3.3"/>
		<circle class="st3" cx="136.8" cy="202.6" r="3.6"/>
		<circle class="st4" cx="52" cy="194.2" r="1.8"/>
		<circle class="st5" cx="126.8" cy="161.5" r="1.8"/>
		<circle class="st6" cx="142.8" cy="248.7" r="4"/>
		<circle class="st1" cx="116.5" cy="154.3" r="1.8"/>
		<circle class="st2" cx="153" cy="246.5" r="4.5"/>
		<circle class="st3" cx="72.7" cy="220.9" r="1.8"/>
		<circle class="st4" cx="64.2" cy="204.1" r="1.8"/>
		<circle class="st5" cx="122.9" cy="173.7" r="1.8"/>
		<circle class="st6" cx="116.5" cy="229.3" r="2.8"/>
		<circle class="st1" cx="68.8" cy="192.5" r="1.8"/>
		<circle class="st2" cx="130.8" cy="227.2" r="3.5"/>
		<circle class="st3" cx="89.7" cy="213.1" r="2.5"/>
		<circle class="st4" cx="84.2" cy="183.8" r="1.8"/>
		<circle class="st5" cx="48.8" cy="189.6" r="1.8"/>
		<circle class="st6" cx="110.2" cy="250.3" r="3.5"/>
		<circle class="st1" cx="93.8" cy="261.1" r="2.5"/>
		<circle class="st2" cx="481.4" cy="205.1" r="9.7"/>
		<circle class="st3" cx="259.5" cy="220.3" r="7.1"/>
		<circle class="st4" cx="68.9" cy="175.3" r="1.8"/>
		<circle class="st5" cx="110.6" cy="165.7" r="3.3"/>
		<circle class="st6" cx="631.1" cy="205.1" r="11.1"/>
		<circle class="st1" cx="108.4" cy="258.6" r="3"/>
		<circle class="st2" cx="367.1" cy="196.9" r="8.4"/>
		<circle class="st3" cx="155.1" cy="235.8" r="4.4"/>
		<circle class="st4" cx="72" cy="170.2" r="1.8"/>
		<circle class="st5" cx="81.6" cy="221.3" r="1.8"/>
		<circle class="st6" cx="357.7" cy="213.3" r="8.4"/>
		<circle class="st1" cx="147.9" cy="228.1" r="4.2"/>
		<circle class="st2" cx="128.6" cy="201.4" r="2.8"/>
		<circle class="st3" cx="88.3" cy="256.7" r="2.5"/>
		<circle class="st4" cx="119.2" cy="184.5" r="1.8"/>
		<circle class="st5" cx="153.5" cy="176.1" r="4.5"/>
		<circle class="st6" cx="90.8" cy="184.8" r="3"/>
		<circle class="st1" cx="112.7" cy="211.7" r="1.8"/>
		<circle class="st2" cx="129.3" cy="257.7" r="3.7"/>
		<circle class="st3" cx="57.6" cy="193.7" r="1.8"/>
		<circle class="st4" cx="112.2" cy="172.8" r="1.8"/>
		<circle class="st5" cx="75.8" cy="201.3" r="1.8"/>
		<circle class="st6" cx="170.4" cy="177" r="5.5"/>
		<circle class="st1" cx="96.4" cy="254.6" r="2.5"/>
		<circle class="st2" cx="61" cy="220" r="2.5"/>
		<circle class="st3" cx="119.2" cy="167.6" r="3.5"/>
		<circle class="st4" cx="98.2" cy="167.1" r="2.5"/>
		<circle class="st5" cx="62.1" cy="182" r="1.8"/>
		<circle class="st6" cx="216.2" cy="191.2" r="6"/>
		<circle class="st1" cx="72.5" cy="157.8" r="1.8"/>
		<circle class="st2" cx="308.6" cy="227.2" r="7.5"/>
		<circle class="st3" cx="157.7" cy="221.2" r="4.6"/>
		<circle class="st4" cx="88" cy="173.5" r="1.8"/>
		<circle class="st5" cx="63.3" cy="193.2" r="1.8"/>
		<circle class="st6" cx="208.8" cy="238.4" r="5.9"/>
		<circle class="st1" cx="76.7" cy="167" r="1.8"/>
		<circle class="st2" cx="210.8" cy="170.7" r="5.7"/>
		<circle class="st3" cx="132" cy="218.5" r="3.3"/>
		<circle class="st4" cx="56.8" cy="184" r="1.8"/>
		<circle class="st5" cx="57.2" cy="172.6" r="1.8"/>
		<circle class="st6" cx="301.3" cy="211.1" r="7.7"/>
		<circle class="st1" cx="85.3" cy="225.6" r="1.8"/>
		<circle class="st2" cx="111.2" cy="197.7" r="3.7"/>
		<circle class="st3" cx="143.3" cy="159.4" r="4"/>
		<circle class="st4" cx="101.8" cy="178.2" r="2.5"/>
		<circle class="st5" cx="99" cy="160.9" r="1.8"/>
		<circle class="st6" cx="204.3" cy="198.7" r="6.1"/>
		<circle class="st1" cx="51.4" cy="217" r="2.5"/>
		<circle class="st2" cx="161.7" cy="168.7" r="4.5"/>
		<circle class="st3" cx="137.1" cy="165.9" r="3"/>
		<circle class="st4" cx="71.1" cy="164" r="2.5"/>
		<circle class="st5" cx="55.3" cy="208" r="1.8"/>
		<circle class="st6" cx="345.8" cy="199.1" r="8"/>
		<circle class="st1" cx="82" cy="170.9" r="2.8"/>
		<circle class="st2" cx="287.6" cy="180.6" r="7.5"/>
		<circle class="st3" cx="115.2" cy="262.4" r="2.8"/>
		<circle class="st4" cx="51.2" cy="184.5" r="1.8"/>
		<circle class="st5" cx="80.5" cy="157.1" r="1.8"/>
		<circle class="st6" cx="253" cy="178.2" r="6.5"/>
		<circle class="st1" cx="102.5" cy="184.5" r="1.8"/>
		<circle class="st2" cx="125.7" cy="246.2" r="3.7"/>
		<circle class="st3" cx="134.9" cy="240.8" r="3.7"/>
		<circle class="st4" cx="115" cy="255.8" r="1.8"/>
		<circle class="st5" cx="117.6" cy="247.4" r="2.5"/>
		<circle class="st6" cx="165.4" cy="212.5" r="5"/>
		<circle class="st1" cx="60.9" cy="167.4" r="2.5"/>
		<circle class="st2" cx="275.4" cy="223" r="7"/>
		<circle class="st3" cx="133.8" cy="249.9" r="3.2"/>
		<circle class="st4" cx="94.6" cy="248.6" r="1.8"/>
		<circle class="st5" cx="91.8" cy="236.9" r="1.8"/>
		<circle class="st6" cx="193.1" cy="176.5" r="5.6"/>
		<circle class="st1" cx="67.7" cy="232.4" r="1.8"/>
		<circle class="st2" cx="113" cy="149.1" r="2.5"/>
		<circle class="st3" cx="81.7" cy="254.4" r="2.5"/>
		<circle class="st4" cx="127.3" cy="238.8" r="1.8"/>
		<circle class="st5" cx="56" cy="234" r="2.5"/>
		<circle class="st6" cx="164.8" cy="230.2" r="4.9"/>
		<circle class="st1" cx="61.9" cy="239.9" r="2.5"/>
		<circle class="st2" cx="193.6" cy="190.2" r="5.6"/>
		<circle class="st3" cx="62.9" cy="227" r="2.8"/>
		<circle class="st4" cx="45.8" cy="214" r="1.8"/>
		<circle class="st5" cx="81.7" cy="242.9" r="2.5"/>
		<circle class="st6" cx="270.8" cy="179.4" r="6.9"/>
		<circle class="st1" cx="121.5" cy="253.8" r="3"/>
		<circle class="st2" cx="150.4" cy="187.6" r="4.4"/>
		<circle class="st3" cx="104.9" cy="234.3" r="3"/>
		<circle class="st4" cx="124.1" cy="215.1" r="3.3"/>
		<circle class="st5" cx="75.7" cy="175.9" r="3"/>
		<circle class="st6" cx="238.1" cy="177.8" r="6.4"/>
		<circle class="st1" cx="97.6" cy="188.2" r="2.5"/>
		<circle class="st2" cx="264.9" cy="235.3" r="6.9"/>
		<circle class="st3" cx="119.8" cy="239.8" r="3"/>
		<circle class="st4" cx="107.9" cy="185.5" r="1.8"/>
		<circle class="st5" cx="62.3" cy="233.6" r="1.8"/>
		<circle class="st6" cx="336.3" cy="214.3" r="8"/>
		<circle class="st1" cx="57.6" cy="213.9" r="2.5"/>
		<circle class="st2" cx="183.4" cy="230" r="5.4"/>
		<circle class="st3" cx="93.2" cy="177" r="2.5"/>
		<circle class="st4" cx="48.8" cy="198.8" r="1.8"/>
		<circle class="st5" cx="57" cy="178.3" r="1.8"/>
		<circle class="st6" cx="237.4" cy="204" r="6.3"/>
		<circle class="st1" cx="130.8" cy="234.4" r="1.8"/>
		<circle class="st2" cx="101.8" cy="212.7" r="1.8"/>
		<circle class="st3" cx="92.3" cy="191.3" r="1.8"/>
		<circle class="st4" cx="117.9" cy="191.6" r="3.3"/>
		<circle class="st5" cx="71.5" cy="248.5" r="1.8"/>
		<circle class="st6" cx="191.6" cy="203.9" r="5.7"/>
		<circle class="st1" cx="94.9" cy="201.7" r="2.5"/>
		<circle class="st2" cx="252.6" cy="205.7" r="6.9"/>
		<circle class="st3" cx="133.5" cy="158" r="3.7"/>
		<circle class="st4" cx="88.9" cy="231" r="2.5"/>
		<circle class="st5" cx="64.1" cy="214.5" r="1.8"/>
		<circle class="st6" cx="397.6" cy="212.5" r="8.8"/>
		<circle class="st1" cx="78.9" cy="181.9" r="1.8"/>
		<circle class="st2" cx="103" cy="249.3" r="1.8"/>
		<circle class="st3" cx="69.5" cy="216" r="1.8"/>
		<circle class="st4" cx="139.7" cy="222.8" r="3.6"/>
		<circle class="st5" cx="60.8" cy="198.3" r="1.8"/>
		<circle class="st6" cx="105.8" cy="242.6" r="3.5"/>
		<circle class="st1" cx="88.3" cy="167.9" r="1.8"/>
		<circle class="st2" cx="107.9" cy="206.3" r="3.5"/>
		<circle class="st3" cx="83.4" cy="163.3" r="3"/>
		<circle class="st4" cx="85.6" cy="237.1" r="2.5"/>
		<circle class="st5" cx="47.2" cy="206.2" r="1.8"/>
		<circle class="st6" cx="173.9" cy="237.8" r="5"/>
		<circle class="st1" cx="58.6" cy="203.4" r="1.8"/>
		<circle class="st2" cx="96" cy="240.6" r="1.8"/>
		<circle class="st3" cx="93.1" cy="170.8" r="1.8"/>
		<circle class="st4" cx="113.1" cy="243.2" r="1.8"/>
		<circle class="st5" cx="67" cy="243.6" r="1.8"/>
		<circle class="st6" cx="163.4" cy="242.7" r="4.5"/>
		<circle class="st1" cx="82.7" cy="215.2" r="2.5"/>
		<circle class="st2" cx="195.9" cy="234.1" r="5.7"/>
		<circle class="st3" cx="125.7" cy="152.7" r="3.7"/>
		<circle class="st4" cx="72.9" cy="196.7" r="1.8"/>
		<circle class="st5" cx="49.5" cy="223.1" r="1.8"/>
		<circle class="st6" cx="181.1" cy="170.5" r="5"/>
		<circle class="st1" cx="54.4" cy="189.1" r="1.8"/>
		<circle class="st2" cx="82.2" cy="202.4" r="2.8"/>
		<circle class="st3" cx="320.4" cy="182.2" r="7.8"/>
		<circle class="st4" cx="120.5" cy="159.5" r="2.8"/>
		<circle class="st5" cx="89.4" cy="250.5" r="1.8"/>
		<circle class="st6" cx="173.6" cy="221.7" r="5.4"/>
		<circle class="st1" cx="121.2" cy="199.1" r="3"/>
		<circle class="st2" cx="160.8" cy="184.3" r="4.6"/>
		<circle class="st3" cx="193" cy="221.1" r="5.6"/>
		<circle class="st4" cx="97.3" cy="195.2" r="2.5"/>
		<circle class="st5" cx="67.9" cy="238" r="1.8"/>
		<circle class="st6" cx="234.5" cy="230.5" r="6.5"/>
		<circle class="st1" cx="79.6" cy="188.1" r="2.5"/>
		<circle class="st2" cx="243.9" cy="218.6" r="6.7"/>
		<circle class="st3" cx="135.8" cy="184.7" r="4.1"/>
		<circle class="st4" cx="66.3" cy="209.3" r="1.8"/>
		<circle class="st5" cx="111" cy="190" r="1.8"/>
		<circle class="st6" cx="220" cy="227.8" r="6.3"/>
		<circle class="st1" cx="111.2" cy="223.9" r="2.8"/>
		<circle class="st2" cx="291.7" cy="225.4" r="7.5"/>
		<circle class="st3" cx="74.3" cy="232.5" r="2.8"/>
		<circle class="st4" cx="87.3" cy="179.1" r="1.8"/>
		<circle class="st5" cx="112.6" cy="236.5" r="3"/>
		<circle class="st6" cx="376.6" cy="213.3" r="8.5"/>
		<circle class="st1" cx="123.2" cy="206.8" r="3"/>
		<circle class="st2" cx="205" cy="183" r="5.9"/>
		<circle class="st3" cx="154.5" cy="211" r="4.1"/>
		<circle class="st4" cx="145.9" cy="205.6" r="4.1"/>
		<circle class="st5" cx="83.1" cy="209" r="1.8"/>
		<circle class="st6" cx="428.5" cy="197" r="9.1"/>
		<circle class="st1" cx="56.3" cy="227.7" r="1.8"/>
		<circle class="st2" cx="126" cy="187.7" r="3.7"/>
		<circle class="st3" cx="132.9" cy="194.2" r="3.7"/>
		<circle class="st4" cx="118" cy="211" r="1.8"/>
		<circle class="st5" cx="88.7" cy="201.7" r="1.8"/>
		<circle class="st6" cx="318.6" cy="213.2" r="7.8"/>
		<circle class="st1" cx="86.1" cy="190.6" r="2.5"/>
		<circle class="st2" cx="228.9" cy="216.1" r="6.4"/>
		<circle class="st3" cx="139.7" cy="213.3" r="3.9"/>
		<circle class="st4" cx="55.2" cy="198.8" r="1.8"/>
		<circle class="st5" cx="50.5" cy="210.8" r="1.8"/>
		<circle class="st6" cx="277.7" cy="193.9" r="7.1"/>
		<circle class="st1" cx="114" cy="159.4" r="1.8"/>
		<circle class="st2" cx="83" cy="151" r="2.8"/>
		<circle class="st3" cx="77.8" cy="248.6" r="2.5"/>
		<circle class="st4" cx="55.1" cy="222.1" r="1.8"/>
		<circle class="st5" cx="96.2" cy="213.1" r="1.8"/>
		<circle class="st6" cx="87.7" cy="219.7" r="2.5"/>
		<circle class="st1" cx="101" cy="228" r="2.5"/>
		<circle class="st2" cx="185.3" cy="242.7" r="5.5"/>
		<circle class="st3" cx="87.7" cy="156.8" r="2.8"/>
		<circle class="st4" cx="94.8" cy="229" r="1.8"/>
		<circle class="st5" cx="104.8" cy="223.1" r="1.8"/>
		<circle class="st6" cx="293.7" cy="196" r="7.1"/>
		<circle class="st1" cx="100.2" cy="218.7" r="2.5"/>
		<circle class="st2" cx="93.4" cy="208.2" r="1.8"/>
		<circle class="st3" cx="90.9" cy="225" r="1.8"/>
		<circle class="st4" cx="123.9" cy="232.5" r="3.3"/>
		<circle class="st5" cx="85.7" cy="196.9" r="1.8"/>
		<circle class="st6" cx="152.5" cy="163.4" r="4.1"/>
		<circle class="st1" cx="70.1" cy="226.6" r="2.5"/>
		<circle class="st2" cx="206" cy="224.8" r="6"/>
		<circle class="st3" cx="116.1" cy="217.8" r="3.2"/>
		<circle class="st4" cx="93.9" cy="218.2" r="1.8"/>
		<circle class="st5" cx="70.5" cy="204.6" r="2.5"/>
		<circle class="st6" cx="408.5" cy="196" r="8.9"/>
		<circle class="st1" cx="122.6" cy="223.7" r="3.5"/>
		<circle class="st2" cx="437.7" cy="215.2" r="9.3"/>
		<circle class="st3" cx="580.2" cy="205.1" r="10.7"/>
		<circle class="st4" cx="97.5" cy="234.5" r="2.5"/>
		<circle class="st5" cx="104.7" cy="171.4" r="3"/>
		<circle class="st6" cx="676.3" cy="205.1" r="11.5"/>
		<circle class="st1" cx="100.2" cy="154.6" r="2.5"/>
		<circle class="st2" cx="131.1" cy="209.6" r="3.6"/>
		<circle class="st3" cx="142.9" cy="194.9" r="4.3"/>
		<ellipse transform="matrix(1 -3.875871e-03 3.875871e-03 1 -0.588 0.3633)" class="st4" cx="93.4" cy="151.9" rx="2.8" ry="2.8"/>
		<circle class="st5" cx="62.7" cy="175.7" r="2.5"/>
		<circle class="st6" cx="230.7" cy="190.8" r="6.5"/>
		<circle class="st1" cx="67" cy="198.6" r="2.5"/>
		<circle class="st2" cx="249.3" cy="232.8" r="6.5"/>
		<circle class="st3" cx="107.7" cy="216.5" r="3.3"/>
		<circle class="st4" cx="66.1" cy="186.9" r="2.5"/>
		<circle class="st5" cx="75.8" cy="215.5" r="2.5"/>
		<circle class="st6" cx="245.9" cy="191.6" r="6.7"/>
		<circle class="st1" cx="113.6" cy="185" r="1.8"/>
		<circle class="st2" cx="67.2" cy="221" r="1.8"/>
		<circle class="st3" cx="96.9" cy="182.1" r="1.8"/>
		<circle class="st4" cx="77" cy="225.5" r="2.5"/>
		<circle class="st5" cx="71.6" cy="210.8" r="1.8"/>
		<circle class="st6" cx="138.6" cy="232.1" r="3.7"/>
		<circle class="st1" cx="128.8" cy="168.9" r="3.9"/>
		<circle class="st2" cx="182" cy="195.5" r="5.2"/>
		<circle class="st3" cx="182.9" cy="213.3" r="5.1"/>
		<circle class="st4" cx="144.2" cy="179.9" r="3.6"/>
		<circle class="st5" cx="92.4" cy="162.8" r="2.8"/>
		<circle class="st6" cx="328" cy="198.2" r="7.9"/>
		<circle class="st1" cx="99.8" cy="206.7" r="2.8"/>
		<circle class="st2" cx="171.2" cy="189.5" r="5.1"/>
		<circle class="st3" cx="128.2" cy="178.7" r="3.6"/>
		<circle class="st4" cx="107.1" cy="157.9" r="3.2"/>
		<circle class="st5" cx="110" cy="230.1" r="1.8"/>
		<circle class="st6" cx="284.4" cy="209.5" r="7.3"/>
		<circle class="st1" cx="77" cy="207.5" r="2.5"/>
		<circle class="st2" cx="147.9" cy="218.2" r="3.7"/>
		<circle class="st3" cx="60.8" cy="208.5" r="1.8"/>
		<circle class="st4" cx="99.1" cy="245.3" r="1.8"/>
		<circle class="st5" cx="79.2" cy="237" r="1.8"/>
		<circle class="st6" cx="222.6" cy="178.5" r="6.2"/>
		<circle class="st1" cx="103.7" cy="164" r="1.8"/>
		<circle class="st2" cx="74.2" cy="191.3" r="1.8"/>
		<circle class="st3" cx="115.8" cy="204.8" r="2.8"/>
		<circle class="st4" cx="79.3" cy="195.4" r="2.8"/>
		<circle class="st5" cx="91.3" cy="196.6" r="1.8"/>
		<circle class="st6" cx="145" cy="170.1" r="4"/>
	</g>
	<g>
		<g transform="translate(-18.30017824976947,370.84948840241697)">
		</g>
		<g transform="translate(9.082790146523166,318.6912159018921)">
		</g>
		<g transform="translate(-47.91482188785368,343.2739747271129)">
		</g>
		<g transform="translate(45.281020081149954,378.96848818908194)">
		</g>
		<g transform="translate(-11.908779018405834,346.92863083154)">
		</g>
		<g transform="translate(81.8202097914773,322.74907741303167)">
		</g>
		<g transform="translate(-17.8147783706332,317.28472046349947)">
		</g>
		<g transform="translate(114.80810442799437,353.7875013139925)">
		</g>
		<g transform="translate(2.8520700565936967,339.6911924482404)">
		</g>
		<g transform="translate(-39.966689914889,328.43977703634766)">
		</g>
		<g transform="translate(-32.11563336614751,320.6774028996372)">
		</g>
		<g transform="translate(210.43266734132825,336.2753165682687)">
		</g>
		<g transform="translate(5.797007406097445,289.9259538989624)">
		</g>
		<g transform="translate(101.82891870025564,351.69574889480816)">
		</g>
		<g transform="translate(2.655752677516857,394.80038876233573)">
		</g>
		<g transform="translate(-15.890039567794773,388.50462293644915)">
		</g>
		<g transform="translate(-3.6859031407004057,363.4439906374148)">
		</g>
		<g transform="translate(168.41831446539553,346.8308108326814)">
		</g>
		<g transform="translate(-33.56991246347071,310.1410085092241)">
		</g>
		<g transform="translate(64.06865637912999,339.076357200694)">
		</g>
		<g transform="translate(286.1443091315179,336.71822154951434)">
		</g>
		<g transform="translate(52.936805630826015,337.8018036388899)">
		</g>
		<g transform="translate(-1.8773925806146607,313.1137908650266)">
		</g>
		<g transform="translate(348.8668457474624,337.88319786914747)">
		</g>
		<g transform="translate(123.27040170814236,342.9212242328381)">
		</g>
		<g transform="translate(443.52500000000003,345)">
		</g>
		<g transform="translate(1065.025,345)">
		</g>
		<g transform="translate(-10.250269778386164,383.3921628502547)">
		</g>
		<g transform="translate(36.4972405365101,314.4549815453238)">
		</g>
		<g transform="translate(726.025,345)">
		</g>
		<g transform="translate(4.3291398244658295,331.75074410907075)">
		</g>
		<g transform="translate(74.44229028465358,344.7238182578652)">
		</g>
		<g transform="translate(161.62434696315103,332.37086452408244)">
		</g>
		<g transform="translate(-26.065092700483877,381.6719415174842)">
		</g>
		<g transform="translate(-26.942952302692653,324.7344045533708)">
		</g>
		<g transform="translate(317.42759385490695,353.72028971371435)">
		</g>
		<g transform="translate(-23.157787116604386,301.23653644307365)">
		</g>
		<g transform="translate(17.191207482646547,317.64489694116946)">
		</g>
		<g transform="translate(36.83213457767647,342.4483851363147)">
		</g>
		<g transform="translate(-47.97114492816843,334.04683857088474)">
		</g>
		<g transform="translate(26.802265244171057,301.33891437362314)">
		</g>
		<g transform="translate(42.79125910829203,388.57754369094033)">
		</g>
		<g transform="translate(16.457889561229834,294.20007765258515)">
		</g>
		<g transform="translate(53.008478608210595,386.3452230993047)">
		</g>
		<g transform="translate(-27.26447158300275,360.76335729214316)">
		</g>
		<g transform="translate(-35.786184207650535,343.9916338089536)">
		</g>
		<g transform="translate(22.869156354416837,313.57584106523103)">
		</g>
		<g transform="translate(16.462060810497306,369.12833260738455)">
		</g>
		<g transform="translate(-31.185272836683627,332.3862450344637)">
		</g>
		<g transform="translate(30.842344820775946,367.0207201506822)">
		</g>
		<g transform="translate(-10.312416798559306,352.9669595465019)">
		</g>
		<g transform="translate(-15.83991487527995,323.62017416709364)">
		</g>
		<g transform="translate(-51.19315750245808,329.4416897168658)">
		</g>
		<g transform="translate(10.226053487627862,390.19824611711203)">
		</g>
		<g transform="translate(-6.2391277200554205,400.9559346634444)">
		</g>
		<g transform="translate(381.375,345)">
		</g>
		<g transform="translate(159.54128368980304,360.1553831445434)">
		</g>
		<g transform="translate(-31.054575955560527,315.1604920472155)">
		</g>
		<g transform="translate(10.595386502158696,305.530520946623)">
		</g>
		<g transform="translate(531.1,345)">
		</g>
		<g transform="translate(8.390417235854402,398.45488497554993)">
		</g>
		<g transform="translate(267.1330443469142,336.79460590814364)">
		</g>
		<g transform="translate(55.05190294782905,375.65066632358815)">
		</g>
		<g transform="translate(-27.97072714137826,310.08776685365274)">
		</g>
		<g transform="translate(-18.366433216627918,361.1907042663134)">
		</g>
		<g transform="translate(257.65995760862603,353.1193623837864)">
		</g>
		<g transform="translate(47.89491961395235,367.9932986508406)">
		</g>
		<g transform="translate(28.620976174738946,341.22083719747786)">
		</g>
		<g transform="translate(-11.683040449281528,396.56580934154846)">
		</g>
		<g transform="translate(19.178686264150183,324.3938786318512)">
		</g>
		<g transform="translate(53.48079080424151,315.9258712568705)">
		</g>
		<g transform="translate(-9.1938996910965,324.6756548410042)">
		</g>
		<g transform="translate(12.69886845077906,351.5284867049788)">
		</g>
		<g transform="translate(29.3281212446396,397.518153874763)">
		</g>
		<g transform="translate(-42.371889133734335,333.51727127773216)">
		</g>
		<g transform="translate(12.157016296015787,312.6175744211949)">
		</g>
		<g transform="translate(-24.17309138191459,341.1863259185362)">
		</g>
		<g transform="translate(70.39766900222071,316.8203353665977)">
		</g>
		<g transform="translate(-3.6388892790508285,394.4685085146682)">
		</g>
		<g transform="translate(-39.013979897012455,359.87038654662723)">
		</g>
		<g transform="translate(19.16845208407826,307.47623845416877)">
		</g>
		<g transform="translate(-1.8001746834485441,306.98491907573936)">
		</g>
		<g transform="translate(-37.92506765399131,321.8645399533639)">
		</g>
		<g transform="translate(116.18471429976842,331.043586615482)">
		</g>
		<g transform="translate(-27.52520742263772,297.70484974888745)">
		</g>
		<g transform="translate(208.59987400123237,367.0740799397817)">
		</g>
		<g transform="translate(57.746624947656684,361.04811119989074)">
		</g>
		<g transform="translate(-11.997297524682317,313.36533554241316)">
		</g>
		<g transform="translate(-36.73906265218107,333.05898144034614)">
		</g>
		<g transform="translate(108.83330544050052,378.2447792487015)">
		</g>
		<g transform="translate(-23.338155865951315,306.86083982847634)">
		</g>
		<g transform="translate(110.84367353753039,310.57580654202445)">
		</g>
		<g transform="translate(31.969312668653465,358.35977123705624)">
		</g>
		<g transform="translate(-43.192683642737144,323.8341953153212)">
		</g>
		<g transform="translate(-42.75036917033993,312.43306056252914)">
		</g>
		<g transform="translate(201.2818869822393,350.9276648341264)">
		</g>
		<g transform="translate(-14.699173334965268,365.4554019904283)">
		</g>
		<g transform="translate(11.21968115190742,337.55434107983285)">
		</g>
		<g transform="translate(43.28574660134888,299.27010413754465)">
		</g>
		<g transform="translate(1.805133936078157,318.09816598578567)">
		</g>
		<g transform="translate(-0.9874290747561513,300.7206743580662)">
		</g>
		<g transform="translate(104.32654432738526,338.59650086884744)">
		</g>
		<g transform="translate(-48.63030192429249,356.90814654830893)">
		</g>
		<g transform="translate(61.65011343680097,308.59523140804697)">
		</g>
		<g transform="translate(37.14311434125078,305.76766529139996)">
		</g>
		<g transform="translate(-28.88593234156655,303.87738143714193)">
		</g>
		<g transform="translate(-44.70462248009198,347.8503603351442)">
		</g>
		<g transform="translate(245.8434337720566,338.9624365775061)">
		</g>
		<g transform="translate(-18.017703731493555,310.78089044001564)">
		</g>
		<g transform="translate(187.5607090564103,320.50142512872594)">
		</g>
		<g transform="translate(15.177613923845424,402.265682208794)">
		</g>
		<g transform="translate(-48.82128191711246,324.3187064445639)">
		</g>
		<g transform="translate(-19.48218961057832,296.95813145911586)">
		</g>
		<g transform="translate(153.03733502539214,318.0307690044301)">
		</g>
		<g transform="translate(2.4951772052300982,324.34165455340434)">
		</g>
		<g transform="translate(25.7440031188186,386.0200637621431)">
		</g>
		<g transform="translate(34.90125647830572,380.6571340557698)">
		</g>
		<g transform="translate(14.993137978094705,395.67061640869815)">
		</g>
		<g transform="translate(17.641028655382463,387.2973767060046)">
		</g>
		<g transform="translate(65.4316876597185,352.32364011556234)">
		</g>
		<g transform="translate(-39.14660215861369,307.2381648292703)">
		</g>
		<g transform="translate(175.3539465918405,362.8315817034124)">
		</g>
		<g transform="translate(33.78977367371502,389.7915271670423)">
		</g>
		<g transform="translate(-5.399879752351011,388.41678540478944)">
		</g>
		<g transform="translate(-8.210337393762806,376.71521715382295)">
		</g>
		<g transform="translate(93.13664500591787,316.3608685047786)">
		</g>
		<g transform="translate(-32.25144049631275,372.27869722378904)">
		</g>
		<g transform="translate(12.994887522848822,288.95311145740385)">
		</g>
		<g transform="translate(-18.312560464685266,394.3106489167491)">
		</g>
		<g transform="translate(27.279603042389347,378.65890809693167)">
		</g>
		<g transform="translate(-44.02216723506504,373.82067906344884)">
		</g>
		<g transform="translate(64.77155872652814,370.0711013317005)">
		</g>
		<g transform="translate(-38.13155026024656,379.7769719366475)">
		</g>
		<g transform="translate(93.63001435519537,330.1076737697762)">
		</g>
		<g transform="translate(-37.1285084955314,366.89415384281597)">
		</g>
		<g transform="translate(-54.165340672528814,353.86676317873173)">
		</g>
		<g transform="translate(-18.309240757939435,382.73860691174224)">
		</g>
		<g transform="translate(170.79772859748516,319.2883765093654)">
		</g>
		<g transform="translate(21.51376848960918,393.6617735324928)">
		</g>
		<g transform="translate(50.446751985291385,327.439002155527)">
		</g>
		<g transform="translate(4.911803783414644,374.1405299586734)">
		</g>
		<g transform="translate(24.07230426029526,354.94200171473557)">
		</g>
		<g transform="translate(-24.314244168771985,315.78498103279674)">
		</g>
		<g transform="translate(138.14250543424245,317.66496522691347)">
		</g>
		<g transform="translate(-2.4233824339132815,328.1022153208048)">
		</g>
		<g transform="translate(164.92244907469532,375.15046126768544)">
		</g>
		<g transform="translate(19.82725815440034,379.64627821072816)">
		</g>
		<g transform="translate(7.921942405986431,325.3224199105935)">
		</g>
		<g transform="translate(-37.71002628662558,373.4697892305056)">
		</g>
		<g transform="translate(236.32872960315453,354.20931889712983)">
		</g>
		<g transform="translate(-42.39684602764047,353.7883795659634)">
		</g>
		<g transform="translate(83.44352733112514,369.8535162069235)">
		</g>
		<g transform="translate(-6.79338410501601,316.8810630516166)">
		</g>
		<g transform="translate(-51.16517397340321,338.6861726170231)">
		</g>
		<g transform="translate(-43.02300061724978,318.21073814187827)">
		</g>
		<g transform="translate(137.39861824862987,343.87194996479474)">
		</g>
		<g transform="translate(30.838928402692716,374.26942389820886)">
		</g>
		<g transform="translate(1.8007863485814786,352.6043161571122)">
		</g>
		<g transform="translate(-7.700940081995823,331.1345085372496)">
		</g>
		<g transform="translate(17.919211973437847,331.42566519997166)">
		</g>
		<g transform="translate(-28.5260019350692,388.3773821982078)">
		</g>
		<g transform="translate(91.63796996951912,343.7702300905826)">
		</g>
		<g transform="translate(-5.130142574873668,341.5662275520645)">
		</g>
		<g transform="translate(152.63447554171606,345.5208242502618)">
		</g>
		<g transform="translate(33.495885778390566,297.86015419724833)">
		</g>
		<g transform="translate(-11.077042496966214,370.8666255525751)">
		</g>
		<g transform="translate(-35.9097330919605,354.3707205016471)">
		</g>
		<g transform="translate(297.5928385447698,352.401084569023)">
		</g>
		<g transform="translate(-21.096639547705344,321.73079516023176)">
		</g>
		<g transform="translate(2.9580816683612325,389.2048999137718)">
		</g>
		<g transform="translate(-30.459638519246568,355.8174248257426)">
		</g>
		<g transform="translate(39.72652844155446,362.65477611767363)">
		</g>
		<g transform="translate(-39.201284932536424,338.12065767194997)">
		</g>
		<g transform="translate(5.819614048753201,382.4639887282903)">
		</g>
		<g transform="translate(-11.712820891599902,307.80495428002837)">
		</g>
		<g transform="translate(7.911430111613187,346.1753957149947)">
		</g>
		<g transform="translate(-16.6353451623415,303.1332540188387)">
		</g>
		<g transform="translate(-14.43552346390058,376.9422311693664)">
		</g>
		<g transform="translate(-52.79306357592091,346.0654999334501)">
		</g>
		<g transform="translate(73.8592993043045,377.692761594495)">
		</g>
		<g transform="translate(-41.42192559020585,343.2827890097)">
		</g>
		<g transform="translate(-3.960055954853185,380.4252928854675)">
		</g>
		<g transform="translate(-6.880304486376635,310.63866597691646)">
		</g>
		<g transform="translate(13.083162693874836,383.074176897929)">
		</g>
		<g transform="translate(-32.9830246494452,383.45320886870485)">
		</g>
		<g transform="translate(63.41255010887804,382.58931766796195)">
		</g>
		<g transform="translate(-17.291068995737096,355.0374851912689)">
		</g>
		<g transform="translate(95.90409914458198,373.9920180478167)">
		</g>
		<g transform="translate(25.65574655278981,292.52806982343594)">
		</g>
		<g transform="translate(-27.05149556972768,336.5531533341652)">
		</g>
		<g transform="translate(-50.47778593658631,362.9458593165644)">
		</g>
		<g transform="translate(81.05613962281035,310.35995056114473)">
		</g>
		<g transform="translate(-45.58334208026131,328.93971929676655)">
		</g>
		<g transform="translate(-17.8235091792658,342.30899133293866)">
		</g>
		<g transform="translate(220.42709985599777,322.0876301137329)">
		</g>
		<g transform="translate(20.546013675681756,299.3417953089429)">
		</g>
		<g transform="translate(-10.633392729567358,390.35575467216444)">
		</g>
		<g transform="translate(73.63636005819099,361.59710466653644)">
		</g>
		<g transform="translate(21.190544373643352,338.96193874395993)">
		</g>
		<g transform="translate(60.809264858644624,324.14175622250843)">
		</g>
		<g transform="translate(92.95765462927758,361.0104302099126)">
		</g>
		<g transform="translate(-2.7175100080521455,335.0359875966386)">
		</g>
		<g transform="translate(-32.09831147711642,377.8804801852058)">
		</g>
		<g transform="translate(134.47728496323793,370.3766321598379)">
		</g>
		<g transform="translate(-20.393045223251168,327.95386756269573)">
		</g>
		<g transform="translate(143.8847682825669,358.43164139774746)">
		</g>
		<g transform="translate(35.79043840419811,324.5982907552832)">
		</g>
		<g transform="translate(-33.677431968858926,349.199140947554)">
		</g>
		<g transform="translate(11.03108903682927,329.85738916656)">
		</g>
		<g transform="translate(120.00029459165606,367.6270422127455)">
		</g>
		<g transform="translate(11.204452248554782,363.71565583204836)">
		</g>
		<g transform="translate(191.70666072627697,365.25924863033595)">
		</g>
		<g transform="translate(-25.659011999398746,372.38871273378425)">
		</g>
		<g transform="translate(-12.739131048580987,318.9688401288385)">
		</g>
		<g transform="translate(12.583249617622302,376.3215609674631)">
		</g>
		<g transform="translate(276.5679618028508,353.1817231684222)">
		</g>
		<g transform="translate(23.219560597264838,346.63662107743176)">
		</g>
		<g transform="translate(104.97744537357532,322.8474424796877)">
		</g>
		<g transform="translate(54.51641591925489,350.84629235782495)">
		</g>
		<g transform="translate(45.94542798835823,345.4147163534348)">
		</g>
		<g transform="translate(-16.92359642600287,348.8711084623326)">
		</g>
		<g transform="translate(328.50440331466064,336.8659140336486)">
		</g>
		<g transform="translate(-43.685644564309456,367.5192824567253)">
		</g>
		<g transform="translate(26.008685110191667,327.6099357234398)">
		</g>
		<g transform="translate(32.893918865792784,334.01658126660345)">
		</g>
		<g transform="translate(18.014967087419002,350.8948788059626)">
		</g>
		<g transform="translate(-11.29846569628234,341.560344000833)">
		</g>
		<g transform="translate(218.62010156508882,353.05619092157224)">
		</g>
		<g transform="translate(-13.909269115288904,330.44694810683444)">
		</g>
		<g transform="translate(128.948328323729,355.97292039055657)">
		</g>
		<g transform="translate(39.74968306621452,353.16118324492703)">
		</g>
		<g transform="translate(-44.75406154863675,338.65497515649787)">
		</g>
		<g transform="translate(-49.520925432586125,350.6623587679785)">
		</g>
		<g transform="translate(177.67467269509535,333.7614881864154)">
		</g>
		<g transform="translate(13.955497014364507,299.234348003876)">
		</g>
		<g transform="translate(-17.04614453670572,290.8268165854147)">
		</g>
		<g transform="translate(-22.20587236210503,388.49693186021227)">
		</g>
		<g transform="translate(-44.91367818616575,362.0120209782597)">
		</g>
		<g transform="translate(-3.7915980093155737,352.9876603388488)">
		</g>
		<g transform="translate(-12.253689391505958,359.5923177225592)">
		</g>
		<g transform="translate(0.9760616043949198,367.8557212488997)">
		</g>
		<g transform="translate(85.32463382415148,382.59482164153593)">
		</g>
		<g transform="translate(-12.295694024202497,296.6872658778163)">
		</g>
		<g transform="translate(-5.173111393507277,368.81708286425885)">
		</g>
		<g transform="translate(4.762180257900832,362.9576229438586)">
		</g>
		<g transform="translate(193.7367809646347,335.88974918174955)">
		</g>
		<g transform="translate(0.18305445638626855,358.5843408434041)">
		</g>
		<g transform="translate(-6.606480332338408,348.05870395571304)">
		</g>
		<g transform="translate(-9.07049212987526,364.9050759390323)">
		</g>
		<g transform="translate(23.857769847417572,372.3520847187701)">
		</g>
		<g transform="translate(-14.296517363887144,336.7753505421415)">
		</g>
		<g transform="translate(52.507410868254254,303.2216281161532)">
		</g>
		<g transform="translate(-29.8928174136463,366.4699527818905)">
		</g>
		<g transform="translate(106.04184378487068,364.63137056459004)">
		</g>
		<g transform="translate(16.10015077900045,357.6251251842748)">
		</g>
		<g transform="translate(-6.11365172820335,358.10839510012244)">
		</g>
		<g transform="translate(-29.49536224206582,344.4551630914221)">
		</g>
		<g transform="translate(308.45783607200144,335.87002652658464)">
		</g>
		<g transform="translate(22.556690889993792,363.60434126377396)">
		</g>
		<g transform="translate(337.67528742874686,355.0746031361428)">
		</g>
		<g transform="translate(480.25,345)">
		</g>
		<g transform="translate(-2.4602832365367937,374.3800067192248)">
		</g>
		<g transform="translate(4.664447210209295,311.3062647239257)">
		</g>
		<g transform="translate(576.3,345)">
		</g>
		<g transform="translate(0.17539837197168628,294.5092936370752)">
		</g>
		<g transform="translate(31.09652385076342,349.4494044410453)">
		</g>
		<g transform="translate(42.874785018497384,334.7733725464557)">
		</g>
		<g transform="translate(-6.563739520920977,291.76276963304434)">
		</g>
		<g transform="translate(-37.26897539042662,315.59357860944453)">
		</g>
		<g transform="translate(130.68738625262043,330.6251550400289)">
		</g>
		<g transform="translate(-33.002267412783326,338.4157182490946)">
		</g>
		<g transform="translate(149.253995966153,372.62537517448874)">
		</g>
		<g transform="translate(7.6713416986326814,356.3977423920654)">
		</g>
		<g transform="translate(-33.913589109020144,326.73390332467255)">
		</g>
		<g transform="translate(-24.185037291902105,355.3618145186964)">
		</g>
		<g transform="translate(145.9049636155955,331.43612866966816)">
		</g>
		<g transform="translate(13.594020199548162,324.8305193176563)">
		</g>
		<g transform="translate(-32.8247100179719,360.881676462195)">
		</g>
		<g transform="translate(-3.0742083990997875,321.96362344866463)">
		</g>
		<g transform="translate(-22.98333144749154,365.3867678753785)">
		</g>
		<g transform="translate(-28.40057199519887,350.63330609954494)">
		</g>
		<g transform="translate(38.6213109786873,371.9391670264532)">
		</g>
		<g transform="translate(28.817955494992223,308.716112123606)">
		</g>
		<g transform="translate(81.96043323803866,335.34395506213707)">
		</g>
		<g transform="translate(82.93472261162624,353.1611556471556)">
		</g>
		<g transform="translate(44.157480568044164,319.7294175347904)">
		</g>
		<g transform="translate(-7.613069338683209,302.62480931657177)">
		</g>
		<g transform="translate(227.9706864630505,338.06387254219015)">
		</g>
		<g transform="translate(-0.1679162986154517,346.5970198913879)">
		</g>
		<g transform="translate(71.22677894535335,329.3551573700707)">
		</g>
		<g transform="translate(28.192959017201165,318.54790604635303)">
		</g>
		<g transform="translate(7.116804654493436,297.7665826494178)">
		</g>
		<g transform="translate(10.037866717962297,369.9963771692715)">
		</g>
		<g transform="translate(184.40716780731765,349.34530209595266)">
		</g>
		<g transform="translate(-23.015166389753958,347.32345229397646)">
		</g>
		<g transform="translate(47.90529538188712,358.0921140473377)">
		</g>
		<g transform="translate(-39.16246434671993,348.4064969436989)">
		</g>
		<g transform="translate(-0.9489063550516371,385.1408954163906)">
		</g>
		<g transform="translate(-20.75653335794304,376.8859591390811)">
		</g>
		<g transform="translate(122.56642463735372,318.38758470028887)">
		</g>
		<g transform="translate(3.681151478485492,303.8654578120148)">
		</g>
		<g transform="translate(-25.79523553356998,331.1647226117351)">
		</g>
		<g transform="translate(15.79015881178198,344.69192949069696)">
		</g>
		<g transform="translate(-20.65830436626808,335.3124505346546)">
		</g>
		<g transform="translate(-8.727664623726247,336.4724408617975)">
		</g>
		<g transform="translate(45.028947444559435,309.9204602334391)">
		</g>
	</g>
</g>
<rect x="46.2" y="39.1" class="st7" width="946.1" height="42.3"/>
<text transform="matrix(1 0 0 1 46.2348 61.2641)"><tspan x="0" y="0" class="st8 st9">Police killings by race </tspan><tspan x="335.9" y="0" class="st10 st9">in each U.S. state since 2015</tspan></text>
<g>
	<g>
		<g transform="translate(0, 2.5)">
			<circle class="st11" cx="287.5" cy="400" r="3.1"/>
			<g>
				<text transform="matrix(1 0 0 1 296.2684 403.7416)" class="st12 st13">1.0</text>
			</g>
		</g>
		<g transform="translate(0, 33.44999980926514)">
			<circle class="st11" cx="345.2" cy="368.5" r="18.9"/>
			<g>
				<text transform="matrix(1 0 0 1 369.0663 373.5397)" class="st12 st13">377.0</text>
			</g>
		</g>
		<g>
			<text transform="matrix(1 0 0 1 243.1957 407.0971)" class="st12 st13">Scale =</text>
		</g>
	</g>
	<g>
		<g>
			<g>
				<text transform="matrix(1 0 0 1 267.8719 365.309)" class="st12 st13">Asian</text>
			</g>
			<circle class="st1" cx="254" cy="360.8" r="8.6"/>
		</g>
		<g>
			<g>
				<text transform="matrix(1 0 0 1 336.3739 365.309)" class="st12 st13">Black</text>
			</g>
			<circle class="st2" cx="322.5" cy="360.8" r="8.6"/>
		</g>
		<g>
			<g>
				<text transform="matrix(1 0 0 1 396.6561 365.309)" class="st12 st13">Hispanic</text>
			</g>
			<circle class="st3" cx="382.7" cy="360.8" r="8.6"/>
		</g>
		<g>
			<g>
				<text transform="matrix(1 0 0 1 470.0155 365.309)" class="st12 st13">Native</text>
			</g>
			<circle class="st4" cx="456.1" cy="360.8" r="8.6"/>
		</g>
		<g>
			<g>
				<text transform="matrix(1 0 0 1 539.9872 365.309)" class="st12 st13">Other</text>
			</g>
			<circle class="st5" cx="526.1" cy="360.8" r="8.6"/>
		</g>
		<g>
			<g>
				<text transform="matrix(1 0 0 1 607.6571 365.309)" class="st12 st13">White</text>
			</g>
			<circle class="st6" cx="593.7" cy="360.8" r="8.6"/>
		</g>
	</g>
	<line class="st0" x1="245.4" y1="336.9" x2="642.7" y2="336.9"/>
</g>
<line class="st0" x1="49.3" y1="78.5" x2="782.3" y2="78.5"/>
<rect x="1158.9" y="74.7" class="st7" width="310.2" height="84.4"/>
<text transform="matrix(1 0 0 1 1158.9188 87.9836)"><tspan x="0" y="0" class="st8 st14">377  hispanic people</tspan><tspan x="0" y="21.6" class="st10 st14">have been killed by</tspan><tspan x="0" y="43.2" class="st10 st14">police in California</tspan><tspan x="0" y="64.8" class="st10 st14">since 2015</tspan></text>
<rect x="819.2" y="234.7" class="st7" width="163" height="46.3"/>
<text transform="matrix(1 0 0 1 819.2463 248.0673)"><tspan x="0" y="0" class="st8 st14">257  white people</tspan><tspan x="0" y="21.6" class="st10 st14">in California</tspan></text>
<rect x="70.6" y="450.6" class="st7" width="422.9" height="46.3"/>
<text transform="matrix(1 0 0 1 70.5715 459.4829)" class="st15 st16">Source: Data collected by The Washingon Post</text>
<rect x="538.4" y="239.6" class="st7" width="163" height="46.3"/>
<text transform="matrix(1 0 0 1 538.4233 252.9315)"><tspan x="0" y="0" class="st8 st14">135  black people</tspan><tspan x="0" y="21.6" class="st10 st14">in Florida</tspan></text>
<rect x="142.7" y="279.1" class="st7" width="210.4" height="56.2"/>
<text transform="matrix(1 0 0 1 142.6956 292.4608)"><tspan x="0" y="0" class="st8 st14">13  Native Americans </tspan><tspan x="0" y="21.6" class="st10 st14">in Arizona</tspan></text>
<rect x="219.3" y="113.5" class="st7" width="210.4" height="56.2"/>
<text transform="matrix(1 0 0 1 219.2566 126.8277)"><tspan x="0" y="0" class="st8 st14">35 Asian people </tspan><tspan x="0" y="21.6" class="st10 st14">in California</tspan></text>
</svg>
