<svg xmlns="http://www.w3.org/2000/svg" width="1480" height="750"><rect width="1480" height="750" x="0" y="0" fill="#FFFFFF" id="backgorund"/><g transform="translate(100,10)" id="viz"><g id="axis"><g transform="translate(0,690)" fill="none" font-size="10" font-family="sans-serif" text-anchor="middle"><path class="domain" stroke="currentColor" d="M0.5,6V0.5H1130.5V6"/><g class="tick" opacity="1" transform="translate(0.5,0)"><line stroke="currentColor" y2="6"/><text fill="currentColor" y="9" dy="0.71em">0</text></g><g class="tick" opacity="1" transform="translate(141.75,0)"><line stroke="currentColor" y2="6"/><text fill="currentColor" y="9" dy="0.71em">50</text></g><g class="tick" opacity="1" transform="translate(283,0)"><line stroke="currentColor" y2="6"/><text fill="currentColor" y="9" dy="0.71em">100</text></g><g class="tick" opacity="1" transform="translate(424.25,0)"><line stroke="currentColor" y2="6"/><text fill="currentColor" y="9" dy="0.71em">150</text></g><g class="tick" opacity="1" transform="translate(565.5,0)"><line stroke="currentColor" y2="6"/><text fill="currentColor" y="9" dy="0.71em">200</text></g><g class="tick" opacity="1" transform="translate(706.75,0)"><line stroke="currentColor" y2="6"/><text fill="currentColor" y="9" dy="0.71em">250</text></g><g class="tick" opacity="1" transform="translate(848,0)"><line stroke="currentColor" y2="6"/><text fill="currentColor" y="9" dy="0.71em">300</text></g><g class="tick" opacity="1" transform="translate(989.25,0)"><line stroke="currentColor" y2="6"/><text fill="currentColor" y="9" dy="0.71em">350</text></g><g class="tick" opacity="1" transform="translate(1130.5,0)"><line stroke="currentColor" y2="6"/><text fill="currentColor" y="9" dy="0.71em">400</text></g><text x="1130" dy="-5" text-anchor="end" style="font-family: Arial, sans-serif; font-size: 12px; fill: rgb(123, 123, 123); font-weight: bold;">value</text></g><g fill="none" font-size="10" font-family="sans-serif" text-anchor="end"><path class="domain" stroke="currentColor" d="M0.5,0.5V690.5"/><g class="tick" opacity="1" transform="translate(0,345.5)"><line stroke="currentColor" x2="1130" style="stroke: rgb(204, 204, 204);"/><text fill="currentColor" x="-3" dy="0.32em"/></g><text x="4" text-anchor="start" dominant-baseline="hanging" style="font-family: Arial, sans-serif; font-size: 12px; fill: rgb(123, 123, 123); font-weight: bold;"/></g></g><g><g><g id="cicles"><circle cx="-18.30017824976947" cy="370.84948840241697" r="2.781143156878905" style="fill: rgb(31, 119, 180);"/><circle cx="9.082790146523166" cy="318.6912159018921" r="2.996871888637691" style="fill: rgb(255, 127, 14);"/><circle cx="-47.91482188785368" cy="343.2739747271129" r="1.821260377694561" style="fill: rgb(44, 160, 44);"/><circle cx="45.281020081149954" cy="378.96848818908194" r="3.9676235223821736" style="fill: rgb(214, 39, 40);"/><circle cx="-11.908779018405834" cy="346.92863083154" r="1.821260377694561" style="fill: rgb(148, 103, 189);"/><circle cx="81.8202097914773" cy="322.74907741303167" r="5.4128128688667605" style="fill: rgb(140, 86, 75);"/><circle cx="-17.8147783706332" cy="317.28472046349947" r="1.821260377694561" style="fill: rgb(31, 119, 180);"/><circle cx="114.80810442799437" cy="353.7875013139925" r="5.94987232008285" style="fill: rgb(255, 127, 14);"/><circle cx="2.8520700565936967" cy="339.6911924482404" r="2.781143156878905" style="fill: rgb(44, 160, 44);"/><circle cx="-39.966689914889" cy="328.43977703634766" r="1.821260377694561" style="fill: rgb(214, 39, 40);"/><circle cx="-32.11563336614751" cy="320.6774028996372" r="1.821260377694561" style="fill: rgb(148, 103, 189);"/><circle cx="210.43266734132825" cy="336.2753165682687" r="7.580557052800622" style="fill: rgb(140, 86, 75);"/><circle cx="5.797007406097445" cy="289.9259538989624" r="2.781143156878905" style="fill: rgb(31, 119, 180);"/><circle cx="101.82891870025564" cy="351.69574889480816" r="5.28216695647859" style="fill: rgb(255, 127, 14);"/><circle cx="2.655752677516857" cy="394.80038876233573" r="1.821260377694561" style="fill: rgb(44, 160, 44);"/><circle cx="-15.890039567794773" cy="388.50462293644915" r="1.821260377694561" style="fill: rgb(214, 39, 40);"/><circle cx="-3.6859031407004057" cy="363.4439906374148" r="1.821260377694561" style="fill: rgb(148, 103, 189);"/><circle cx="168.41831446539553" cy="346.8308108326814" r="6.945632150758826" style="fill: rgb(140, 86, 75);"/><circle cx="-33.56991246347071" cy="310.1410085092241" r="1.821260377694561" style="fill: rgb(31, 119, 180);"/><circle cx="64.06865637912999" cy="339.076357200694" r="5.004831398972593" style="fill: rgb(255, 127, 14);"/><circle cx="286.1443091315179" cy="336.71822154951434" r="8.574634350298599" style="fill: rgb(44, 160, 44);"/><circle cx="52.936805630826015" cy="337.8018036388899" r="4.268490888605882" style="fill: rgb(214, 39, 40);"/><circle cx="-1.8773925806146607" cy="313.1137908650266" r="1.821260377694561" style="fill: rgb(148, 103, 189);"/><circle cx="348.8668457474624" cy="337.88319786914747" r="9.25648041387907" style="fill: rgb(140, 86, 75);"/><circle cx="123.27040170814236" cy="342.9212242328381" r="5.836738135204437" style="fill: rgb(31, 119, 180);"/><circle cx="443.52500000000003" cy="345" r="10.32584346902307" style="fill: rgb(255, 127, 14);"/><circle cx="1065.025" cy="345" r="15" style="fill: rgb(44, 160, 44);"/><circle cx="-10.250269778386164" cy="383.3921628502547" r="3.178739622305439" style="fill: rgb(214, 39, 40);"/><circle cx="36.4972405365101" cy="314.4549815453238" r="3.7410259360632487" style="fill: rgb(148, 103, 189);"/><circle cx="726.025" cy="345" r="12.702284274646711" style="fill: rgb(140, 86, 75);"/><circle cx="4.3291398244658295" cy="331.75074410907075" r="3.338968312192055" style="fill: rgb(31, 119, 180);"/><circle cx="74.44229028465358" cy="344.7238182578652" r="4.856676246689549" style="fill: rgb(255, 127, 14);"/><circle cx="161.62434696315103" cy="332.37086452408244" r="7.034758341475927" style="fill: rgb(44, 160, 44);"/><circle cx="-26.065092700483877" cy="381.6719415174842" r="3.338968312192055" style="fill: rgb(214, 39, 40);"/><circle cx="-26.942952302692653" cy="324.7344045533708" r="2.781143156878905" style="fill: rgb(148, 103, 189);"/><circle cx="317.42759385490695" cy="353.72028971371435" r="9.03636153168182" style="fill: rgb(140, 86, 75);"/><circle cx="-23.157787116604386" cy="301.23653644307365" r="1.821260377694561" style="fill: rgb(31, 119, 180);"/><circle cx="17.191207482646547" cy="317.64489694116946" r="3.338968312192055" style="fill: rgb(255, 127, 14);"/><circle cx="36.83213457767647" cy="342.4483851363147" r="3.617036623280661" style="fill: rgb(44, 160, 44);"/><circle cx="-47.97114492816843" cy="334.04683857088474" r="1.821260377694561" style="fill: rgb(214, 39, 40);"/><circle cx="26.802265244171057" cy="301.33891437362314" r="1.821260377694561" style="fill: rgb(148, 103, 189);"/><circle cx="42.79125910829203" cy="388.57754369094033" r="3.9676235223821736" style="fill: rgb(140, 86, 75);"/><circle cx="16.457889561229834" cy="294.20007765258515" r="1.821260377694561" style="fill: rgb(31, 119, 180);"/><circle cx="53.008478608210595" cy="386.3452230993047" r="4.536218866916316" style="fill: rgb(255, 127, 14);"/><circle cx="-27.26447158300275" cy="360.76335729214316" r="1.821260377694561" style="fill: rgb(44, 160, 44);"/><circle cx="-35.786184207650535" cy="343.9916338089536" r="1.821260377694561" style="fill: rgb(214, 39, 40);"/><circle cx="22.869156354416837" cy="313.57584106523103" r="1.821260377694561" style="fill: rgb(148, 103, 189);"/><circle cx="16.462060810497306" cy="369.12833260738455" r="2.781143156878905" style="fill: rgb(140, 86, 75);"/><circle cx="-31.185272836683627" cy="332.3862450344637" r="1.821260377694561" style="fill: rgb(31, 119, 180);"/><circle cx="30.842344820775946" cy="367.0207201506822" r="3.483826120552262" style="fill: rgb(255, 127, 14);"/><circle cx="-10.312416798559306" cy="352.9669595465019" r="2.5" style="fill: rgb(44, 160, 44);"/><circle cx="-15.83991487527995" cy="323.62017416709364" r="1.821260377694561" style="fill: rgb(214, 39, 40);"/><circle cx="-51.19315750245808" cy="329.4416897168658" r="1.821260377694561" style="fill: rgb(148, 103, 189);"/><circle cx="10.226053487627862" cy="390.19824611711203" r="3.483826120552262" style="fill: rgb(140, 86, 75);"/><circle cx="-6.2391277200554205" cy="400.9559346634444" r="2.5" style="fill: rgb(31, 119, 180);"/><circle cx="381.375" cy="345" r="9.70750213849479" style="fill: rgb(255, 127, 14);"/><circle cx="159.54128368980304" cy="360.1553831445434" r="7.078754884894714" style="fill: rgb(44, 160, 44);"/><circle cx="-31.054575955560527" cy="315.1604920472155" r="1.821260377694561" style="fill: rgb(214, 39, 40);"/><circle cx="10.595386502158696" cy="305.530520946623" r="3.338968312192055" style="fill: rgb(148, 103, 189);"/><circle cx="531.1" cy="345" r="11.127669205960057" style="fill: rgb(140, 86, 75);"/><circle cx="8.390417235854402" cy="398.45488497554993" r="2.996871888637691" style="fill: rgb(31, 119, 180);"/><circle cx="267.1330443469142" cy="336.79460590814364" r="8.436795889978983" style="fill: rgb(255, 127, 14);"/><circle cx="55.05190294782905" cy="375.65066632358815" r="4.360871499189861" style="fill: rgb(44, 160, 44);"/><circle cx="-27.97072714137826" cy="310.08776685365274" r="1.821260377694561" style="fill: rgb(214, 39, 40);"/><circle cx="-18.366433216627918" cy="361.1907042663134" r="1.821260377694561" style="fill: rgb(148, 103, 189);"/><circle cx="257.65995760862603" cy="353.1193623837864" r="8.436795889978983" style="fill: rgb(140, 86, 75);"/><circle cx="47.89491961395235" cy="367.9932986508406" r="4.1724833995808215" style="fill: rgb(31, 119, 180);"/><circle cx="28.620976174738946" cy="341.22083719747786" r="2.781143156878905" style="fill: rgb(255, 127, 14);"/><circle cx="-11.683040449281528" cy="396.56580934154846" r="2.5" style="fill: rgb(44, 160, 44);"/><circle cx="19.178686264150183" cy="324.3938786318512" r="1.821260377694561" style="fill: rgb(214, 39, 40);"/><circle cx="53.48079080424151" cy="315.9258712568705" r="4.450007631294637" style="fill: rgb(148, 103, 189);"/><circle cx="-9.1938996910965" cy="324.6756548410042" r="2.996871888637691" style="fill: rgb(140, 86, 75);"/><circle cx="12.69886845077906" cy="351.5284867049788" r="1.821260377694561" style="fill: rgb(31, 119, 180);"/><circle cx="29.3281212446396" cy="397.518153874763" r="3.7410259360632487" style="fill: rgb(255, 127, 14);"/><circle cx="-42.371889133734335" cy="333.51727127773216" r="1.821260377694561" style="fill: rgb(44, 160, 44);"/><circle cx="12.157016296015787" cy="312.6175744211949" r="1.821260377694561" style="fill: rgb(214, 39, 40);"/><circle cx="-24.17309138191459" cy="341.1863259185362" r="1.821260377694561" style="fill: rgb(148, 103, 189);"/><circle cx="70.39766900222071" cy="316.8203353665977" r="5.476385104941575" style="fill: rgb(140, 86, 75);"/><circle cx="-3.6388892790508285" cy="394.4685085146682" r="2.5" style="fill: rgb(31, 119, 180);"/><circle cx="-39.013979897012455" cy="359.87038654662723" r="2.5" style="fill: rgb(255, 127, 14);"/><circle cx="19.16845208407826" cy="307.47623845416877" r="3.483826120552262" style="fill: rgb(44, 160, 44);"/><circle cx="-1.8001746834485441" cy="306.98491907573936" r="2.5" style="fill: rgb(214, 39, 40);"/><circle cx="-37.92506765399131" cy="321.8645399533639" r="1.821260377694561" style="fill: rgb(148, 103, 189);"/><circle cx="116.18471429976842" cy="331.043586615482" r="6.005292409804081" style="fill: rgb(140, 86, 75);"/><circle cx="-27.52520742263772" cy="297.70484974888745" r="1.821260377694561" style="fill: rgb(31, 119, 180);"/><circle cx="208.59987400123237" cy="367.0740799397817" r="7.459295121044921" style="fill: rgb(255, 127, 14);"/><circle cx="57.746624947656684" cy="361.04811119989074" r="4.6197755327517225" style="fill: rgb(44, 160, 44);"/><circle cx="-11.997297524682317" cy="313.36533554241316" r="1.821260377694561" style="fill: rgb(214, 39, 40);"/><circle cx="-36.73906265218107" cy="333.05898144034614" r="1.821260377694561" style="fill: rgb(148, 103, 189);"/><circle cx="108.83330544050052" cy="378.2447792487015" r="5.893698111527194" style="fill: rgb(140, 86, 75);"/><circle cx="-23.338155865951315" cy="306.86083982847634" r="1.821260377694561" style="fill: rgb(31, 119, 180);"/><circle cx="110.84367353753039" cy="310.57580654202445" r="5.720322658715714" style="fill: rgb(255, 127, 14);"/><circle cx="31.969312668653465" cy="358.35977123705624" r="3.338968312192055" style="fill: rgb(44, 160, 44);"/><circle cx="-43.192683642737144" cy="323.8341953153212" r="1.821260377694561" style="fill: rgb(214, 39, 40);"/><circle cx="-42.75036917033993" cy="312.43306056252914" r="1.821260377694561" style="fill: rgb(148, 103, 189);"/><circle cx="201.2818869822393" cy="350.9276648341264" r="7.699317932410212" style="fill: rgb(140, 86, 75);"/><circle cx="-14.699173334965268" cy="365.4554019904283" r="1.821260377694561" style="fill: rgb(31, 119, 180);"/><circle cx="11.21968115190742" cy="337.55434107983285" r="3.7410259360632487" style="fill: rgb(255, 127, 14);"/><circle cx="43.28574660134888" cy="299.27010413754465" r="3.9676235223821736" style="fill: rgb(44, 160, 44);"/><circle cx="1.805133936078157" cy="318.09816598578567" r="2.5" style="fill: rgb(214, 39, 40);"/><circle cx="-0.9874290747561513" cy="300.7206743580662" r="1.821260377694561" style="fill: rgb(148, 103, 189);"/><circle cx="104.32654432738526" cy="338.59650086884744" r="6.05998796042571" style="fill: rgb(140, 86, 75);"/><circle cx="-48.63030192429249" cy="356.90814654830893" r="2.5" style="fill: rgb(31, 119, 180);"/><circle cx="61.65011343680097" cy="308.59523140804697" r="4.536218866916316" style="fill: rgb(255, 127, 14);"/><circle cx="37.14311434125078" cy="305.76766529139996" r="2.996871888637691" style="fill: rgb(44, 160, 44);"/><circle cx="-28.88593234156655" cy="303.87738143714193" r="2.5" style="fill: rgb(214, 39, 40);"/><circle cx="-44.70462248009198" cy="347.8503603351442" r="1.821260377694561" style="fill: rgb(148, 103, 189);"/><circle cx="245.8434337720566" cy="338.9624365775061" r="8.004872624241749" style="fill: rgb(140, 86, 75);"/><circle cx="-18.017703731493555" cy="310.78089044001564" r="2.781143156878905" style="fill: rgb(31, 119, 180);"/><circle cx="187.5607090564103" cy="320.50142512872594" r="7.459295121044921" style="fill: rgb(255, 127, 14);"/><circle cx="15.177613923845424" cy="402.265682208794" r="2.781143156878905" style="fill: rgb(44, 160, 44);"/><circle cx="-48.82128191711246" cy="324.3187064445639" r="1.821260377694561" style="fill: rgb(214, 39, 40);"/><circle cx="-19.48218961057832" cy="296.95813145911586" r="1.821260377694561" style="fill: rgb(148, 103, 189);"/><circle cx="153.03733502539214" cy="318.0307690044301" r="6.47446479182731" style="fill: rgb(140, 86, 75);"/><circle cx="2.4951772052300982" cy="324.34165455340434" r="1.821260377694561" style="fill: rgb(31, 119, 180);"/><circle cx="25.7440031188186" cy="386.0200637621431" r="3.7410259360632487" style="fill: rgb(255, 127, 14);"/><circle cx="34.90125647830572" cy="380.6571340557698" r="3.7410259360632487" style="fill: rgb(44, 160, 44);"/><circle cx="14.993137978094705" cy="395.67061640869815" r="1.821260377694561" style="fill: rgb(214, 39, 40);"/><circle cx="17.641028655382463" cy="387.2973767060046" r="2.5" style="fill: rgb(148, 103, 189);"/><circle cx="65.4316876597185" cy="352.32364011556234" r="5.004831398972593" style="fill: rgb(140, 86, 75);"/><circle cx="-39.14660215861369" cy="307.2381648292703" r="2.5" style="fill: rgb(31, 119, 180);"/><circle cx="175.3539465918405" cy="362.8315817034124" r="6.990387339132549" style="fill: rgb(255, 127, 14);"/><circle cx="33.78977367371502" cy="389.7915271670423" r="3.178739622305439" style="fill: rgb(44, 160, 44);"/><circle cx="-5.399879752351011" cy="388.41678540478944" r="1.821260377694561" style="fill: rgb(214, 39, 40);"/><circle cx="-8.210337393762806" cy="376.71521715382295" r="1.821260377694561" style="fill: rgb(148, 103, 189);"/><circle cx="93.13664500591787" cy="316.3608685047786" r="5.600322658407492" style="fill: rgb(140, 86, 75);"/><circle cx="-32.25144049631275" cy="372.27869722378904" r="1.821260377694561" style="fill: rgb(31, 119, 180);"/><circle cx="12.994887522848822" cy="288.95311145740385" r="2.5" style="fill: rgb(255, 127, 14);"/><circle cx="-18.312560464685266" cy="394.3106489167491" r="2.5" style="fill: rgb(44, 160, 44);"/><circle cx="27.279603042389347" cy="378.65890809693167" r="1.821260377694561" style="fill: rgb(214, 39, 40);"/><circle cx="-44.02216723506504" cy="373.82067906344884" r="2.5" style="fill: rgb(148, 103, 189);"/><circle cx="64.77155872652814" cy="370.0711013317005" r="4.856676246689549" style="fill: rgb(140, 86, 75);"/><circle cx="-38.13155026024656" cy="379.7769719366475" r="2.5" style="fill: rgb(31, 119, 180);"/><circle cx="93.63001435519537" cy="330.1076737697762" r="5.600322658407492" style="fill: rgb(255, 127, 14);"/><circle cx="-37.1285084955314" cy="366.89415384281597" r="2.781143156878905" style="fill: rgb(44, 160, 44);"/><circle cx="-54.165340672528814" cy="353.86676317873173" r="1.821260377694561" style="fill: rgb(214, 39, 40);"/><circle cx="-18.309240757939435" cy="382.73860691174224" r="2.5" style="fill: rgb(148, 103, 189);"/><circle cx="170.79772859748516" cy="319.2883765093654" r="6.945632150758826" style="fill: rgb(140, 86, 75);"/><circle cx="21.51376848960918" cy="393.6617735324928" r="2.996871888637691" style="fill: rgb(31, 119, 180);"/><circle cx="50.446751985291385" cy="327.439002155527" r="4.360871499189861" style="fill: rgb(255, 127, 14);"/><circle cx="4.911803783414644" cy="374.1405299586734" r="2.996871888637691" style="fill: rgb(44, 160, 44);"/><circle cx="24.07230426029526" cy="354.94200171473557" r="3.338968312192055" style="fill: rgb(214, 39, 40);"/><circle cx="-24.314244168771985" cy="315.78498103279674" r="2.996871888637691" style="fill: rgb(148, 103, 189);"/><circle cx="138.14250543424245" cy="317.66496522691347" r="6.4246964687918595" style="fill: rgb(140, 86, 75);"/><circle cx="-2.4233824339132815" cy="328.1022153208048" r="2.5" style="fill: rgb(31, 119, 180);"/><circle cx="164.92244907469532" cy="375.15046126768544" r="6.854928137768039" style="fill: rgb(255, 127, 14);"/><circle cx="19.82725815440034" cy="379.64627821072816" r="2.996871888637691" style="fill: rgb(44, 160, 44);"/><circle cx="7.921942405986431" cy="325.3224199105935" r="1.821260377694561" style="fill: rgb(214, 39, 40);"/><circle cx="-37.71002628662558" cy="373.4697892305056" r="1.821260377694561" style="fill: rgb(148, 103, 189);"/><circle cx="236.32872960315453" cy="354.20931889712983" r="7.967509066184235" style="fill: rgb(140, 86, 75);"/><circle cx="-42.39684602764047" cy="353.7883795659634" r="2.5" style="fill: rgb(31, 119, 180);"/><circle cx="83.44352733112514" cy="369.8535162069235" r="5.4128128688667605" style="fill: rgb(255, 127, 14);"/><circle cx="-6.79338410501601" cy="316.8810630516166" r="2.5" style="fill: rgb(44, 160, 44);"/><circle cx="-51.16517397340321" cy="338.6861726170231" r="1.821260377694561" style="fill: rgb(214, 39, 40);"/><circle cx="-43.02300061724978" cy="318.21073814187827" r="1.821260377694561" style="fill: rgb(148, 103, 189);"/><circle cx="137.39861824862987" cy="343.87194996479474" r="6.3235096927639205" style="fill: rgb(140, 86, 75);"/><circle cx="30.838928402692716" cy="374.26942389820886" r="1.821260377694561" style="fill: rgb(31, 119, 180);"/><circle cx="1.8007863485814786" cy="352.6043161571122" r="1.821260377694561" style="fill: rgb(255, 127, 14);"/><circle cx="-7.700940081995823" cy="331.1345085372496" r="1.821260377694561" style="fill: rgb(44, 160, 44);"/><circle cx="17.919211973437847" cy="331.42566519997166" r="3.338968312192055" style="fill: rgb(214, 39, 40);"/><circle cx="-28.5260019350692" cy="388.3773821982078" r="1.821260377694561" style="fill: rgb(148, 103, 189);"/><circle cx="91.63796996951912" cy="343.7702300905826" r="5.660791494431936" style="fill: rgb(140, 86, 75);"/><circle cx="-5.130142574873668" cy="341.5662275520645" r="2.5" style="fill: rgb(31, 119, 180);"/><circle cx="152.63447554171606" cy="345.5208242502618" r="6.90048262068516" style="fill: rgb(255, 127, 14);"/><circle cx="33.495885778390566" cy="297.86015419724833" r="3.7410259360632487" style="fill: rgb(44, 160, 44);"/><circle cx="-11.077042496966214" cy="370.8666255525751" r="2.5" style="fill: rgb(214, 39, 40);"/><circle cx="-35.9097330919605" cy="354.3707205016471" r="1.821260377694561" style="fill: rgb(148, 103, 189);"/><circle cx="297.5928385447698" cy="352.401084569023" r="8.842197623742576" style="fill: rgb(140, 86, 75);"/><circle cx="-21.096639547705344" cy="321.73079516023176" r="1.821260377694561" style="fill: rgb(31, 119, 180);"/><circle cx="2.9580816683612325" cy="389.2048999137718" r="1.821260377694561" style="fill: rgb(255, 127, 14);"/><circle cx="-30.459638519246568" cy="355.8174248257426" r="1.821260377694561" style="fill: rgb(44, 160, 44);"/><circle cx="39.72652844155446" cy="362.65477611767363" r="3.617036623280661" style="fill: rgb(214, 39, 40);"/><circle cx="-39.201284932536424" cy="338.12065767194997" r="1.821260377694561" style="fill: rgb(148, 103, 189);"/><circle cx="5.819614048753201" cy="382.4639887282903" r="3.483826120552262" style="fill: rgb(140, 86, 75);"/><circle cx="-11.712820891599902" cy="307.80495428002837" r="1.821260377694561" style="fill: rgb(31, 119, 180);"/><circle cx="7.911430111613187" cy="346.1753957149947" r="3.483826120552262" style="fill: rgb(255, 127, 14);"/><circle cx="-16.6353451623415" cy="303.1332540188387" r="2.996871888637691" style="fill: rgb(44, 160, 44);"/><circle cx="-14.43552346390058" cy="376.9422311693664" r="2.5" style="fill: rgb(214, 39, 40);"/><circle cx="-52.79306357592091" cy="346.0654999334501" r="1.821260377694561" style="fill: rgb(148, 103, 189);"/><circle cx="73.8592993043045" cy="377.692761594495" r="5.004831398972593" style="fill: rgb(140, 86, 75);"/><circle cx="-41.42192559020585" cy="343.2827890097" r="1.821260377694561" style="fill: rgb(31, 119, 180);"/><circle cx="-3.960055954853185" cy="380.4252928854675" r="1.821260377694561" style="fill: rgb(255, 127, 14);"/><circle cx="-6.880304486376635" cy="310.63866597691646" r="1.821260377694561" style="fill: rgb(44, 160, 44);"/><circle cx="13.083162693874836" cy="383.074176897929" r="1.821260377694561" style="fill: rgb(214, 39, 40);"/><circle cx="-32.9830246494452" cy="383.45320886870485" r="1.821260377694561" style="fill: rgb(148, 103, 189);"/><circle cx="63.41255010887804" cy="382.58931766796195" r="4.536218866916316" style="fill: rgb(140, 86, 75);"/><circle cx="-17.291068995737096" cy="355.0374851912689" r="2.5" style="fill: rgb(31, 119, 180);"/><circle cx="95.90409914458198" cy="373.9920180478167" r="5.720322658715714" style="fill: rgb(255, 127, 14);"/><circle cx="25.65574655278981" cy="292.52806982343594" r="3.7410259360632487" style="fill: rgb(44, 160, 44);"/><circle cx="-27.05149556972768" cy="336.5531533341652" r="1.821260377694561" style="fill: rgb(214, 39, 40);"/><circle cx="-50.47778593658631" cy="362.9458593165644" r="1.821260377694561" style="fill: rgb(148, 103, 189);"/><circle cx="81.05613962281035" cy="310.35995056114473" r="5.004831398972593" style="fill: rgb(140, 86, 75);"/><circle cx="-45.58334208026131" cy="328.93971929676655" r="1.821260377694561" style="fill: rgb(31, 119, 180);"/><circle cx="-17.8235091792658" cy="342.30899133293866" r="2.781143156878905" style="fill: rgb(255, 127, 14);"/><circle cx="220.42709985599777" cy="322.0876301137329" r="7.7771763917367664" style="fill: rgb(44, 160, 44);"/><circle cx="20.546013675681756" cy="299.3417953089429" r="2.781143156878905" style="fill: rgb(214, 39, 40);"/><circle cx="-10.633392729567358" cy="390.35575467216444" r="1.821260377694561" style="fill: rgb(148, 103, 189);"/><circle cx="73.63636005819099" cy="361.59710466653644" r="5.4128128688667605" style="fill: rgb(140, 86, 75);"/><circle cx="21.190544373643352" cy="338.96193874395993" r="2.996871888637691" style="fill: rgb(31, 119, 180);"/><circle cx="60.809264858644624" cy="324.14175622250843" r="4.6197755327517225" style="fill: rgb(255, 127, 14);"/><circle cx="92.95765462927758" cy="361.0104302099126" r="5.600322658407492" style="fill: rgb(44, 160, 44);"/><circle cx="-2.7175100080521455" cy="335.0359875966386" r="2.5" style="fill: rgb(214, 39, 40);"/><circle cx="-32.09831147711642" cy="377.8804801852058" r="1.821260377694561" style="fill: rgb(148, 103, 189);"/><circle cx="134.47728496323793" cy="370.3766321598379" r="6.47446479182731" style="fill: rgb(140, 86, 75);"/><circle cx="-20.393045223251168" cy="327.95386756269573" r="2.5" style="fill: rgb(31, 119, 180);"/><circle cx="143.8847682825669" cy="358.43164139774746" r="6.715721399517204" style="fill: rgb(255, 127, 14);"/><circle cx="35.79043840419811" cy="324.5982907552832" r="4.072385035229241" style="fill: rgb(44, 160, 44);"/><circle cx="-33.677431968858926" cy="349.199140947554" r="1.821260377694561" style="fill: rgb(214, 39, 40);"/><circle cx="11.03108903682927" cy="329.85738916656" r="1.821260377694561" style="fill: rgb(148, 103, 189);"/><circle cx="120.00029459165606" cy="367.6270422127455" r="6.2720537249704345" style="fill: rgb(140, 86, 75);"/><circle cx="11.204452248554782" cy="363.71565583204836" r="2.781143156878905" style="fill: rgb(31, 119, 180);"/><circle cx="191.70666072627697" cy="365.25924863033595" r="7.540422092229341" style="fill: rgb(255, 127, 14);"/><circle cx="-25.659011999398746" cy="372.38871273378425" r="2.781143156878905" style="fill: rgb(44, 160, 44);"/><circle cx="-12.739131048580987" cy="318.9688401288385" r="1.821260377694561" style="fill: rgb(214, 39, 40);"/><circle cx="12.583249617622302" cy="376.3215609674631" r="2.996871888637691" style="fill: rgb(148, 103, 189);"/><circle cx="276.5679618028508" cy="353.1817231684222" r="8.471523349125363" style="fill: rgb(140, 86, 75);"/><circle cx="23.219560597264838" cy="346.63662107743176" r="2.996871888637691" style="fill: rgb(31, 119, 180);"/><circle cx="104.97744537357532" cy="322.8474424796877" r="5.893698111527194" style="fill: rgb(255, 127, 14);"/><circle cx="54.51641591925489" cy="350.84629235782495" r="4.072385035229241" style="fill: rgb(44, 160, 44);"/><circle cx="45.94542798835823" cy="345.4147163534348" r="4.072385035229241" style="fill: rgb(214, 39, 40);"/><circle cx="-16.92359642600287" cy="348.8711084623326" r="1.821260377694561" style="fill: rgb(148, 103, 189);"/><circle cx="328.50440331466064" cy="336.8659140336486" r="9.13150983218859" style="fill: rgb(140, 86, 75);"/><circle cx="-43.685644564309456" cy="367.5192824567253" r="1.821260377694561" style="fill: rgb(31, 119, 180);"/><circle cx="26.008685110191667" cy="327.6099357234398" r="3.7410259360632487" style="fill: rgb(255, 127, 14);"/><circle cx="32.893918865792784" cy="334.01658126660345" r="3.7410259360632487" style="fill: rgb(44, 160, 44);"/><circle cx="18.014967087419002" cy="350.8948788059626" r="1.821260377694561" style="fill: rgb(214, 39, 40);"/><circle cx="-11.29846569628234" cy="341.560344000833" r="1.821260377694561" style="fill: rgb(148, 103, 189);"/><circle cx="218.62010156508882" cy="353.05619092157224" r="7.7771763917367664" style="fill: rgb(140, 86, 75);"/><circle cx="-13.909269115288904" cy="330.44694810683444" r="2.5" style="fill: rgb(31, 119, 180);"/><circle cx="128.948328323729" cy="355.97292039055657" r="6.4246964687918595" style="fill: rgb(255, 127, 14);"/><circle cx="39.74968306621452" cy="353.16118324492703" r="3.857479244610878" style="fill: rgb(44, 160, 44);"/><circle cx="-44.75406154863675" cy="338.65497515649787" r="1.821260377694561" style="fill: rgb(214, 39, 40);"/><circle cx="-49.520925432586125" cy="350.6623587679785" r="1.821260377694561" style="fill: rgb(148, 103, 189);"/><circle cx="177.67467269509535" cy="333.7614881864154" r="7.078754884894714" style="fill: rgb(140, 86, 75);"/><circle cx="13.955497014364507" cy="299.234348003876" r="1.821260377694561" style="fill: rgb(31, 119, 180);"/><circle cx="-17.04614453670572" cy="290.8268165854147" r="2.781143156878905" style="fill: rgb(255, 127, 14);"/><circle cx="-22.20587236210503" cy="388.49693186021227" r="2.5" style="fill: rgb(44, 160, 44);"/><circle cx="-44.91367818616575" cy="362.0120209782597" r="1.821260377694561" style="fill: rgb(214, 39, 40);"/><circle cx="-3.7915980093155737" cy="352.9876603388488" r="1.821260377694561" style="fill: rgb(148, 103, 189);"/><circle cx="-12.253689391505958" cy="359.5923177225592" r="2.5" style="fill: rgb(140, 86, 75);"/><circle cx="0.9760616043949198" cy="367.8557212488997" r="2.5" style="fill: rgb(31, 119, 180);"/><circle cx="85.32463382415148" cy="382.59482164153593" r="5.476385104941575" style="fill: rgb(255, 127, 14);"/><circle cx="-12.295694024202497" cy="296.6872658778163" r="2.781143156878905" style="fill: rgb(44, 160, 44);"/><circle cx="-5.173111393507277" cy="368.81708286425885" r="1.821260377694561" style="fill: rgb(214, 39, 40);"/><circle cx="4.762180257900832" cy="362.9576229438586" r="1.821260377694561" style="fill: rgb(148, 103, 189);"/><circle cx="193.7367809646347" cy="335.88974918174955" r="7.12238629283062" style="fill: rgb(140, 86, 75);"/><circle cx="0.18305445638626855" cy="358.5843408434041" r="2.5" style="fill: rgb(31, 119, 180);"/><circle cx="-6.606480332338408" cy="348.05870395571304" r="1.821260377694561" style="fill: rgb(255, 127, 14);"/><circle cx="-9.07049212987526" cy="364.9050759390323" r="1.821260377694561" style="fill: rgb(44, 160, 44);"/><circle cx="23.857769847417572" cy="372.3520847187701" r="3.338968312192055" style="fill: rgb(214, 39, 40);"/><circle cx="-14.296517363887144" cy="336.7753505421415" r="1.821260377694561" style="fill: rgb(148, 103, 189);"/><circle cx="52.507410868254254" cy="303.2216281161532" r="4.072385035229241" style="fill: rgb(140, 86, 75);"/><circle cx="-29.8928174136463" cy="366.4699527818905" r="2.5" style="fill: rgb(31, 119, 180);"/><circle cx="106.04184378487068" cy="364.63137056459004" r="6.005292409804081" style="fill: rgb(255, 127, 14);"/><circle cx="16.10015077900045" cy="357.6251251842748" r="3.178739622305439" style="fill: rgb(44, 160, 44);"/><circle cx="-6.11365172820335" cy="358.10839510012244" r="1.821260377694561" style="fill: rgb(214, 39, 40);"/><circle cx="-29.49536224206582" cy="344.4551630914221" r="2.5" style="fill: rgb(148, 103, 189);"/><circle cx="308.45783607200144" cy="335.87002652658464" r="8.93994159247067" style="fill: rgb(140, 86, 75);"/><circle cx="22.556690889993792" cy="363.60434126377396" r="3.483826120552262" style="fill: rgb(31, 119, 180);"/><circle cx="337.67528742874686" cy="355.0746031361428" r="9.25648041387907" style="fill: rgb(255, 127, 14);"/><circle cx="480.25" cy="345" r="10.670942334174468" style="fill: rgb(44, 160, 44);"/><circle cx="-2.4602832365367937" cy="374.3800067192248" r="2.5" style="fill: rgb(214, 39, 40);"/><circle cx="4.664447210209295" cy="311.3062647239257" r="2.996871888637691" style="fill: rgb(148, 103, 189);"/><circle cx="576.3" cy="345" r="11.515601246315557" style="fill: rgb(140, 86, 75);"/><circle cx="0.17539837197168628" cy="294.5092936370752" r="2.5" style="fill: rgb(31, 119, 180);"/><circle cx="31.09652385076342" cy="349.4494044410453" r="3.617036623280661" style="fill: rgb(255, 127, 14);"/><circle cx="42.874785018497384" cy="334.7733725464557" r="4.268490888605882" style="fill: rgb(44, 160, 44);"/><circle cx="-6.563739520920977" cy="291.76276963304434" r="2.781143156878905" style="fill: rgb(214, 39, 40);"/><circle cx="-37.26897539042662" cy="315.59357860944453" r="2.5" style="fill: rgb(148, 103, 189);"/><circle cx="130.68738625262043" cy="330.6251550400289" r="6.5237064214670815" style="fill: rgb(140, 86, 75);"/><circle cx="-33.002267412783326" cy="338.4157182490946" r="2.5" style="fill: rgb(31, 119, 180);"/><circle cx="149.253995966153" cy="372.62537517448874" r="6.47446479182731" style="fill: rgb(255, 127, 14);"/><circle cx="7.6713416986326814" cy="356.3977423920654" r="3.338968312192055" style="fill: rgb(44, 160, 44);"/><circle cx="-33.913589109020144" cy="326.73390332467255" r="2.5" style="fill: rgb(214, 39, 40);"/><circle cx="-24.185037291902105" cy="355.3618145186964" r="2.5" style="fill: rgb(148, 103, 189);"/><circle cx="145.9049636155955" cy="331.43612866966816" r="6.715721399517204" style="fill: rgb(140, 86, 75);"/><circle cx="13.594020199548162" cy="324.8305193176563" r="1.821260377694561" style="fill: rgb(31, 119, 180);"/><circle cx="-32.8247100179719" cy="360.881676462195" r="1.821260377694561" style="fill: rgb(255, 127, 14);"/><circle cx="-3.0742083990997875" cy="321.96362344866463" r="1.821260377694561" style="fill: rgb(44, 160, 44);"/><circle cx="-22.98333144749154" cy="365.3867678753785" r="2.5" style="fill: rgb(214, 39, 40);"/><circle cx="-28.40057199519887" cy="350.63330609954494" r="1.821260377694561" style="fill: rgb(148, 103, 189);"/><circle cx="38.6213109786873" cy="371.9391670264532" r="3.7410259360632487" style="fill: rgb(140, 86, 75);"/><circle cx="28.817955494992223" cy="308.716112123606" r="3.857479244610878" style="fill: rgb(31, 119, 180);"/><circle cx="81.96043323803866" cy="335.34395506213707" r="5.214958489221756" style="fill: rgb(255, 127, 14);"/><circle cx="82.93472261162624" cy="353.1611556471556" r="5.146391863409962" style="fill: rgb(44, 160, 44);"/><circle cx="44.157480568044164" cy="319.7294175347904" r="3.617036623280661" style="fill: rgb(214, 39, 40);"/><circle cx="-7.613069338683209" cy="302.62480931657177" r="2.781143156878905" style="fill: rgb(148, 103, 189);"/><circle cx="227.9706864630505" cy="338.06387254219015" r="7.8920921156845365" style="fill: rgb(140, 86, 75);"/><circle cx="-0.1679162986154517" cy="346.5970198913879" r="2.781143156878905" style="fill: rgb(31, 119, 180);"/><circle cx="71.22677894535335" cy="329.3551573700707" r="5.0763812544683535" style="fill: rgb(255, 127, 14);"/><circle cx="28.192959017201165" cy="318.54790604635303" r="3.617036623280661" style="fill: rgb(44, 160, 44);"/><circle cx="7.116804654493436" cy="297.7665826494178" r="3.178739622305439" style="fill: rgb(214, 39, 40);"/><circle cx="10.037866717962297" cy="369.9963771692715" r="1.821260377694561" style="fill: rgb(148, 103, 189);"/><circle cx="184.40716780731765" cy="349.34530209595266" r="7.251177356138071" style="fill: rgb(140, 86, 75);"/><circle cx="-23.015166389753958" cy="347.32345229397646" r="2.5" style="fill: rgb(31, 119, 180);"/><circle cx="47.90529538188712" cy="358.0921140473377" r="3.7410259360632487" style="fill: rgb(255, 127, 14);"/><circle cx="-39.16246434671993" cy="348.4064969436989" r="1.821260377694561" style="fill: rgb(44, 160, 44);"/><circle cx="-0.9489063550516371" cy="385.1408954163906" r="1.821260377694561" style="fill: rgb(214, 39, 40);"/><circle cx="-20.75653335794304" cy="376.8859591390811" r="1.821260377694561" style="fill: rgb(148, 103, 189);"/><circle cx="122.56642463735372" cy="318.38758470028887" r="6.167314504184533" style="fill: rgb(140, 86, 75);"/><circle cx="3.681151478485492" cy="303.8654578120148" r="1.821260377694561" style="fill: rgb(31, 119, 180);"/><circle cx="-25.79523553356998" cy="331.1647226117351" r="1.821260377694561" style="fill: rgb(255, 127, 14);"/><circle cx="15.79015881178198" cy="344.69192949069696" r="2.781143156878905" style="fill: rgb(44, 160, 44);"/><circle cx="-20.65830436626808" cy="335.3124505346546" r="2.781143156878905" style="fill: rgb(214, 39, 40);"/><circle cx="-8.727664623726247" cy="336.4724408617975" r="1.821260377694561" style="fill: rgb(148, 103, 189);"/><circle cx="45.028947444559435" cy="309.9204602334391" r="3.9676235223821736" style="fill: rgb(140, 86, 75);"/></g><g class="labels"><g transform="translate(-18.30017824976947,370.84948840241697)"><text x="0" y="0" text-anchor="middle" dominant-baseline="text-before-edge" transform="translate(0,0)"/></g><g transform="translate(9.082790146523166,318.6912159018921)"><text x="0" y="0" text-anchor="middle" dominant-baseline="text-before-edge" transform="translate(0,0)"/></g><g transform="translate(-47.91482188785368,343.2739747271129)"><text x="0" y="0" text-anchor="middle" dominant-baseline="text-before-edge" transform="translate(0,0)"/></g><g transform="translate(45.281020081149954,378.96848818908194)"><text x="0" y="0" text-anchor="middle" dominant-baseline="text-before-edge" transform="translate(0,0)"/></g><g transform="translate(-11.908779018405834,346.92863083154)"><text x="0" y="0" text-anchor="middle" dominant-baseline="text-before-edge" transform="translate(0,0)"/></g><g transform="translate(81.8202097914773,322.74907741303167)"><text x="0" y="0" text-anchor="middle" dominant-baseline="text-before-edge" transform="translate(0,0)"/></g><g transform="translate(-17.8147783706332,317.28472046349947)"><text x="0" y="0" text-anchor="middle" dominant-baseline="text-before-edge" transform="translate(0,0)"/></g><g transform="translate(114.80810442799437,353.7875013139925)"><text x="0" y="0" text-anchor="middle" dominant-baseline="text-before-edge" transform="translate(0,0)"/></g><g transform="translate(2.8520700565936967,339.6911924482404)"><text x="0" y="0" text-anchor="middle" dominant-baseline="text-before-edge" transform="translate(0,0)"/></g><g transform="translate(-39.966689914889,328.43977703634766)"><text x="0" y="0" text-anchor="middle" dominant-baseline="text-before-edge" transform="translate(0,0)"/></g><g transform="translate(-32.11563336614751,320.6774028996372)"><text x="0" y="0" text-anchor="middle" dominant-baseline="text-before-edge" transform="translate(0,0)"/></g><g transform="translate(210.43266734132825,336.2753165682687)"><text x="0" y="0" text-anchor="middle" dominant-baseline="text-before-edge" transform="translate(0,0)"/></g><g transform="translate(5.797007406097445,289.9259538989624)"><text x="0" y="0" text-anchor="middle" dominant-baseline="text-before-edge" transform="translate(0,0)"/></g><g transform="translate(101.82891870025564,351.69574889480816)"><text x="0" y="0" text-anchor="middle" dominant-baseline="text-before-edge" transform="translate(0,0)"/></g><g transform="translate(2.655752677516857,394.80038876233573)"><text x="0" y="0" text-anchor="middle" dominant-baseline="text-before-edge" transform="translate(0,0)"/></g><g transform="translate(-15.890039567794773,388.50462293644915)"><text x="0" y="0" text-anchor="middle" dominant-baseline="text-before-edge" transform="translate(0,0)"/></g><g transform="translate(-3.6859031407004057,363.4439906374148)"><text x="0" y="0" text-anchor="middle" dominant-baseline="text-before-edge" transform="translate(0,0)"/></g><g transform="translate(168.41831446539553,346.8308108326814)"><text x="0" y="0" text-anchor="middle" dominant-baseline="text-before-edge" transform="translate(0,0)"/></g><g transform="translate(-33.56991246347071,310.1410085092241)"><text x="0" y="0" text-anchor="middle" dominant-baseline="text-before-edge" transform="translate(0,0)"/></g><g transform="translate(64.06865637912999,339.076357200694)"><text x="0" y="0" text-anchor="middle" dominant-baseline="text-before-edge" transform="translate(0,0)"/></g><g transform="translate(286.1443091315179,336.71822154951434)"><text x="0" y="0" text-anchor="middle" dominant-baseline="text-before-edge" transform="translate(0,0)"/></g><g transform="translate(52.936805630826015,337.8018036388899)"><text x="0" y="0" text-anchor="middle" dominant-baseline="text-before-edge" transform="translate(0,0)"/></g><g transform="translate(-1.8773925806146607,313.1137908650266)"><text x="0" y="0" text-anchor="middle" dominant-baseline="text-before-edge" transform="translate(0,0)"/></g><g transform="translate(348.8668457474624,337.88319786914747)"><text x="0" y="0" text-anchor="middle" dominant-baseline="text-before-edge" transform="translate(0,0)"/></g><g transform="translate(123.27040170814236,342.9212242328381)"><text x="0" y="0" text-anchor="middle" dominant-baseline="text-before-edge" transform="translate(0,0)"/></g><g transform="translate(443.52500000000003,345)"><text x="0" y="0" text-anchor="middle" dominant-baseline="text-before-edge" transform="translate(0,0)"/></g><g transform="translate(1065.025,345)"><text x="0" y="0" text-anchor="middle" dominant-baseline="text-before-edge" transform="translate(0,0)"/></g><g transform="translate(-10.250269778386164,383.3921628502547)"><text x="0" y="0" text-anchor="middle" dominant-baseline="text-before-edge" transform="translate(0,0)"/></g><g transform="translate(36.4972405365101,314.4549815453238)"><text x="0" y="0" text-anchor="middle" dominant-baseline="text-before-edge" transform="translate(0,0)"/></g><g transform="translate(726.025,345)"><text x="0" y="0" text-anchor="middle" dominant-baseline="text-before-edge" transform="translate(0,0)"/></g><g transform="translate(4.3291398244658295,331.75074410907075)"><text x="0" y="0" text-anchor="middle" dominant-baseline="text-before-edge" transform="translate(0,0)"/></g><g transform="translate(74.44229028465358,344.7238182578652)"><text x="0" y="0" text-anchor="middle" dominant-baseline="text-before-edge" transform="translate(0,0)"/></g><g transform="translate(161.62434696315103,332.37086452408244)"><text x="0" y="0" text-anchor="middle" dominant-baseline="text-before-edge" transform="translate(0,0)"/></g><g transform="translate(-26.065092700483877,381.6719415174842)"><text x="0" y="0" text-anchor="middle" dominant-baseline="text-before-edge" transform="translate(0,0)"/></g><g transform="translate(-26.942952302692653,324.7344045533708)"><text x="0" y="0" text-anchor="middle" dominant-baseline="text-before-edge" transform="translate(0,0)"/></g><g transform="translate(317.42759385490695,353.72028971371435)"><text x="0" y="0" text-anchor="middle" dominant-baseline="text-before-edge" transform="translate(0,0)"/></g><g transform="translate(-23.157787116604386,301.23653644307365)"><text x="0" y="0" text-anchor="middle" dominant-baseline="text-before-edge" transform="translate(0,0)"/></g><g transform="translate(17.191207482646547,317.64489694116946)"><text x="0" y="0" text-anchor="middle" dominant-baseline="text-before-edge" transform="translate(0,0)"/></g><g transform="translate(36.83213457767647,342.4483851363147)"><text x="0" y="0" text-anchor="middle" dominant-baseline="text-before-edge" transform="translate(0,0)"/></g><g transform="translate(-47.97114492816843,334.04683857088474)"><text x="0" y="0" text-anchor="middle" dominant-baseline="text-before-edge" transform="translate(0,0)"/></g><g transform="translate(26.802265244171057,301.33891437362314)"><text x="0" y="0" text-anchor="middle" dominant-baseline="text-before-edge" transform="translate(0,0)"/></g><g transform="translate(42.79125910829203,388.57754369094033)"><text x="0" y="0" text-anchor="middle" dominant-baseline="text-before-edge" transform="translate(0,0)"/></g><g transform="translate(16.457889561229834,294.20007765258515)"><text x="0" y="0" text-anchor="middle" dominant-baseline="text-before-edge" transform="translate(0,0)"/></g><g transform="translate(53.008478608210595,386.3452230993047)"><text x="0" y="0" text-anchor="middle" dominant-baseline="text-before-edge" transform="translate(0,0)"/></g><g transform="translate(-27.26447158300275,360.76335729214316)"><text x="0" y="0" text-anchor="middle" dominant-baseline="text-before-edge" transform="translate(0,0)"/></g><g transform="translate(-35.786184207650535,343.9916338089536)"><text x="0" y="0" text-anchor="middle" dominant-baseline="text-before-edge" transform="translate(0,0)"/></g><g transform="translate(22.869156354416837,313.57584106523103)"><text x="0" y="0" text-anchor="middle" dominant-baseline="text-before-edge" transform="translate(0,0)"/></g><g transform="translate(16.462060810497306,369.12833260738455)"><text x="0" y="0" text-anchor="middle" dominant-baseline="text-before-edge" transform="translate(0,0)"/></g><g transform="translate(-31.185272836683627,332.3862450344637)"><text x="0" y="0" text-anchor="middle" dominant-baseline="text-before-edge" transform="translate(0,0)"/></g><g transform="translate(30.842344820775946,367.0207201506822)"><text x="0" y="0" text-anchor="middle" dominant-baseline="text-before-edge" transform="translate(0,0)"/></g><g transform="translate(-10.312416798559306,352.9669595465019)"><text x="0" y="0" text-anchor="middle" dominant-baseline="text-before-edge" transform="translate(0,0)"/></g><g transform="translate(-15.83991487527995,323.62017416709364)"><text x="0" y="0" text-anchor="middle" dominant-baseline="text-before-edge" transform="translate(0,0)"/></g><g transform="translate(-51.19315750245808,329.4416897168658)"><text x="0" y="0" text-anchor="middle" dominant-baseline="text-before-edge" transform="translate(0,0)"/></g><g transform="translate(10.226053487627862,390.19824611711203)"><text x="0" y="0" text-anchor="middle" dominant-baseline="text-before-edge" transform="translate(0,0)"/></g><g transform="translate(-6.2391277200554205,400.9559346634444)"><text x="0" y="0" text-anchor="middle" dominant-baseline="text-before-edge" transform="translate(0,0)"/></g><g transform="translate(381.375,345)"><text x="0" y="0" text-anchor="middle" dominant-baseline="text-before-edge" transform="translate(0,0)"/></g><g transform="translate(159.54128368980304,360.1553831445434)"><text x="0" y="0" text-anchor="middle" dominant-baseline="text-before-edge" transform="translate(0,0)"/></g><g transform="translate(-31.054575955560527,315.1604920472155)"><text x="0" y="0" text-anchor="middle" dominant-baseline="text-before-edge" transform="translate(0,0)"/></g><g transform="translate(10.595386502158696,305.530520946623)"><text x="0" y="0" text-anchor="middle" dominant-baseline="text-before-edge" transform="translate(0,0)"/></g><g transform="translate(531.1,345)"><text x="0" y="0" text-anchor="middle" dominant-baseline="text-before-edge" transform="translate(0,0)"/></g><g transform="translate(8.390417235854402,398.45488497554993)"><text x="0" y="0" text-anchor="middle" dominant-baseline="text-before-edge" transform="translate(0,0)"/></g><g transform="translate(267.1330443469142,336.79460590814364)"><text x="0" y="0" text-anchor="middle" dominant-baseline="text-before-edge" transform="translate(0,0)"/></g><g transform="translate(55.05190294782905,375.65066632358815)"><text x="0" y="0" text-anchor="middle" dominant-baseline="text-before-edge" transform="translate(0,0)"/></g><g transform="translate(-27.97072714137826,310.08776685365274)"><text x="0" y="0" text-anchor="middle" dominant-baseline="text-before-edge" transform="translate(0,0)"/></g><g transform="translate(-18.366433216627918,361.1907042663134)"><text x="0" y="0" text-anchor="middle" dominant-baseline="text-before-edge" transform="translate(0,0)"/></g><g transform="translate(257.65995760862603,353.1193623837864)"><text x="0" y="0" text-anchor="middle" dominant-baseline="text-before-edge" transform="translate(0,0)"/></g><g transform="translate(47.89491961395235,367.9932986508406)"><text x="0" y="0" text-anchor="middle" dominant-baseline="text-before-edge" transform="translate(0,0)"/></g><g transform="translate(28.620976174738946,341.22083719747786)"><text x="0" y="0" text-anchor="middle" dominant-baseline="text-before-edge" transform="translate(0,0)"/></g><g transform="translate(-11.683040449281528,396.56580934154846)"><text x="0" y="0" text-anchor="middle" dominant-baseline="text-before-edge" transform="translate(0,0)"/></g><g transform="translate(19.178686264150183,324.3938786318512)"><text x="0" y="0" text-anchor="middle" dominant-baseline="text-before-edge" transform="translate(0,0)"/></g><g transform="translate(53.48079080424151,315.9258712568705)"><text x="0" y="0" text-anchor="middle" dominant-baseline="text-before-edge" transform="translate(0,0)"/></g><g transform="translate(-9.1938996910965,324.6756548410042)"><text x="0" y="0" text-anchor="middle" dominant-baseline="text-before-edge" transform="translate(0,0)"/></g><g transform="translate(12.69886845077906,351.5284867049788)"><text x="0" y="0" text-anchor="middle" dominant-baseline="text-before-edge" transform="translate(0,0)"/></g><g transform="translate(29.3281212446396,397.518153874763)"><text x="0" y="0" text-anchor="middle" dominant-baseline="text-before-edge" transform="translate(0,0)"/></g><g transform="translate(-42.371889133734335,333.51727127773216)"><text x="0" y="0" text-anchor="middle" dominant-baseline="text-before-edge" transform="translate(0,0)"/></g><g transform="translate(12.157016296015787,312.6175744211949)"><text x="0" y="0" text-anchor="middle" dominant-baseline="text-before-edge" transform="translate(0,0)"/></g><g transform="translate(-24.17309138191459,341.1863259185362)"><text x="0" y="0" text-anchor="middle" dominant-baseline="text-before-edge" transform="translate(0,0)"/></g><g transform="translate(70.39766900222071,316.8203353665977)"><text x="0" y="0" text-anchor="middle" dominant-baseline="text-before-edge" transform="translate(0,0)"/></g><g transform="translate(-3.6388892790508285,394.4685085146682)"><text x="0" y="0" text-anchor="middle" dominant-baseline="text-before-edge" transform="translate(0,0)"/></g><g transform="translate(-39.013979897012455,359.87038654662723)"><text x="0" y="0" text-anchor="middle" dominant-baseline="text-before-edge" transform="translate(0,0)"/></g><g transform="translate(19.16845208407826,307.47623845416877)"><text x="0" y="0" text-anchor="middle" dominant-baseline="text-before-edge" transform="translate(0,0)"/></g><g transform="translate(-1.8001746834485441,306.98491907573936)"><text x="0" y="0" text-anchor="middle" dominant-baseline="text-before-edge" transform="translate(0,0)"/></g><g transform="translate(-37.92506765399131,321.8645399533639)"><text x="0" y="0" text-anchor="middle" dominant-baseline="text-before-edge" transform="translate(0,0)"/></g><g transform="translate(116.18471429976842,331.043586615482)"><text x="0" y="0" text-anchor="middle" dominant-baseline="text-before-edge" transform="translate(0,0)"/></g><g transform="translate(-27.52520742263772,297.70484974888745)"><text x="0" y="0" text-anchor="middle" dominant-baseline="text-before-edge" transform="translate(0,0)"/></g><g transform="translate(208.59987400123237,367.0740799397817)"><text x="0" y="0" text-anchor="middle" dominant-baseline="text-before-edge" transform="translate(0,0)"/></g><g transform="translate(57.746624947656684,361.04811119989074)"><text x="0" y="0" text-anchor="middle" dominant-baseline="text-before-edge" transform="translate(0,0)"/></g><g transform="translate(-11.997297524682317,313.36533554241316)"><text x="0" y="0" text-anchor="middle" dominant-baseline="text-before-edge" transform="translate(0,0)"/></g><g transform="translate(-36.73906265218107,333.05898144034614)"><text x="0" y="0" text-anchor="middle" dominant-baseline="text-before-edge" transform="translate(0,0)"/></g><g transform="translate(108.83330544050052,378.2447792487015)"><text x="0" y="0" text-anchor="middle" dominant-baseline="text-before-edge" transform="translate(0,0)"/></g><g transform="translate(-23.338155865951315,306.86083982847634)"><text x="0" y="0" text-anchor="middle" dominant-baseline="text-before-edge" transform="translate(0,0)"/></g><g transform="translate(110.84367353753039,310.57580654202445)"><text x="0" y="0" text-anchor="middle" dominant-baseline="text-before-edge" transform="translate(0,0)"/></g><g transform="translate(31.969312668653465,358.35977123705624)"><text x="0" y="0" text-anchor="middle" dominant-baseline="text-before-edge" transform="translate(0,0)"/></g><g transform="translate(-43.192683642737144,323.8341953153212)"><text x="0" y="0" text-anchor="middle" dominant-baseline="text-before-edge" transform="translate(0,0)"/></g><g transform="translate(-42.75036917033993,312.43306056252914)"><text x="0" y="0" text-anchor="middle" dominant-baseline="text-before-edge" transform="translate(0,0)"/></g><g transform="translate(201.2818869822393,350.9276648341264)"><text x="0" y="0" text-anchor="middle" dominant-baseline="text-before-edge" transform="translate(0,0)"/></g><g transform="translate(-14.699173334965268,365.4554019904283)"><text x="0" y="0" text-anchor="middle" dominant-baseline="text-before-edge" transform="translate(0,0)"/></g><g transform="translate(11.21968115190742,337.55434107983285)"><text x="0" y="0" text-anchor="middle" dominant-baseline="text-before-edge" transform="translate(0,0)"/></g><g transform="translate(43.28574660134888,299.27010413754465)"><text x="0" y="0" text-anchor="middle" dominant-baseline="text-before-edge" transform="translate(0,0)"/></g><g transform="translate(1.805133936078157,318.09816598578567)"><text x="0" y="0" text-anchor="middle" dominant-baseline="text-before-edge" transform="translate(0,0)"/></g><g transform="translate(-0.9874290747561513,300.7206743580662)"><text x="0" y="0" text-anchor="middle" dominant-baseline="text-before-edge" transform="translate(0,0)"/></g><g transform="translate(104.32654432738526,338.59650086884744)"><text x="0" y="0" text-anchor="middle" dominant-baseline="text-before-edge" transform="translate(0,0)"/></g><g transform="translate(-48.63030192429249,356.90814654830893)"><text x="0" y="0" text-anchor="middle" dominant-baseline="text-before-edge" transform="translate(0,0)"/></g><g transform="translate(61.65011343680097,308.59523140804697)"><text x="0" y="0" text-anchor="middle" dominant-baseline="text-before-edge" transform="translate(0,0)"/></g><g transform="translate(37.14311434125078,305.76766529139996)"><text x="0" y="0" text-anchor="middle" dominant-baseline="text-before-edge" transform="translate(0,0)"/></g><g transform="translate(-28.88593234156655,303.87738143714193)"><text x="0" y="0" text-anchor="middle" dominant-baseline="text-before-edge" transform="translate(0,0)"/></g><g transform="translate(-44.70462248009198,347.8503603351442)"><text x="0" y="0" text-anchor="middle" dominant-baseline="text-before-edge" transform="translate(0,0)"/></g><g transform="translate(245.8434337720566,338.9624365775061)"><text x="0" y="0" text-anchor="middle" dominant-baseline="text-before-edge" transform="translate(0,0)"/></g><g transform="translate(-18.017703731493555,310.78089044001564)"><text x="0" y="0" text-anchor="middle" dominant-baseline="text-before-edge" transform="translate(0,0)"/></g><g transform="translate(187.5607090564103,320.50142512872594)"><text x="0" y="0" text-anchor="middle" dominant-baseline="text-before-edge" transform="translate(0,0)"/></g><g transform="translate(15.177613923845424,402.265682208794)"><text x="0" y="0" text-anchor="middle" dominant-baseline="text-before-edge" transform="translate(0,0)"/></g><g transform="translate(-48.82128191711246,324.3187064445639)"><text x="0" y="0" text-anchor="middle" dominant-baseline="text-before-edge" transform="translate(0,0)"/></g><g transform="translate(-19.48218961057832,296.95813145911586)"><text x="0" y="0" text-anchor="middle" dominant-baseline="text-before-edge" transform="translate(0,0)"/></g><g transform="translate(153.03733502539214,318.0307690044301)"><text x="0" y="0" text-anchor="middle" dominant-baseline="text-before-edge" transform="translate(0,0)"/></g><g transform="translate(2.4951772052300982,324.34165455340434)"><text x="0" y="0" text-anchor="middle" dominant-baseline="text-before-edge" transform="translate(0,0)"/></g><g transform="translate(25.7440031188186,386.0200637621431)"><text x="0" y="0" text-anchor="middle" dominant-baseline="text-before-edge" transform="translate(0,0)"/></g><g transform="translate(34.90125647830572,380.6571340557698)"><text x="0" y="0" text-anchor="middle" dominant-baseline="text-before-edge" transform="translate(0,0)"/></g><g transform="translate(14.993137978094705,395.67061640869815)"><text x="0" y="0" text-anchor="middle" dominant-baseline="text-before-edge" transform="translate(0,0)"/></g><g transform="translate(17.641028655382463,387.2973767060046)"><text x="0" y="0" text-anchor="middle" dominant-baseline="text-before-edge" transform="translate(0,0)"/></g><g transform="translate(65.4316876597185,352.32364011556234)"><text x="0" y="0" text-anchor="middle" dominant-baseline="text-before-edge" transform="translate(0,0)"/></g><g transform="translate(-39.14660215861369,307.2381648292703)"><text x="0" y="0" text-anchor="middle" dominant-baseline="text-before-edge" transform="translate(0,0)"/></g><g transform="translate(175.3539465918405,362.8315817034124)"><text x="0" y="0" text-anchor="middle" dominant-baseline="text-before-edge" transform="translate(0,0)"/></g><g transform="translate(33.78977367371502,389.7915271670423)"><text x="0" y="0" text-anchor="middle" dominant-baseline="text-before-edge" transform="translate(0,0)"/></g><g transform="translate(-5.399879752351011,388.41678540478944)"><text x="0" y="0" text-anchor="middle" dominant-baseline="text-before-edge" transform="translate(0,0)"/></g><g transform="translate(-8.210337393762806,376.71521715382295)"><text x="0" y="0" text-anchor="middle" dominant-baseline="text-before-edge" transform="translate(0,0)"/></g><g transform="translate(93.13664500591787,316.3608685047786)"><text x="0" y="0" text-anchor="middle" dominant-baseline="text-before-edge" transform="translate(0,0)"/></g><g transform="translate(-32.25144049631275,372.27869722378904)"><text x="0" y="0" text-anchor="middle" dominant-baseline="text-before-edge" transform="translate(0,0)"/></g><g transform="translate(12.994887522848822,288.95311145740385)"><text x="0" y="0" text-anchor="middle" dominant-baseline="text-before-edge" transform="translate(0,0)"/></g><g transform="translate(-18.312560464685266,394.3106489167491)"><text x="0" y="0" text-anchor="middle" dominant-baseline="text-before-edge" transform="translate(0,0)"/></g><g transform="translate(27.279603042389347,378.65890809693167)"><text x="0" y="0" text-anchor="middle" dominant-baseline="text-before-edge" transform="translate(0,0)"/></g><g transform="translate(-44.02216723506504,373.82067906344884)"><text x="0" y="0" text-anchor="middle" dominant-baseline="text-before-edge" transform="translate(0,0)"/></g><g transform="translate(64.77155872652814,370.0711013317005)"><text x="0" y="0" text-anchor="middle" dominant-baseline="text-before-edge" transform="translate(0,0)"/></g><g transform="translate(-38.13155026024656,379.7769719366475)"><text x="0" y="0" text-anchor="middle" dominant-baseline="text-before-edge" transform="translate(0,0)"/></g><g transform="translate(93.63001435519537,330.1076737697762)"><text x="0" y="0" text-anchor="middle" dominant-baseline="text-before-edge" transform="translate(0,0)"/></g><g transform="translate(-37.1285084955314,366.89415384281597)"><text x="0" y="0" text-anchor="middle" dominant-baseline="text-before-edge" transform="translate(0,0)"/></g><g transform="translate(-54.165340672528814,353.86676317873173)"><text x="0" y="0" text-anchor="middle" dominant-baseline="text-before-edge" transform="translate(0,0)"/></g><g transform="translate(-18.309240757939435,382.73860691174224)"><text x="0" y="0" text-anchor="middle" dominant-baseline="text-before-edge" transform="translate(0,0)"/></g><g transform="translate(170.79772859748516,319.2883765093654)"><text x="0" y="0" text-anchor="middle" dominant-baseline="text-before-edge" transform="translate(0,0)"/></g><g transform="translate(21.51376848960918,393.6617735324928)"><text x="0" y="0" text-anchor="middle" dominant-baseline="text-before-edge" transform="translate(0,0)"/></g><g transform="translate(50.446751985291385,327.439002155527)"><text x="0" y="0" text-anchor="middle" dominant-baseline="text-before-edge" transform="translate(0,0)"/></g><g transform="translate(4.911803783414644,374.1405299586734)"><text x="0" y="0" text-anchor="middle" dominant-baseline="text-before-edge" transform="translate(0,0)"/></g><g transform="translate(24.07230426029526,354.94200171473557)"><text x="0" y="0" text-anchor="middle" dominant-baseline="text-before-edge" transform="translate(0,0)"/></g><g transform="translate(-24.314244168771985,315.78498103279674)"><text x="0" y="0" text-anchor="middle" dominant-baseline="text-before-edge" transform="translate(0,0)"/></g><g transform="translate(138.14250543424245,317.66496522691347)"><text x="0" y="0" text-anchor="middle" dominant-baseline="text-before-edge" transform="translate(0,0)"/></g><g transform="translate(-2.4233824339132815,328.1022153208048)"><text x="0" y="0" text-anchor="middle" dominant-baseline="text-before-edge" transform="translate(0,0)"/></g><g transform="translate(164.92244907469532,375.15046126768544)"><text x="0" y="0" text-anchor="middle" dominant-baseline="text-before-edge" transform="translate(0,0)"/></g><g transform="translate(19.82725815440034,379.64627821072816)"><text x="0" y="0" text-anchor="middle" dominant-baseline="text-before-edge" transform="translate(0,0)"/></g><g transform="translate(7.921942405986431,325.3224199105935)"><text x="0" y="0" text-anchor="middle" dominant-baseline="text-before-edge" transform="translate(0,0)"/></g><g transform="translate(-37.71002628662558,373.4697892305056)"><text x="0" y="0" text-anchor="middle" dominant-baseline="text-before-edge" transform="translate(0,0)"/></g><g transform="translate(236.32872960315453,354.20931889712983)"><text x="0" y="0" text-anchor="middle" dominant-baseline="text-before-edge" transform="translate(0,0)"/></g><g transform="translate(-42.39684602764047,353.7883795659634)"><text x="0" y="0" text-anchor="middle" dominant-baseline="text-before-edge" transform="translate(0,0)"/></g><g transform="translate(83.44352733112514,369.8535162069235)"><text x="0" y="0" text-anchor="middle" dominant-baseline="text-before-edge" transform="translate(0,0)"/></g><g transform="translate(-6.79338410501601,316.8810630516166)"><text x="0" y="0" text-anchor="middle" dominant-baseline="text-before-edge" transform="translate(0,0)"/></g><g transform="translate(-51.16517397340321,338.6861726170231)"><text x="0" y="0" text-anchor="middle" dominant-baseline="text-before-edge" transform="translate(0,0)"/></g><g transform="translate(-43.02300061724978,318.21073814187827)"><text x="0" y="0" text-anchor="middle" dominant-baseline="text-before-edge" transform="translate(0,0)"/></g><g transform="translate(137.39861824862987,343.87194996479474)"><text x="0" y="0" text-anchor="middle" dominant-baseline="text-before-edge" transform="translate(0,0)"/></g><g transform="translate(30.838928402692716,374.26942389820886)"><text x="0" y="0" text-anchor="middle" dominant-baseline="text-before-edge" transform="translate(0,0)"/></g><g transform="translate(1.8007863485814786,352.6043161571122)"><text x="0" y="0" text-anchor="middle" dominant-baseline="text-before-edge" transform="translate(0,0)"/></g><g transform="translate(-7.700940081995823,331.1345085372496)"><text x="0" y="0" text-anchor="middle" dominant-baseline="text-before-edge" transform="translate(0,0)"/></g><g transform="translate(17.919211973437847,331.42566519997166)"><text x="0" y="0" text-anchor="middle" dominant-baseline="text-before-edge" transform="translate(0,0)"/></g><g transform="translate(-28.5260019350692,388.3773821982078)"><text x="0" y="0" text-anchor="middle" dominant-baseline="text-before-edge" transform="translate(0,0)"/></g><g transform="translate(91.63796996951912,343.7702300905826)"><text x="0" y="0" text-anchor="middle" dominant-baseline="text-before-edge" transform="translate(0,0)"/></g><g transform="translate(-5.130142574873668,341.5662275520645)"><text x="0" y="0" text-anchor="middle" dominant-baseline="text-before-edge" transform="translate(0,0)"/></g><g transform="translate(152.63447554171606,345.5208242502618)"><text x="0" y="0" text-anchor="middle" dominant-baseline="text-before-edge" transform="translate(0,0)"/></g><g transform="translate(33.495885778390566,297.86015419724833)"><text x="0" y="0" text-anchor="middle" dominant-baseline="text-before-edge" transform="translate(0,0)"/></g><g transform="translate(-11.077042496966214,370.8666255525751)"><text x="0" y="0" text-anchor="middle" dominant-baseline="text-before-edge" transform="translate(0,0)"/></g><g transform="translate(-35.9097330919605,354.3707205016471)"><text x="0" y="0" text-anchor="middle" dominant-baseline="text-before-edge" transform="translate(0,0)"/></g><g transform="translate(297.5928385447698,352.401084569023)"><text x="0" y="0" text-anchor="middle" dominant-baseline="text-before-edge" transform="translate(0,0)"/></g><g transform="translate(-21.096639547705344,321.73079516023176)"><text x="0" y="0" text-anchor="middle" dominant-baseline="text-before-edge" transform="translate(0,0)"/></g><g transform="translate(2.9580816683612325,389.2048999137718)"><text x="0" y="0" text-anchor="middle" dominant-baseline="text-before-edge" transform="translate(0,0)"/></g><g transform="translate(-30.459638519246568,355.8174248257426)"><text x="0" y="0" text-anchor="middle" dominant-baseline="text-before-edge" transform="translate(0,0)"/></g><g transform="translate(39.72652844155446,362.65477611767363)"><text x="0" y="0" text-anchor="middle" dominant-baseline="text-before-edge" transform="translate(0,0)"/></g><g transform="translate(-39.201284932536424,338.12065767194997)"><text x="0" y="0" text-anchor="middle" dominant-baseline="text-before-edge" transform="translate(0,0)"/></g><g transform="translate(5.819614048753201,382.4639887282903)"><text x="0" y="0" text-anchor="middle" dominant-baseline="text-before-edge" transform="translate(0,0)"/></g><g transform="translate(-11.712820891599902,307.80495428002837)"><text x="0" y="0" text-anchor="middle" dominant-baseline="text-before-edge" transform="translate(0,0)"/></g><g transform="translate(7.911430111613187,346.1753957149947)"><text x="0" y="0" text-anchor="middle" dominant-baseline="text-before-edge" transform="translate(0,0)"/></g><g transform="translate(-16.6353451623415,303.1332540188387)"><text x="0" y="0" text-anchor="middle" dominant-baseline="text-before-edge" transform="translate(0,0)"/></g><g transform="translate(-14.43552346390058,376.9422311693664)"><text x="0" y="0" text-anchor="middle" dominant-baseline="text-before-edge" transform="translate(0,0)"/></g><g transform="translate(-52.79306357592091,346.0654999334501)"><text x="0" y="0" text-anchor="middle" dominant-baseline="text-before-edge" transform="translate(0,0)"/></g><g transform="translate(73.8592993043045,377.692761594495)"><text x="0" y="0" text-anchor="middle" dominant-baseline="text-before-edge" transform="translate(0,0)"/></g><g transform="translate(-41.42192559020585,343.2827890097)"><text x="0" y="0" text-anchor="middle" dominant-baseline="text-before-edge" transform="translate(0,0)"/></g><g transform="translate(-3.960055954853185,380.4252928854675)"><text x="0" y="0" text-anchor="middle" dominant-baseline="text-before-edge" transform="translate(0,0)"/></g><g transform="translate(-6.880304486376635,310.63866597691646)"><text x="0" y="0" text-anchor="middle" dominant-baseline="text-before-edge" transform="translate(0,0)"/></g><g transform="translate(13.083162693874836,383.074176897929)"><text x="0" y="0" text-anchor="middle" dominant-baseline="text-before-edge" transform="translate(0,0)"/></g><g transform="translate(-32.9830246494452,383.45320886870485)"><text x="0" y="0" text-anchor="middle" dominant-baseline="text-before-edge" transform="translate(0,0)"/></g><g transform="translate(63.41255010887804,382.58931766796195)"><text x="0" y="0" text-anchor="middle" dominant-baseline="text-before-edge" transform="translate(0,0)"/></g><g transform="translate(-17.291068995737096,355.0374851912689)"><text x="0" y="0" text-anchor="middle" dominant-baseline="text-before-edge" transform="translate(0,0)"/></g><g transform="translate(95.90409914458198,373.9920180478167)"><text x="0" y="0" text-anchor="middle" dominant-baseline="text-before-edge" transform="translate(0,0)"/></g><g transform="translate(25.65574655278981,292.52806982343594)"><text x="0" y="0" text-anchor="middle" dominant-baseline="text-before-edge" transform="translate(0,0)"/></g><g transform="translate(-27.05149556972768,336.5531533341652)"><text x="0" y="0" text-anchor="middle" dominant-baseline="text-before-edge" transform="translate(0,0)"/></g><g transform="translate(-50.47778593658631,362.9458593165644)"><text x="0" y="0" text-anchor="middle" dominant-baseline="text-before-edge" transform="translate(0,0)"/></g><g transform="translate(81.05613962281035,310.35995056114473)"><text x="0" y="0" text-anchor="middle" dominant-baseline="text-before-edge" transform="translate(0,0)"/></g><g transform="translate(-45.58334208026131,328.93971929676655)"><text x="0" y="0" text-anchor="middle" dominant-baseline="text-before-edge" transform="translate(0,0)"/></g><g transform="translate(-17.8235091792658,342.30899133293866)"><text x="0" y="0" text-anchor="middle" dominant-baseline="text-before-edge" transform="translate(0,0)"/></g><g transform="translate(220.42709985599777,322.0876301137329)"><text x="0" y="0" text-anchor="middle" dominant-baseline="text-before-edge" transform="translate(0,0)"/></g><g transform="translate(20.546013675681756,299.3417953089429)"><text x="0" y="0" text-anchor="middle" dominant-baseline="text-before-edge" transform="translate(0,0)"/></g><g transform="translate(-10.633392729567358,390.35575467216444)"><text x="0" y="0" text-anchor="middle" dominant-baseline="text-before-edge" transform="translate(0,0)"/></g><g transform="translate(73.63636005819099,361.59710466653644)"><text x="0" y="0" text-anchor="middle" dominant-baseline="text-before-edge" transform="translate(0,0)"/></g><g transform="translate(21.190544373643352,338.96193874395993)"><text x="0" y="0" text-anchor="middle" dominant-baseline="text-before-edge" transform="translate(0,0)"/></g><g transform="translate(60.809264858644624,324.14175622250843)"><text x="0" y="0" text-anchor="middle" dominant-baseline="text-before-edge" transform="translate(0,0)"/></g><g transform="translate(92.95765462927758,361.0104302099126)"><text x="0" y="0" text-anchor="middle" dominant-baseline="text-before-edge" transform="translate(0,0)"/></g><g transform="translate(-2.7175100080521455,335.0359875966386)"><text x="0" y="0" text-anchor="middle" dominant-baseline="text-before-edge" transform="translate(0,0)"/></g><g transform="translate(-32.09831147711642,377.8804801852058)"><text x="0" y="0" text-anchor="middle" dominant-baseline="text-before-edge" transform="translate(0,0)"/></g><g transform="translate(134.47728496323793,370.3766321598379)"><text x="0" y="0" text-anchor="middle" dominant-baseline="text-before-edge" transform="translate(0,0)"/></g><g transform="translate(-20.393045223251168,327.95386756269573)"><text x="0" y="0" text-anchor="middle" dominant-baseline="text-before-edge" transform="translate(0,0)"/></g><g transform="translate(143.8847682825669,358.43164139774746)"><text x="0" y="0" text-anchor="middle" dominant-baseline="text-before-edge" transform="translate(0,0)"/></g><g transform="translate(35.79043840419811,324.5982907552832)"><text x="0" y="0" text-anchor="middle" dominant-baseline="text-before-edge" transform="translate(0,0)"/></g><g transform="translate(-33.677431968858926,349.199140947554)"><text x="0" y="0" text-anchor="middle" dominant-baseline="text-before-edge" transform="translate(0,0)"/></g><g transform="translate(11.03108903682927,329.85738916656)"><text x="0" y="0" text-anchor="middle" dominant-baseline="text-before-edge" transform="translate(0,0)"/></g><g transform="translate(120.00029459165606,367.6270422127455)"><text x="0" y="0" text-anchor="middle" dominant-baseline="text-before-edge" transform="translate(0,0)"/></g><g transform="translate(11.204452248554782,363.71565583204836)"><text x="0" y="0" text-anchor="middle" dominant-baseline="text-before-edge" transform="translate(0,0)"/></g><g transform="translate(191.70666072627697,365.25924863033595)"><text x="0" y="0" text-anchor="middle" dominant-baseline="text-before-edge" transform="translate(0,0)"/></g><g transform="translate(-25.659011999398746,372.38871273378425)"><text x="0" y="0" text-anchor="middle" dominant-baseline="text-before-edge" transform="translate(0,0)"/></g><g transform="translate(-12.739131048580987,318.9688401288385)"><text x="0" y="0" text-anchor="middle" dominant-baseline="text-before-edge" transform="translate(0,0)"/></g><g transform="translate(12.583249617622302,376.3215609674631)"><text x="0" y="0" text-anchor="middle" dominant-baseline="text-before-edge" transform="translate(0,0)"/></g><g transform="translate(276.5679618028508,353.1817231684222)"><text x="0" y="0" text-anchor="middle" dominant-baseline="text-before-edge" transform="translate(0,0)"/></g><g transform="translate(23.219560597264838,346.63662107743176)"><text x="0" y="0" text-anchor="middle" dominant-baseline="text-before-edge" transform="translate(0,0)"/></g><g transform="translate(104.97744537357532,322.8474424796877)"><text x="0" y="0" text-anchor="middle" dominant-baseline="text-before-edge" transform="translate(0,0)"/></g><g transform="translate(54.51641591925489,350.84629235782495)"><text x="0" y="0" text-anchor="middle" dominant-baseline="text-before-edge" transform="translate(0,0)"/></g><g transform="translate(45.94542798835823,345.4147163534348)"><text x="0" y="0" text-anchor="middle" dominant-baseline="text-before-edge" transform="translate(0,0)"/></g><g transform="translate(-16.92359642600287,348.8711084623326)"><text x="0" y="0" text-anchor="middle" dominant-baseline="text-before-edge" transform="translate(0,0)"/></g><g transform="translate(328.50440331466064,336.8659140336486)"><text x="0" y="0" text-anchor="middle" dominant-baseline="text-before-edge" transform="translate(0,0)"/></g><g transform="translate(-43.685644564309456,367.5192824567253)"><text x="0" y="0" text-anchor="middle" dominant-baseline="text-before-edge" transform="translate(0,0)"/></g><g transform="translate(26.008685110191667,327.6099357234398)"><text x="0" y="0" text-anchor="middle" dominant-baseline="text-before-edge" transform="translate(0,0)"/></g><g transform="translate(32.893918865792784,334.01658126660345)"><text x="0" y="0" text-anchor="middle" dominant-baseline="text-before-edge" transform="translate(0,0)"/></g><g transform="translate(18.014967087419002,350.8948788059626)"><text x="0" y="0" text-anchor="middle" dominant-baseline="text-before-edge" transform="translate(0,0)"/></g><g transform="translate(-11.29846569628234,341.560344000833)"><text x="0" y="0" text-anchor="middle" dominant-baseline="text-before-edge" transform="translate(0,0)"/></g><g transform="translate(218.62010156508882,353.05619092157224)"><text x="0" y="0" text-anchor="middle" dominant-baseline="text-before-edge" transform="translate(0,0)"/></g><g transform="translate(-13.909269115288904,330.44694810683444)"><text x="0" y="0" text-anchor="middle" dominant-baseline="text-before-edge" transform="translate(0,0)"/></g><g transform="translate(128.948328323729,355.97292039055657)"><text x="0" y="0" text-anchor="middle" dominant-baseline="text-before-edge" transform="translate(0,0)"/></g><g transform="translate(39.74968306621452,353.16118324492703)"><text x="0" y="0" text-anchor="middle" dominant-baseline="text-before-edge" transform="translate(0,0)"/></g><g transform="translate(-44.75406154863675,338.65497515649787)"><text x="0" y="0" text-anchor="middle" dominant-baseline="text-before-edge" transform="translate(0,0)"/></g><g transform="translate(-49.520925432586125,350.6623587679785)"><text x="0" y="0" text-anchor="middle" dominant-baseline="text-before-edge" transform="translate(0,0)"/></g><g transform="translate(177.67467269509535,333.7614881864154)"><text x="0" y="0" text-anchor="middle" dominant-baseline="text-before-edge" transform="translate(0,0)"/></g><g transform="translate(13.955497014364507,299.234348003876)"><text x="0" y="0" text-anchor="middle" dominant-baseline="text-before-edge" transform="translate(0,0)"/></g><g transform="translate(-17.04614453670572,290.8268165854147)"><text x="0" y="0" text-anchor="middle" dominant-baseline="text-before-edge" transform="translate(0,0)"/></g><g transform="translate(-22.20587236210503,388.49693186021227)"><text x="0" y="0" text-anchor="middle" dominant-baseline="text-before-edge" transform="translate(0,0)"/></g><g transform="translate(-44.91367818616575,362.0120209782597)"><text x="0" y="0" text-anchor="middle" dominant-baseline="text-before-edge" transform="translate(0,0)"/></g><g transform="translate(-3.7915980093155737,352.9876603388488)"><text x="0" y="0" text-anchor="middle" dominant-baseline="text-before-edge" transform="translate(0,0)"/></g><g transform="translate(-12.253689391505958,359.5923177225592)"><text x="0" y="0" text-anchor="middle" dominant-baseline="text-before-edge" transform="translate(0,0)"/></g><g transform="translate(0.9760616043949198,367.8557212488997)"><text x="0" y="0" text-anchor="middle" dominant-baseline="text-before-edge" transform="translate(0,0)"/></g><g transform="translate(85.32463382415148,382.59482164153593)"><text x="0" y="0" text-anchor="middle" dominant-baseline="text-before-edge" transform="translate(0,0)"/></g><g transform="translate(-12.295694024202497,296.6872658778163)"><text x="0" y="0" text-anchor="middle" dominant-baseline="text-before-edge" transform="translate(0,0)"/></g><g transform="translate(-5.173111393507277,368.81708286425885)"><text x="0" y="0" text-anchor="middle" dominant-baseline="text-before-edge" transform="translate(0,0)"/></g><g transform="translate(4.762180257900832,362.9576229438586)"><text x="0" y="0" text-anchor="middle" dominant-baseline="text-before-edge" transform="translate(0,0)"/></g><g transform="translate(193.7367809646347,335.88974918174955)"><text x="0" y="0" text-anchor="middle" dominant-baseline="text-before-edge" transform="translate(0,0)"/></g><g transform="translate(0.18305445638626855,358.5843408434041)"><text x="0" y="0" text-anchor="middle" dominant-baseline="text-before-edge" transform="translate(0,0)"/></g><g transform="translate(-6.606480332338408,348.05870395571304)"><text x="0" y="0" text-anchor="middle" dominant-baseline="text-before-edge" transform="translate(0,0)"/></g><g transform="translate(-9.07049212987526,364.9050759390323)"><text x="0" y="0" text-anchor="middle" dominant-baseline="text-before-edge" transform="translate(0,0)"/></g><g transform="translate(23.857769847417572,372.3520847187701)"><text x="0" y="0" text-anchor="middle" dominant-baseline="text-before-edge" transform="translate(0,0)"/></g><g transform="translate(-14.296517363887144,336.7753505421415)"><text x="0" y="0" text-anchor="middle" dominant-baseline="text-before-edge" transform="translate(0,0)"/></g><g transform="translate(52.507410868254254,303.2216281161532)"><text x="0" y="0" text-anchor="middle" dominant-baseline="text-before-edge" transform="translate(0,0)"/></g><g transform="translate(-29.8928174136463,366.4699527818905)"><text x="0" y="0" text-anchor="middle" dominant-baseline="text-before-edge" transform="translate(0,0)"/></g><g transform="translate(106.04184378487068,364.63137056459004)"><text x="0" y="0" text-anchor="middle" dominant-baseline="text-before-edge" transform="translate(0,0)"/></g><g transform="translate(16.10015077900045,357.6251251842748)"><text x="0" y="0" text-anchor="middle" dominant-baseline="text-before-edge" transform="translate(0,0)"/></g><g transform="translate(-6.11365172820335,358.10839510012244)"><text x="0" y="0" text-anchor="middle" dominant-baseline="text-before-edge" transform="translate(0,0)"/></g><g transform="translate(-29.49536224206582,344.4551630914221)"><text x="0" y="0" text-anchor="middle" dominant-baseline="text-before-edge" transform="translate(0,0)"/></g><g transform="translate(308.45783607200144,335.87002652658464)"><text x="0" y="0" text-anchor="middle" dominant-baseline="text-before-edge" transform="translate(0,0)"/></g><g transform="translate(22.556690889993792,363.60434126377396)"><text x="0" y="0" text-anchor="middle" dominant-baseline="text-before-edge" transform="translate(0,0)"/></g><g transform="translate(337.67528742874686,355.0746031361428)"><text x="0" y="0" text-anchor="middle" dominant-baseline="text-before-edge" transform="translate(0,0)"/></g><g transform="translate(480.25,345)"><text x="0" y="0" text-anchor="middle" dominant-baseline="text-before-edge" transform="translate(0,0)"/></g><g transform="translate(-2.4602832365367937,374.3800067192248)"><text x="0" y="0" text-anchor="middle" dominant-baseline="text-before-edge" transform="translate(0,0)"/></g><g transform="translate(4.664447210209295,311.3062647239257)"><text x="0" y="0" text-anchor="middle" dominant-baseline="text-before-edge" transform="translate(0,0)"/></g><g transform="translate(576.3,345)"><text x="0" y="0" text-anchor="middle" dominant-baseline="text-before-edge" transform="translate(0,0)"/></g><g transform="translate(0.17539837197168628,294.5092936370752)"><text x="0" y="0" text-anchor="middle" dominant-baseline="text-before-edge" transform="translate(0,0)"/></g><g transform="translate(31.09652385076342,349.4494044410453)"><text x="0" y="0" text-anchor="middle" dominant-baseline="text-before-edge" transform="translate(0,0)"/></g><g transform="translate(42.874785018497384,334.7733725464557)"><text x="0" y="0" text-anchor="middle" dominant-baseline="text-before-edge" transform="translate(0,0)"/></g><g transform="translate(-6.563739520920977,291.76276963304434)"><text x="0" y="0" text-anchor="middle" dominant-baseline="text-before-edge" transform="translate(0,0)"/></g><g transform="translate(-37.26897539042662,315.59357860944453)"><text x="0" y="0" text-anchor="middle" dominant-baseline="text-before-edge" transform="translate(0,0)"/></g><g transform="translate(130.68738625262043,330.6251550400289)"><text x="0" y="0" text-anchor="middle" dominant-baseline="text-before-edge" transform="translate(0,0)"/></g><g transform="translate(-33.002267412783326,338.4157182490946)"><text x="0" y="0" text-anchor="middle" dominant-baseline="text-before-edge" transform="translate(0,0)"/></g><g transform="translate(149.253995966153,372.62537517448874)"><text x="0" y="0" text-anchor="middle" dominant-baseline="text-before-edge" transform="translate(0,0)"/></g><g transform="translate(7.6713416986326814,356.3977423920654)"><text x="0" y="0" text-anchor="middle" dominant-baseline="text-before-edge" transform="translate(0,0)"/></g><g transform="translate(-33.913589109020144,326.73390332467255)"><text x="0" y="0" text-anchor="middle" dominant-baseline="text-before-edge" transform="translate(0,0)"/></g><g transform="translate(-24.185037291902105,355.3618145186964)"><text x="0" y="0" text-anchor="middle" dominant-baseline="text-before-edge" transform="translate(0,0)"/></g><g transform="translate(145.9049636155955,331.43612866966816)"><text x="0" y="0" text-anchor="middle" dominant-baseline="text-before-edge" transform="translate(0,0)"/></g><g transform="translate(13.594020199548162,324.8305193176563)"><text x="0" y="0" text-anchor="middle" dominant-baseline="text-before-edge" transform="translate(0,0)"/></g><g transform="translate(-32.8247100179719,360.881676462195)"><text x="0" y="0" text-anchor="middle" dominant-baseline="text-before-edge" transform="translate(0,0)"/></g><g transform="translate(-3.0742083990997875,321.96362344866463)"><text x="0" y="0" text-anchor="middle" dominant-baseline="text-before-edge" transform="translate(0,0)"/></g><g transform="translate(-22.98333144749154,365.3867678753785)"><text x="0" y="0" text-anchor="middle" dominant-baseline="text-before-edge" transform="translate(0,0)"/></g><g transform="translate(-28.40057199519887,350.63330609954494)"><text x="0" y="0" text-anchor="middle" dominant-baseline="text-before-edge" transform="translate(0,0)"/></g><g transform="translate(38.6213109786873,371.9391670264532)"><text x="0" y="0" text-anchor="middle" dominant-baseline="text-before-edge" transform="translate(0,0)"/></g><g transform="translate(28.817955494992223,308.716112123606)"><text x="0" y="0" text-anchor="middle" dominant-baseline="text-before-edge" transform="translate(0,0)"/></g><g transform="translate(81.96043323803866,335.34395506213707)"><text x="0" y="0" text-anchor="middle" dominant-baseline="text-before-edge" transform="translate(0,0)"/></g><g transform="translate(82.93472261162624,353.1611556471556)"><text x="0" y="0" text-anchor="middle" dominant-baseline="text-before-edge" transform="translate(0,0)"/></g><g transform="translate(44.157480568044164,319.7294175347904)"><text x="0" y="0" text-anchor="middle" dominant-baseline="text-before-edge" transform="translate(0,0)"/></g><g transform="translate(-7.613069338683209,302.62480931657177)"><text x="0" y="0" text-anchor="middle" dominant-baseline="text-before-edge" transform="translate(0,0)"/></g><g transform="translate(227.9706864630505,338.06387254219015)"><text x="0" y="0" text-anchor="middle" dominant-baseline="text-before-edge" transform="translate(0,0)"/></g><g transform="translate(-0.1679162986154517,346.5970198913879)"><text x="0" y="0" text-anchor="middle" dominant-baseline="text-before-edge" transform="translate(0,0)"/></g><g transform="translate(71.22677894535335,329.3551573700707)"><text x="0" y="0" text-anchor="middle" dominant-baseline="text-before-edge" transform="translate(0,0)"/></g><g transform="translate(28.192959017201165,318.54790604635303)"><text x="0" y="0" text-anchor="middle" dominant-baseline="text-before-edge" transform="translate(0,0)"/></g><g transform="translate(7.116804654493436,297.7665826494178)"><text x="0" y="0" text-anchor="middle" dominant-baseline="text-before-edge" transform="translate(0,0)"/></g><g transform="translate(10.037866717962297,369.9963771692715)"><text x="0" y="0" text-anchor="middle" dominant-baseline="text-before-edge" transform="translate(0,0)"/></g><g transform="translate(184.40716780731765,349.34530209595266)"><text x="0" y="0" text-anchor="middle" dominant-baseline="text-before-edge" transform="translate(0,0)"/></g><g transform="translate(-23.015166389753958,347.32345229397646)"><text x="0" y="0" text-anchor="middle" dominant-baseline="text-before-edge" transform="translate(0,0)"/></g><g transform="translate(47.90529538188712,358.0921140473377)"><text x="0" y="0" text-anchor="middle" dominant-baseline="text-before-edge" transform="translate(0,0)"/></g><g transform="translate(-39.16246434671993,348.4064969436989)"><text x="0" y="0" text-anchor="middle" dominant-baseline="text-before-edge" transform="translate(0,0)"/></g><g transform="translate(-0.9489063550516371,385.1408954163906)"><text x="0" y="0" text-anchor="middle" dominant-baseline="text-before-edge" transform="translate(0,0)"/></g><g transform="translate(-20.75653335794304,376.8859591390811)"><text x="0" y="0" text-anchor="middle" dominant-baseline="text-before-edge" transform="translate(0,0)"/></g><g transform="translate(122.56642463735372,318.38758470028887)"><text x="0" y="0" text-anchor="middle" dominant-baseline="text-before-edge" transform="translate(0,0)"/></g><g transform="translate(3.681151478485492,303.8654578120148)"><text x="0" y="0" text-anchor="middle" dominant-baseline="text-before-edge" transform="translate(0,0)"/></g><g transform="translate(-25.79523553356998,331.1647226117351)"><text x="0" y="0" text-anchor="middle" dominant-baseline="text-before-edge" transform="translate(0,0)"/></g><g transform="translate(15.79015881178198,344.69192949069696)"><text x="0" y="0" text-anchor="middle" dominant-baseline="text-before-edge" transform="translate(0,0)"/></g><g transform="translate(-20.65830436626808,335.3124505346546)"><text x="0" y="0" text-anchor="middle" dominant-baseline="text-before-edge" transform="translate(0,0)"/></g><g transform="translate(-8.727664623726247,336.4724408617975)"><text x="0" y="0" text-anchor="middle" dominant-baseline="text-before-edge" transform="translate(0,0)"/></g><g transform="translate(45.028947444559435,309.9204602334391)"><text x="0" y="0" text-anchor="middle" dominant-baseline="text-before-edge" transform="translate(0,0)"/></g></g></g></g></g><g id="legend" transform="translate(1280,10)"><g transform="translate(5,0)"><g class="legendSize" transform="translate(0,0)"><g class="legendCells" transform="translate(15,15.949999809265137)"><g class="cell" transform="translate(0, 2.5)"><circle class="swatch" r="2.5" fill="none" stroke="#ccc"/><text class="label" transform="translate( 20,&#xA;          5)" font-family="&quot;Arial&quot;, sans-serif" font-size="10px"><tspan x="0" dy="0em">1.0</tspan></text></g><g class="cell" transform="translate(0, 33.44999980926514)"><circle class="swatch" r="15" fill="none" stroke="#ccc"/><text class="label" transform="translate( 20,&#xA;          5)" font-family="&quot;Arial&quot;, sans-serif" font-size="10px"><tspan x="0" dy="0em">377.0</tspan></text></g></g><text class="legendTitle" font-family="&quot;Arial&quot;, sans-serif" font-size="12px" font-weight="bold"><tspan x="0" dy="0em">value</tspan></text></g><g class="legendColor" transform="translate(0,97.05000305175781)"><g class="legendCells" transform="translate(0,15.949999809265137)"><g class="cell" transform="translate(0, 0)"><rect class="swatch" height="15" width="15" style="fill: rgb(31, 119, 180);"/><text class="label" transform="translate( 20, 12.5)" font-family="&quot;Arial&quot;, sans-serif" font-size="10px"><tspan x="0" dy="0em">Asian</tspan></text></g><g class="cell" transform="translate(0, 20.949999809265137)"><rect class="swatch" height="15" width="15" style="fill: rgb(255, 127, 14);"/><text class="label" transform="translate( 20, 12.5)" font-family="&quot;Arial&quot;, sans-serif" font-size="10px"><tspan x="0" dy="0em">Black</tspan></text></g><g class="cell" transform="translate(0, 41.89999961853027)"><rect class="swatch" height="15" width="15" style="fill: rgb(44, 160, 44);"/><text class="label" transform="translate( 20, 12.5)" font-family="&quot;Arial&quot;, sans-serif" font-size="10px"><tspan x="0" dy="0em">Hispanic</tspan></text></g><g class="cell" transform="translate(0, 62.84999942779541)"><rect class="swatch" height="15" width="15" style="fill: rgb(214, 39, 40);"/><text class="label" transform="translate( 20, 12.5)" font-family="&quot;Arial&quot;, sans-serif" font-size="10px"><tspan x="0" dy="0em">Native</tspan></text></g><g class="cell" transform="translate(0, 83.79999923706055)"><rect class="swatch" height="15" width="15" style="fill: rgb(148, 103, 189);"/><text class="label" transform="translate( 20, 12.5)" font-family="&quot;Arial&quot;, sans-serif" font-size="10px"><tspan x="0" dy="0em">Other</tspan></text></g><g class="cell" transform="translate(0, 104.74999904632568)"><rect class="swatch" height="15" width="15" style="fill: rgb(140, 86, 75);"/><text class="label" transform="translate( 20, 12.5)" font-family="&quot;Arial&quot;, sans-serif" font-size="10px"><tspan x="0" dy="0em">White</tspan></text></g></g><text class="legendTitle" font-family="&quot;Arial&quot;, sans-serif" font-size="12px" font-weight="bold"><tspan x="0" dy="0em">column</tspan></text></g></g></g></svg>