<svg xmlns="http://www.w3.org/2000/svg" width="1480" height="720"><rect width="1480" height="720" x="0" y="0" fill="#FFFFFF" id="backgorund"/><g id="viz"><g transform="translate(0,0)"><g transform="translate(50,20)"><g><path fill="#1f77b4" d="M0,678.1504C9.938568376068377,673.5404569863015,19.87713675213675,668.9305139726029,29.815705128205128,667.7176000000001C39.727118945868945,666.508,49.638532763532766,667.1128,59.54994658119658,665.9032C69.46136039886039,664.6936,79.37277421652422,657.6336,89.28418803418803,657.6336C99.19560185185185,657.6336,109.10701566951568,675.6136,119.01842948717949,675.6136C128.95699786324786,675.6136,138.89556623931622,674.1312,148.8341346153846,674.1312C158.74554843304844,674.1312,168.65696225071224,678.096,178.56837606837607,678.096C188.4797898860399,678.096,198.3912037037037,669.4250666666666,208.30261752136752,667.6976C218.21403133903135,665.9701333333334,228.12544515669515,666.8338666666666,238.03685897435898,665.1064C247.97542735042734,663.3742005479453,257.9139957264957,649.2632,267.8525641025641,649.2632C277.7639779202279,649.2632,287.67539173789174,671.4792,297.58680555555554,671.4792C307.49821937321934,671.4792,317.4096331908832,666.2317333333333,327.321047008547,655.7368C337.2324608262108,645.2418666666667,347.14387464387465,592.2511999999999,357.05528846153845,592.2511999999999C366.9938568376068,592.2511999999999,376.93242521367523,672.0132449315068,386.8709935897436,673.9C396.7824074074074,675.7816,406.69382122507125,676.7224,416.60523504273505,676.7224C426.51551742046536,676.7224,436.4257997981956,660.3696172298326,446.3360821759259,658.1848C456.2474959935897,655.9997333333333,466.1589098112536,657.0922666666667,476.0703236289174,654.9072C486.00889200498574,652.716146849315,495.94746038105416,630.8824,505.8860287571225,630.8824C515.7985740147199,630.8824,525.7111192723172,645.7799470929072,535.6236645299145,650.4336000000001C545.5350783475784,655.0867217288135,555.4464921652421,658.8040000000001,565.357905982906,658.8040000000001C575.2693198005699,658.8040000000001,585.1807336182336,582.2977326047359,595.0921474358975,571.7368C605.0307158119658,561.1469333333333,614.9692841880343,566.4418666666667,624.9078525641027,555.852C634.8192663817664,545.2910673952641,644.7306801994303,483.8728,654.642094017094,483.8728C664.5535078347579,483.8728,674.4649216524217,657.0024000000001,684.3763354700856,657.0024000000001C694.2877492877493,657.0024000000001,704.1991631054132,177.40400000000005,714.1105769230769,177.40400000000005C724.0491452991453,177.40400000000005,733.9877136752137,623.5256,743.9262820512821,623.5256C753.8376958689458,623.5256,763.7491096866097,417.4096,773.6605235042734,417.4096C783.5719373219373,417.4096,793.4833511396012,594.4117333333332,803.394764957265,600.0512C813.3061787749288,605.6906666666666,823.2175925925926,602.8709333333334,833.1290064102564,608.5104C843.0675747863247,614.165317260274,853.0061431623931,646.545992328767,862.9447115384614,652.9416C872.8561253561253,659.3197333333334,882.7675391737891,662.5088000000001,892.678952991453,662.5088000000001C902.5903668091167,662.5088000000001,912.5017806267806,643.6320000000001,922.4131944444443,643.6320000000001C932.3246082621082,643.6320000000001,942.236022079772,674.3960000000001,952.1474358974359,674.3960000000001C962.0860042735043,674.3960000000001,972.0245726495726,671.8928,981.963141025641,671.8928C991.8745548433048,671.8928,1001.7859686609687,674.2479999999999,1011.6973824786326,675.5992C1021.6087962962963,676.9504,1031.52021011396,680,1041.4316239316238,680C1051.3430377492878,680,1061.2544515669515,679.045060837887,1071.1658653846155,678.9456C1081.1044337606838,678.8458666666667,1091.0430021367522,678.796,1100.9815705128206,678.796C1110.8929843304843,678.796,1120.8043981481483,680,1130.715811965812,680C1140.6272257834758,680,1150.5386396011397,679.9614666666666,1160.4500534188035,679.9456C1170.3614672364672,679.9297333333334,1180.2728810541312,679.9048,1190.184294871795,679.9048C1200.1228632478633,679.9048,1210.0614316239316,679.9524,1220,680L1220,680C1210.0614316239316,680,1200.1228632478633,680,1190.184294871795,680C1180.2728810541312,680,1170.3614672364672,680,1160.4500534188035,680C1150.5386396011397,680,1140.6272257834758,680,1130.715811965812,680C1120.8043981481483,680,1110.8929843304843,678.9592,1100.9815705128206,678.9592C1091.0430021367522,678.9592,1081.1044337606838,678.9728,1071.1658653846155,679C1061.2544515669515,679.0271256830601,1051.3430377492878,680,1041.4316239316238,680C1031.52021011396,680,1021.6087962962963,677.2269333333334,1011.6973824786326,676.0616C1001.7859686609687,674.8962666666666,991.8745548433048,673.008,981.963141025641,673.008C972.0245726495726,673.008,962.0860042735043,675.7832,952.1474358974359,675.7832C942.236022079772,675.7832,932.3246082621082,657.844,922.4131944444443,657.844C912.5017806267806,657.844,902.5903668091167,666.4664,892.678952991453,666.4664C882.7675391737891,666.4664,872.8561253561253,665.0362666666666,862.9447115384614,662.1759999999999C853.0061431623931,659.3078969863012,843.0675747863247,647.1670698693852,833.1290064102564,641.164C823.2175925925926,635.1773319608591,813.3061787749288,636.1727999999999,803.394764957265,626.1904C793.4833511396012,616.2079999999999,783.5719373219373,492.5496,773.6605235042734,492.5496C763.7491096866097,492.5496,753.8376958689458,654.8328,743.9262820512821,654.8328C733.9877136752137,654.8328,724.0491452991453,317.3072000000001,714.1105769230769,317.3072000000001C704.1991631054132,317.3072000000001,694.2877492877493,680,684.3763354700856,680C674.4649216524217,680,664.5535078347579,550.2816,654.642094017094,550.2816C644.7306801994303,550.2816,634.8192663817664,609.6946972677596,624.9078525641027,619.7312C614.9692841880343,629.7951999999999,605.0307158119658,626.4130102070723,595.0921474358975,634.8272C585.1807336182336,643.2184002033295,575.2693198005699,663.4866666666667,565.357905982906,670.092C555.4464921652421,676.6973333333333,545.5350783475784,680,535.6236645299145,680C525.7111192723172,680,515.7985740147199,647.6784,505.8860287571225,647.6784C495.94746038105416,647.6784,486.00889200498574,665.4271539726028,476.0703236289174,666.1272C466.1589098112536,666.8253333333333,456.2474959935897,666.4762666666667,446.3360821759259,667.1744C436.4257997981956,667.8724536377473,426.51551742046536,680,416.60523504273505,680C406.69382122507125,680,396.7824074074074,679.1090666666666,386.8709935897436,677.3272C376.93242521367523,675.5404515068492,366.9938568376068,623.7624,357.05528846153845,623.7624C347.14387464387465,623.7624,337.2324608262108,658.0847999999999,327.321047008547,665.4336C317.4096331908832,672.7824,307.49821937321934,676.4568,297.58680555555554,676.4568C287.67539173789174,676.4568,277.7639779202279,662.428,267.8525641025641,662.428C257.9139957264957,662.428,247.97542735042734,667.5102432941676,238.03685897435898,668.9688C228.12544515669515,670.4233715782208,218.21403133903135,669.7056,208.30261752136752,671.1792C198.3912037037037,672.6528000000001,188.4797898860399,680,178.56837606837607,680C168.65696225071224,680,158.74554843304844,676.5792,148.8341346153846,676.5792C138.89556623931622,676.5792,128.95699786324786,678.2248,119.01842948717949,678.2248C109.10701566951568,678.2248,99.19560185185185,666.5008,89.28418803418803,666.5008C79.37277421652422,666.5008,69.46136039886039,678.1976000000001,59.54994658119658,678.1976000000001C49.638532763532766,678.1976000000001,39.727118945868945,671.852,29.815705128205128,671.852C19.87713675213675,671.852,9.938568376068377,675.9259999999999,0,680Z"><title>Iowa</title></path><path fill="#ff7f0e" d="M0,648.6232C9.938568376068377,660.7375999999999,19.87713675213675,672.852,29.815705128205128,672.852C39.727118945868945,672.852,49.638532763532766,653.9790666666667,59.54994658119658,644.8568C69.46136039886039,635.7345333333334,79.37277421652422,618.1184000000001,89.28418803418803,618.1184000000001C99.19560185185185,618.1184000000001,109.10701566951568,661.1624,119.01842948717949,661.1624C128.95699786324786,661.1624,138.89556623931622,645.8352,148.8341346153846,645.8352C158.74554843304844,645.8352,168.65696225071224,664.8688000000001,178.56837606837607,664.8688000000001C188.4797898860399,664.8688000000001,198.3912037037037,663.216,208.30261752136752,663.216C218.21403133903135,663.216,228.12544515669515,676.7016,238.03685897435898,676.7016C247.97542735042734,676.7016,257.9139957264957,631.7936,267.8525641025641,631.7936C277.7639779202279,631.7936,287.67539173789174,665.3656,297.58680555555554,665.3656C307.49821937321934,665.3656,317.4096331908832,630.6557333333334,327.321047008547,628.2984C337.2324608262108,625.9410666666666,347.14387464387465,624.7624,357.05528846153845,624.7624C366.9938568376068,624.7624,376.93242521367523,633.3762121989643,386.8709935897436,641.2112C396.7824074074074,649.024780730541,406.69382122507125,671.6696,416.60523504273505,671.6696C426.51551742046536,671.6696,436.4257997981956,670.5045333333333,446.3360821759259,668.1744C456.2474959935897,665.8440006393424,466.1589098112536,614.2152000000001,476.0703236289174,614.2152000000001C486.00889200498574,614.2152000000001,495.94746038105416,648.6784,505.8860287571225,648.6784C515.7985740147199,648.6784,525.7111192723172,412.4048,535.6236645299145,412.4048C545.5350783475784,412.4048,555.4464921652421,619.4312,565.357905982906,619.4312C575.2693198005699,619.4312,585.1807336182336,540.4891190409625,595.0921474358975,503.34880000000004C605.0307158119658,466.10672666029524,614.9692841880343,396.30960000000005,624.9078525641027,396.30960000000005C634.8192663817664,396.30960000000005,644.7306801994303,636.4456,654.642094017094,636.4456C664.5535078347579,636.4456,674.4649216524217,634.2514666666667,684.3763354700856,629.8632C694.2877492877493,625.4749333333334,704.1991631054132,318.3072000000001,714.1105769230769,318.3072000000001C724.0491452991453,318.3072000000001,733.9877136752137,382.9738237505386,743.9262820512821,433.26720000000006C753.8376958689458,483.4231626531512,763.7491096866097,614.3050666666668,773.6605235042734,619.4592C783.5719373219373,624.6133333333333,793.4833511396012,622.0362666666666,803.394764957265,627.1904C813.3061787749288,632.3445333333332,823.2175925925926,653.6364734398321,833.1290064102564,662.0952C843.0675747863247,670.5771011534833,853.0061431623931,677.469058630137,862.9447115384614,677.96C872.8561253561253,678.4496,882.7675391737891,678.6944,892.678952991453,678.6944C902.5903668091167,678.6944,912.5017806267806,669.1016000000001,922.4131944444443,668.956C932.3246082621082,668.8104,942.236022079772,668.7375999999999,952.1474358974359,668.7375999999999C962.0860042735043,668.7375999999999,972.0245726495726,679.6736,981.963141025641,679.6736C991.8745548433048,679.6736,1001.7859686609687,678.7576,1011.6973824786326,678.4424C1021.6087962962963,678.1272,1031.52021011396,677.7824,1041.4316239316238,677.7824C1051.3430377492878,677.7824,1061.2544515669515,677.8096,1071.1658653846155,677.864C1081.1044337606838,677.918549041096,1091.0430021367522,679.9592,1100.9815705128206,679.9592C1110.8929843304843,679.9592,1120.8043981481483,678.9592,1130.715811965812,678.9592C1140.6272257834758,678.9592,1150.5386396011397,680,1160.4500534188035,680C1170.3614672364672,680,1180.2728810541312,680,1190.184294871795,680C1200.1228632478633,680,1210.0614316239316,679.5,1220,679L1220,679C1210.0614316239316,679.5,1200.1228632478633,680,1190.184294871795,680C1180.2728810541312,680,1170.3614672364672,680,1160.4500534188035,680C1150.5386396011397,680,1140.6272257834758,679,1130.715811965812,679C1120.8043981481483,679,1110.8929843304843,680,1100.9815705128206,680C1091.0430021367522,680,1081.1044337606838,677.972874520548,1071.1658653846155,677.9456C1061.2544515669515,677.9184,1051.3430377492878,677.9048,1041.4316239316238,677.9048C1031.52021011396,677.9048,1021.6087962962963,678.3788000000001,1011.6973824786326,678.7280000000001C1001.7859686609687,679.0772000000001,991.8745548433048,680,981.963141025641,680C972.0245726495726,680,962.0860042735043,670.9680000000001,952.1474358974359,670.9680000000001C942.236022079772,670.9680000000001,932.3246082621082,673.0402666666668,922.4131944444443,674.5456C912.5017806267806,676.0509333333333,902.5903668091167,680,892.678952991453,680C882.7675391737891,680,872.8561253561253,680,862.9447115384614,680C853.0061431623931,680,843.0675747863247,675.6165435576461,833.1290064102564,670.636C823.2175925925926,665.6690644848611,813.3061787749288,650.6365333333333,803.394764957265,650.188C793.4833511396012,649.7394666666667,783.5719373219373,649.9637333333333,773.6605235042734,649.5151999999999C763.7491096866097,649.0666666666666,753.8376958689458,564.8436596074445,743.9262820512821,532.7784C733.9877136752137,500.6252903662337,724.0491452991453,456.9728,714.1105769230769,456.9728C704.1991631054132,456.9728,694.2877492877493,651.1880000000001,684.3763354700856,656.0024000000001C674.4649216524217,660.8168000000001,664.5535078347579,663.224,654.642094017094,663.224C644.7306801994303,663.224,634.8192663817664,483.88,624.9078525641027,483.88C614.9692841880343,483.88,605.0307158119658,544.098321826484,595.0921474358975,570.7368C585.1807336182336,597.3024954462659,575.2693198005699,643.5304,565.357905982906,643.5304C555.4464921652421,643.5304,545.5350783475784,503.26640000000003,535.6236645299145,503.26640000000003C525.7111192723172,503.26640000000003,515.7985740147199,661.5712,505.8860287571225,661.5712C495.94746038105416,661.5712,486.00889200498574,639.824,476.0703236289174,639.824C466.1589098112536,639.824,456.2474959935897,675.3597167713208,446.3360821759259,675.5047999999999C436.4257997981956,675.6498666666666,426.51551742046536,675.7224,416.60523504273505,675.7224C406.69382122507125,675.7224,396.7824074074074,660.0400714155074,386.8709935897436,653.9952000000001C376.93242521367523,647.9337672929433,366.9938568376068,639.4232000000001,357.05528846153845,639.4232000000001C347.14387464387465,639.4232000000001,337.2324608262108,649.5608,327.321047008547,654.7368C317.4096331908832,659.9128000000001,307.49821937321934,670.4792,297.58680555555554,670.4792C287.67539173789174,670.4792,277.7639779202279,648.2632,267.8525641025641,648.2632C257.9139957264957,648.2632,247.97542735042734,678.2248,238.03685897435898,678.2248C228.12544515669515,678.2248,218.21403133903135,666.6976,208.30261752136752,666.6976C198.3912037037037,666.6976,188.4797898860399,669.7239999999999,178.56837606837607,669.7239999999999C168.65696225071224,669.7239999999999,158.74554843304844,661.8152,148.8341346153846,661.8152C138.89556623931622,661.8152,128.95699786324786,666.8335999999999,119.01842948717949,666.8335999999999C109.10701566951568,666.8335999999999,99.19560185185185,656.6336,89.28418803418803,656.6336C79.37277421652422,656.6336,69.46136039886039,661.9281333333333,59.54994658119658,664.9032C49.638532763532766,667.8782666666666,39.727118945868945,674.4839999999999,29.815705128205128,674.4839999999999C19.87713675213675,674.4839999999999,9.938568376068377,666.8439999999999,0,659.204Z"><title>Minnesota</title></path><path fill="#2ca02c" d="M0,669.9624C9.938568376068377,673.7604,19.87713675213675,677.5584,29.815705128205128,677.5584C39.727118945868945,677.5584,49.638532763532766,587.2736,59.54994658119658,587.2736C69.46136039886039,587.2736,79.37277421652422,674.1312,89.28418803418803,674.1312C99.19560185185185,674.1312,109.10701566951568,667.8335999999999,119.01842948717949,667.8335999999999C128.95699786324786,667.8335999999999,138.89556623931622,677.5792,148.8341346153846,677.5792C158.74554843304844,677.5792,168.65696225071224,675.0832,178.56837606837607,675.0832C188.4797898860399,675.0832,198.3912037037037,678.7488000000001,208.30261752136752,678.7488000000001C218.21403133903135,678.7488000000001,228.12544515669515,677.0394666666667,238.03685897435898,673.6208C247.97542735042734,670.1927671232877,257.9139957264957,608.9248,267.8525641025641,608.9248C277.7639779202279,608.9248,287.67539173789174,636.6526666666667,297.58680555555554,647.4672C307.49821937321934,658.2817333333334,317.4096331908832,673.812,327.321047008547,673.812C337.2324608262108,673.812,347.14387464387465,640.4232000000001,357.05528846153845,640.4232000000001C366.9938568376068,640.4232000000001,376.93242521367523,678.3272,386.8709935897436,678.3272C396.7824074074074,678.3272,406.69382122507125,648.877044776801,416.60523504273505,646.7328C426.51551742046536,644.5888,436.4257997981956,643.5168,446.3360821759259,643.5168C456.2474959935897,643.5168,466.1589098112536,667.1272,476.0703236289174,667.1272C486.00889200498574,667.1272,495.94746038105416,665.6085333333333,505.8860287571225,662.5712C515.7985740147199,659.5418196114147,525.7111192723172,504.26640000000003,535.6236645299145,504.26640000000003C545.5350783475784,504.26640000000003,555.4464921652421,590.3336,565.357905982906,590.3336C575.2693198005699,590.3336,585.1807336182336,428.0384,595.0921474358975,428.0384C605.0307158119658,428.0384,614.9692841880343,464.3069251608792,624.9078525641027,484.88C634.8192663817664,505.3968642521286,644.7306801994303,547.9813333333334,654.642094017094,551.2816C664.5535078347579,554.5818666666667,674.4649216524217,556.232,684.3763354700856,556.232C694.2877492877493,556.232,704.1991631054132,0.25680000000002945,714.1105769230769,0.25680000000002945C724.0491452991453,0.25680000000002945,733.9877136752137,655.8328,743.9262820512821,655.8328C753.8376958689458,655.8328,763.7491096866097,493.5496,773.6605235042734,493.5496C783.5719373219373,493.5496,793.4833511396012,547.2453333333333,803.394764957265,572.0144C813.3061787749288,596.7834666666665,823.2175925925926,628.1942732240437,833.1290064102564,642.164C843.0675747863247,656.1719999999999,853.0061431623931,660.3078969863012,862.9447115384614,663.1759999999999C872.8561253561253,666.0362666666666,882.7675391737891,667.4664,892.678952991453,667.4664C902.5903668091167,667.4664,912.5017806267806,658.844,922.4131944444443,658.844C932.3246082621082,658.844,942.236022079772,668.7752643408362,952.1474358974359,671.9680000000001C962.0860042735043,675.1694828801479,972.0245726495726,678.0072,981.963141025641,678.0072C991.8745548433048,678.0072,1001.7859686609687,673.8512,1011.6973824786326,673.8512C1021.6087962962963,673.8512,1031.52021011396,678.1746666666667,1041.4316239316238,678.9048C1051.3430377492878,679.6349333333334,1061.2544515669515,680,1071.1658653846155,680C1081.1044337606838,680,1091.0430021367522,677.4152,1100.9815705128206,677.4152C1110.8929843304843,677.4152,1120.8043981481483,678.5692,1130.715811965812,679C1140.6272257834758,679.4308,1150.5386396011397,680,1160.4500534188035,680C1170.3614672364672,680,1180.2728810541312,680,1190.184294871795,680C1200.1228632478633,680,1210.0614316239316,679,1220,678L1220,678C1210.0614316239316,679,1200.1228632478633,680,1190.184294871795,680C1180.2728810541312,680,1170.3614672364672,680,1160.4500534188035,680C1150.5386396011397,680,1140.6272257834758,679.3673333333334,1130.715811965812,679C1120.8043981481483,678.6326666666666,1110.8929843304843,677.796,1100.9815705128206,677.796C1091.0430021367522,677.796,1081.1044337606838,680,1071.1658653846155,680C1061.2544515669515,680,1051.3430377492878,679.6666666666666,1041.4316239316238,679C1031.52021011396,678.3333333333334,1021.6087962962963,674.5992,1011.6973824786326,674.5992C1001.7859686609687,674.5992,991.8745548433048,678.6736,981.963141025641,678.6736C972.0245726495726,678.6736,962.0860042735043,675.1847911099452,952.1474358974359,673.3960000000001C942.236022079772,671.6120962974592,932.3246082621082,667.956,922.4131944444443,667.956C912.5017806267806,667.956,902.5903668091167,670.8664,892.678952991453,670.8664C882.7675391737891,670.8664,872.8561253561253,670.7690666666666,862.9447115384614,670.5744C853.0061431623931,670.3792,843.0675747863247,667.4146666666667,833.1290064102564,661.0952C823.2175925925926,654.7929996357012,813.3061787749288,614.6606666666667,803.394764957265,599.0512C793.4833511396012,583.4417333333332,783.5719373219373,567.4384,773.6605235042734,567.4384C763.7491096866097,567.4384,753.8376958689458,680,743.9262820512821,680C733.9877136752137,680,724.0491452991453,176.40400000000005,714.1105769230769,176.40400000000005C704.1991631054132,176.40400000000005,694.2877492877493,601.1256,684.3763354700856,601.1256C674.4649216524217,601.1256,664.5535078347579,599.4936,654.642094017094,596.2296C644.7306801994303,592.9656000000001,634.8192663817664,570.4723875291227,624.9078525641027,554.852C614.9692841880343,539.1888168886056,605.0307158119658,502.34880000000004,595.0921474358975,502.34880000000004C585.1807336182336,502.34880000000004,575.2693198005699,618.4312,565.357905982906,618.4312C555.4464921652421,618.4312,545.5350783475784,560.2712,535.6236645299145,560.2712C525.7111192723172,560.2712,515.7985740147199,672.31855616272,505.8860287571225,674.308C495.94746038105416,676.3026666666667,486.00889200498574,677.3000000000001,476.0703236289174,677.3000000000001C466.1589098112536,677.3000000000001,456.2474959935897,657.1848,446.3360821759259,657.1848C436.4257997981956,657.1848,426.51551742046536,657.5178666666667,416.60523504273505,658.184C406.69382122507125,658.8502093846329,396.7824074074074,680,386.8709935897436,680C376.93242521367523,680,366.9938568376068,654.7576,357.05528846153845,654.7576C347.14387464387465,654.7576,337.2324608262108,680,327.321047008547,680C317.4096331908832,680,307.49821937321934,663.7330666666667,297.58680555555554,655.532C287.67539173789174,647.3309333333334,277.7639779202279,630.7936,267.8525641025641,630.7936C257.9139957264957,630.7936,247.97542735042734,672.8281490410959,238.03685897435898,675.7016C228.12544515669515,678.5672,218.21403133903135,680,208.30261752136752,680C198.3912037037037,680,188.4797898860399,677.096,178.56837606837607,677.096C168.65696225071224,677.096,158.74554843304844,680,148.8341346153846,680C138.89556623931622,680,128.95699786324786,670.7304,119.01842948717949,670.7304C109.10701566951568,670.7304,99.19560185185185,677.6944,89.28418803418803,677.6944C79.37277421652422,677.6944,69.46136039886039,615.4392,59.54994658119658,615.4392C49.638532763532766,615.4392,39.727118945868945,678.4152,29.815705128205128,678.4152C19.87713675213675,678.4152,9.938568376068377,676.0588,0,673.7024Z"><title>Nebraska</title></path><path fill="#d62728" d="M0,660.204C9.938568376068377,669.8096,19.87713675213675,679.4152,29.815705128205128,679.4152C39.727118945868945,679.4152,49.638532763532766,616.4392,59.54994658119658,616.4392C69.46136039886039,616.4392,79.37277421652422,664.6810666666667,89.28418803418803,667.5008C99.19560185185185,670.3205333333334,109.10701566951568,671.7304,119.01842948717949,671.7304C128.95699786324786,671.7304,138.89556623931622,665.3289846153077,148.8341346153846,662.8152C158.74554843304844,660.3082836486685,168.65696225071224,656.6608,178.56837606837607,656.6608C188.4797898860399,656.6608,198.3912037037037,675.5047999999999,208.30261752136752,675.5047999999999C218.21403133903135,675.5047999999999,228.12544515669515,671.9783964756216,238.03685897435898,669.9688C247.97542735042734,667.9536977806096,257.9139957264957,665.6707008176702,267.8525641025641,663.428C277.7639779202279,661.1914267801923,287.67539173789174,656.532,297.58680555555554,656.532C307.49821937321934,656.532,317.4096331908832,664.9599999999999,327.321047008547,666.4336C337.2324608262108,667.9072,347.14387464387465,668.644,357.05528846153845,668.644C366.9938568376068,668.644,376.93242521367523,666.0728,386.8709935897436,666.0728C396.7824074074074,666.0728,406.69382122507125,666.2269333333334,416.60523504273505,666.5352C426.51551742046536,666.843431476408,436.4257997981956,675.3081366210045,446.3360821759259,676.5047999999999C456.2474959935897,677.7016,466.1589098112536,678.3000000000001,476.0703236289174,678.3000000000001C486.00889200498574,678.3000000000001,495.94746038105416,677.3026666666667,505.8860287571225,675.308C515.7985740147199,673.31855616272,525.7111192723172,561.2712,535.6236645299145,561.2712C545.5350783475784,561.2712,555.4464921652421,644.5304,565.357905982906,644.5304C575.2693198005699,644.5304,585.1807336182336,220.5088,595.0921474358975,220.5088C605.0307158119658,220.5088,614.9692841880343,249.3816,624.9078525641027,307.12719999999996C634.8192663817664,364.7150251366116,644.7306801994303,593.9656000000001,654.642094017094,597.2296C664.5535078347579,600.4936,674.4649216524217,602.1256,684.3763354700856,602.1256C694.2877492877493,602.1256,704.1991631054132,457.9728,714.1105769230769,457.9728C724.0491452991453,457.9728,733.9877136752137,501.6252903662337,743.9262820512821,533.7784C753.8376958689458,565.8436596074445,763.7491096866097,639.8437333333333,773.6605235042734,650.5151999999999C783.5719373219373,661.1866666666667,793.4833511396012,663.1133333333335,803.394764957265,666.5224000000001C813.3061787749288,669.9314666666667,823.2175925925926,671.636,833.1290064102564,671.636C843.0675747863247,671.636,853.0061431623931,635.4176,862.9447115384614,635.4176C872.8561253561253,635.4176,882.7675391737891,669.4136,892.678952991453,671.8664C902.5903668091167,674.3192,912.5017806267806,674.36,922.4131944444443,675.5456C932.3246082621082,676.7312000000001,942.236022079772,678.98,952.1474358974359,678.98C962.0860042735043,678.98,972.0245726495726,676.0416,981.963141025641,676.0416C991.8745548433048,676.0416,1001.7859686609687,677.0616,1011.6973824786326,677.0616C1021.6087962962963,677.0616,1031.52021011396,676.592,1041.4316239316238,676.592C1051.3430377492878,676.592,1061.2544515669515,678.4321337290286,1071.1658653846155,679C1081.1044337606838,679.5694220689742,1091.0430021367522,680,1100.9815705128206,680C1110.8929843304843,680,1120.8043981481483,679,1130.715811965812,679C1140.6272257834758,679,1150.5386396011397,680,1160.4500534188035,680C1170.3614672364672,680,1180.2728810541312,680,1190.184294871795,680C1200.1228632478633,680,1210.0614316239316,678.5,1220,677L1220,677C1210.0614316239316,678.5,1200.1228632478633,680,1190.184294871795,680C1180.2728810541312,680,1170.3614672364672,680,1160.4500534188035,680C1150.5386396011397,680,1140.6272257834758,679,1130.715811965812,679C1120.8043981481483,679,1110.8929843304843,680,1100.9815705128206,680C1091.0430021367522,680,1081.1044337606838,679.537558265215,1071.1658653846155,679C1061.2544515669515,678.4639104732146,1051.3430377492878,676.7824,1041.4316239316238,676.7824C1031.52021011396,676.7824,1021.6087962962963,677.4424,1011.6973824786326,677.4424C1001.7859686609687,677.4424,991.8745548433048,677.0072,981.963141025641,677.0072C972.0245726495726,677.0072,962.0860042735043,680,952.1474358974359,680C942.236022079772,680,932.3246082621082,678.6669333333333,922.4131944444443,677.7896C912.5017806267806,676.9122666666666,902.5903668091167,676.7717333333333,892.678952991453,674.736C882.7675391737891,672.7002666666667,872.8561253561253,651.9416,862.9447115384614,651.9416C853.0061431623931,651.9416,843.0675747863247,680,833.1290064102564,680C823.2175925925926,680,813.3061787749288,680,803.394764957265,680C793.4833511396012,680,783.5719373219373,680,773.6605235042734,680C763.7491096866097,680,753.8376958689458,580.5896,743.9262820512821,580.5896C733.9877136752137,580.5896,724.0491452991453,586.0152422744848,714.1105769230769,594.0816C704.1991631054132,602.1259184967569,694.2877492877493,624.4749333333334,684.3763354700856,628.8632C674.4649216524217,633.2514666666667,664.5535078347579,635.4456,654.642094017094,635.4456C644.7306801994303,635.4456,634.8192663817664,395.30960000000005,624.9078525641027,395.30960000000005C614.9692841880343,395.30960000000005,605.0307158119658,405.8858666666667,595.0921474358975,427.0384C585.1807336182336,448.13313952641164,575.2693198005699,657.8040000000001,565.357905982906,657.8040000000001C555.4464921652421,657.8040000000001,545.5350783475784,612.6248,535.6236645299145,612.6248C525.7111192723172,612.6248,515.7985740147199,680,505.8860287571225,680C495.94746038105416,680,486.00889200498574,680,476.0703236289174,680C466.1589098112536,680,456.2474959935897,680,446.3360821759259,680C436.4257997981956,680,426.51551742046536,670.6696,416.60523504273505,670.6696C406.69382122507125,670.6696,396.7824074074074,671.4130666666666,386.8709935897436,672.9C376.93242521367523,674.3910071232876,366.9938568376068,680,357.05528846153845,680C347.14387464387465,680,337.2324608262108,675.4177333333333,327.321047008547,672.812C317.4096331908832,670.2062666666667,307.49821937321934,664.3656,297.58680555555554,664.3656C287.67539173789174,664.3656,277.7639779202279,670.3353005464481,267.8525641025641,671.248C257.9139957264957,672.1632000000001,247.97542735042734,671.7056,238.03685897435898,672.6208C228.12544515669515,673.5334994535519,218.21403133903135,677.7488000000001,208.30261752136752,677.7488000000001C198.3912037037037,677.7488000000001,188.4797898860399,663.8688000000001,178.56837606837607,663.8688000000001C168.65696225071224,663.8688000000001,158.74554843304844,667.2422350868013,148.8341346153846,669.0304C138.89556623931622,670.8234639951527,128.95699786324786,674.6136,119.01842948717949,674.6136C109.10701566951568,674.6136,99.19560185185185,674.1194666666667,89.28418803418803,673.1312C79.37277421652422,672.1429333333334,69.46136039886039,643.8568,59.54994658119658,643.8568C49.638532763532766,643.8568,39.727118945868945,680,29.815705128205128,680C19.87713675213675,680,9.938568376068377,674.4812,0,668.9624Z"><title>South Dakota</title></path><path fill="#9467bd" d="M0,674.7024C9.938568376068377,674.8326666666667,19.87713675213675,674.9629333333334,29.815705128205128,675.4839999999999C39.727118945868945,676.0036429872495,49.638532763532766,679.1976000000001,59.54994658119658,679.1976000000001C69.46136039886039,679.1976000000001,79.37277421652422,678.6944,89.28418803418803,678.6944C99.19560185185185,678.6944,109.10701566951568,679.2248,119.01842948717949,679.2248C128.95699786324786,679.2248,138.89556623931622,670.0304,148.8341346153846,670.0304C158.74554843304844,670.0304,168.65696225071224,670.3658666666665,178.56837606837607,670.7239999999999C188.4797898860399,671.0821333333333,198.3912037037037,671.2090666666667,208.30261752136752,672.1792C218.21403133903135,673.1493333333334,228.12544515669515,679.2248,238.03685897435898,679.2248C247.97542735042734,679.2248,257.9139957264957,672.248,267.8525641025641,672.248C277.7639779202279,672.248,287.67539173789174,677.4568,297.58680555555554,677.4568C307.49821937321934,677.4568,317.4096331908832,589.776,327.321047008547,589.776C337.2324608262108,589.776,347.14387464387465,655.7576,357.05528846153845,655.7576C366.9938568376068,655.7576,376.93242521367523,654.9952000000001,386.8709935897436,654.9952000000001C396.7824074074074,654.9952000000001,406.69382122507125,659.184,416.60523504273505,659.184C426.51551742046536,659.184,436.4257997981956,579.8480000000001,446.3360821759259,579.8480000000001C456.2474959935897,579.8480000000001,466.1589098112536,640.824,476.0703236289174,640.824C486.00889200498574,640.824,495.94746038105416,578.6648,505.8860287571225,578.6648C515.7985740147199,578.6648,525.7111192723172,598.2189591431201,535.6236645299145,613.6248C545.5350783475784,629.028882399985,555.4464921652421,671.092,565.357905982906,671.092C575.2693198005699,671.092,585.1807336182336,644.2184002033295,595.0921474358975,635.8272C605.0307158119658,627.4130102070723,614.9692841880343,620.7312,624.9078525641027,620.7312C634.8192663817664,620.7312,644.7306801994303,664.224,654.642094017094,664.224C664.5535078347579,664.224,674.4649216524217,445.0856,684.3763354700856,445.0856C694.2877492877493,445.0856,704.1991631054132,595.0816,714.1105769230769,595.0816C724.0491452991453,595.0816,733.9877136752137,586.0360689606407,743.9262820512821,581.5896C753.8376958689458,577.1552798616563,763.7491096866097,568.4384,773.6605235042734,568.4384C783.5719373219373,568.4384,793.4833511396012,651.188,803.394764957265,651.188C813.3061787749288,651.188,823.2175925925926,570.0152,833.1290064102564,570.0152C843.0675747863247,570.0152,853.0061431623931,668.7923989041095,862.9447115384614,671.5744C872.8561253561253,674.3488,882.7675391737891,674.5334666666666,892.678952991453,675.736C902.5903668091167,676.9385333333333,912.5017806267806,678.7896,922.4131944444443,678.7896C932.3246082621082,678.7896,942.236022079772,677.578696024858,952.1474358974359,676.7832C962.0860042735043,675.9855245339779,972.0245726495726,674.008,981.963141025641,674.008C991.8745548433048,674.008,1001.7859686609687,679.7280000000001,1011.6973824786326,679.7280000000001C1021.6087962962963,679.7280000000001,1031.52021011396,679,1041.4316239316238,679C1051.3430377492878,679,1061.2544515669515,679,1071.1658653846155,679C1081.1044337606838,679,1091.0430021367522,680,1100.9815705128206,680C1110.8929843304843,680,1120.8043981481483,679,1130.715811965812,679C1140.6272257834758,679,1150.5386396011397,680,1160.4500534188035,680C1170.3614672364672,680,1180.2728810541312,680,1190.184294871795,680C1200.1228632478633,680,1210.0614316239316,678,1220,676L1220,676C1210.0614316239316,678,1200.1228632478633,680,1190.184294871795,680C1180.2728810541312,680,1170.3614672364672,680,1160.4500534188035,680C1150.5386396011397,680,1140.6272257834758,679,1130.715811965812,679C1120.8043981481483,679,1110.8929843304843,680,1100.9815705128206,680C1091.0430021367522,680,1081.1044337606838,679,1071.1658653846155,679C1061.2544515669515,679,1051.3430377492878,679,1041.4316239316238,679C1031.52021011396,679,1021.6087962962963,680,1011.6973824786326,680C1001.7859686609687,680,991.8745548433048,675.0416,981.963141025641,675.0416C972.0245726495726,675.0416,962.0860042735043,677.1528857572976,952.1474358974359,677.98C942.236022079772,678.8048543677224,932.3246082621082,680,922.4131944444443,680C912.5017806267806,680,902.5903668091167,678.184,892.678952991453,677.6944C882.7675391737891,677.2048,872.8561253561253,677.4496,862.9447115384614,676.96C853.0061431623931,676.469058630137,843.0675747863247,607.5104,833.1290064102564,607.5104C823.2175925925926,607.5104,813.3061787749288,665.5224000000001,803.394764957265,665.5224000000001C793.4833511396012,665.5224000000001,783.5719373219373,618.4592,773.6605235042734,618.4592C763.7491096866097,618.4592,753.8376958689458,619.8146666666667,743.9262820512821,622.5256C733.9877136752137,625.2439605479453,724.0491452991453,680,714.1105769230769,680C704.1991631054132,680,694.2877492877493,555.232,684.3763354700856,555.232C674.4649216524217,555.232,664.5535078347579,680,654.642094017094,680C644.7306801994303,680,634.8192663817664,680,624.9078525641027,680C614.9692841880343,680,605.0307158119658,680,595.0921474358975,680C585.1807336182336,680,575.2693198005699,680,565.357905982906,680C555.4464921652421,680,545.5350783475784,657.7862661992584,535.6236645299145,649.4336000000001C525.7111192723172,641.079980300034,515.7985740147199,629.8824,505.8860287571225,629.8824C495.94746038105416,629.8824,486.00889200498574,653.9072,476.0703236289174,653.9072C466.1589098112536,653.9072,456.2474959935897,642.5168,446.3360821759259,642.5168C436.4257997981956,642.5168,426.51551742046536,665.5352,416.60523504273505,665.5352C406.69382122507125,665.5352,396.7824074074074,665.0728,386.8709935897436,665.0728C376.93242521367523,665.0728,366.9938568376068,667.644,357.05528846153845,667.644C347.14387464387465,667.644,337.2324608262108,627.2984,327.321047008547,627.2984C317.4096331908832,627.2984,307.49821937321934,680,297.58680555555554,680C287.67539173789174,680,277.7639779202279,680,267.8525641025641,680C257.9139957264957,680,247.97542735042734,680,238.03685897435898,680C228.12544515669515,680,218.21403133903135,674.7858666666665,208.30261752136752,674.5047999999999C198.3912037037037,674.2237333333334,188.4797898860399,674.3121333333333,178.56837606837607,674.0832C168.65696225071224,673.8542666666667,158.74554843304844,673.1312,148.8341346153846,673.1312C138.89556623931622,673.1312,128.95699786324786,680,119.01842948717949,680C109.10701566951568,680,99.19560185185185,680,89.28418803418803,680C79.37277421652422,680,69.46136039886039,680,59.54994658119658,680C49.638532763532766,680,39.727118945868945,676.5584,29.815705128205128,676.5584C19.87713675213675,676.5584,9.938568376068377,676.8543999999999,0,677.1504Z"><title>Utah</title></path></g><g id="xAxis" transform="translate(0,680)" fill="none" font-size="10" font-family="sans-serif" text-anchor="middle"><path class="domain" stroke="currentColor" d="M0.5,0.5H1220.5"/><g class="tick" opacity="1" transform="translate(60.04994658119658,0)"><line stroke="currentColor" y2="6"/><text fill="currentColor" y="9" dy="0.71em">1930</text></g><g class="tick" opacity="1" transform="translate(208.80261752136752,0)"><line stroke="currentColor" y2="6"/><text fill="currentColor" y="9" dy="0.71em">1935</text></g><g class="tick" opacity="1" transform="translate(357.55528846153845,0)"><line stroke="currentColor" y2="6"/><text fill="currentColor" y="9" dy="0.71em">1940</text></g><g class="tick" opacity="1" transform="translate(506.3860287571225,0)"><line stroke="currentColor" y2="6"/><text fill="currentColor" y="9" dy="0.71em">1945</text></g><g class="tick" opacity="1" transform="translate(655.142094017094,0)"><line stroke="currentColor" y2="6"/><text fill="currentColor" y="9" dy="0.71em">1950</text></g><g class="tick" opacity="1" transform="translate(803.894764957265,0)"><line stroke="currentColor" y2="6"/><text fill="currentColor" y="9" dy="0.71em">1955</text></g><g class="tick" opacity="1" transform="translate(952.6474358974359,0)"><line stroke="currentColor" y2="6"/><text fill="currentColor" y="9" dy="0.71em">1960</text></g><g class="tick" opacity="1" transform="translate(1101.4815705128206,0)"><line stroke="currentColor" y2="6"/><text fill="currentColor" y="9" dy="0.71em">1965</text></g></g><g id="yAxis" fill="none" font-size="10" font-family="sans-serif" text-anchor="end"><path class="domain" stroke="currentColor" d="M0.5,680.5V0.5"/><g class="tick" opacity="1" transform="translate(0,680.5)"><line stroke="currentColor" x2="-6"/><text fill="currentColor" x="-9" dy="0.32em">0</text></g><g class="tick" opacity="1" transform="translate(0,612.5)"><line stroke="currentColor" x2="-6"/><text fill="currentColor" x="-9" dy="0.32em">50</text></g><g class="tick" opacity="1" transform="translate(0,544.5)"><line stroke="currentColor" x2="-6"/><text fill="currentColor" x="-9" dy="0.32em">100</text></g><g class="tick" opacity="1" transform="translate(0,476.49999999999994)"><line stroke="currentColor" x2="-6"/><text fill="currentColor" x="-9" dy="0.32em">150</text></g><g class="tick" opacity="1" transform="translate(0,408.5)"><line stroke="currentColor" x2="-6"/><text fill="currentColor" x="-9" dy="0.32em">200</text></g><g class="tick" opacity="1" transform="translate(0,340.5)"><line stroke="currentColor" x2="-6"/><text fill="currentColor" x="-9" dy="0.32em">250</text></g><g class="tick" opacity="1" transform="translate(0,272.5)"><line stroke="currentColor" x2="-6"/><text fill="currentColor" x="-9" dy="0.32em">300</text></g><g class="tick" opacity="1" transform="translate(0,204.50000000000003)"><line stroke="currentColor" x2="-6"/><text fill="currentColor" x="-9" dy="0.32em">350</text></g><g class="tick" opacity="1" transform="translate(0,136.49999999999997)"><line stroke="currentColor" x2="-6"/><text fill="currentColor" x="-9" dy="0.32em">400</text></g><g class="tick" opacity="1" transform="translate(0,68.49999999999999)"><line stroke="currentColor" x2="-6"/><text fill="currentColor" x="-9" dy="0.32em">450</text></g><g class="tick" opacity="1" transform="translate(0,0.5)"><line stroke="currentColor" x2="-6"/><text fill="currentColor" x="-9" dy="0.32em">500</text></g></g><text style="font-family: Arial, sans-serif; font-size: 12px; fill: rgb(123, 123, 123); font-weight: bold;" y="676" x="1220" text-anchor="end">รง</text><text style="font-family: Arial, sans-serif; font-size: 12px; fill: rgb(123, 123, 123); font-weight: bold;" x="4" text-anchor="start" dominant-baseline="hanging">Polio Cases</text><g id="labels"><text x="714.1105769230769" y="250.35560000000007" text-anchor="middle" alignment-baseline="middle" style="font-family: Arial, sans-serif; font-size: 10px; fill: black; font-weight: bold; stroke-width: 2px; paint-order: stroke; stroke: white; stroke-linecap: round; stroke-linejoin: round;">Iowa</text><text x="714.1105769230769" y="389.64000000000004" text-anchor="middle" alignment-baseline="middle" style="font-family: Arial, sans-serif; font-size: 10px; fill: black; font-weight: bold; stroke-width: 2px; paint-order: stroke; stroke: white; stroke-linecap: round; stroke-linejoin: round;">Minnesota</text><text x="714.1105769230769" y="92.33040000000001" text-anchor="middle" alignment-baseline="middle" style="font-family: Arial, sans-serif; font-size: 10px; fill: black; font-weight: bold; stroke-width: 2px; paint-order: stroke; stroke: white; stroke-linecap: round; stroke-linejoin: round;">Nebraska</text><text x="595.0921474358975" y="327.7736" text-anchor="middle" alignment-baseline="middle" style="font-family: Arial, sans-serif; font-size: 10px; fill: black; font-weight: bold; stroke-width: 2px; paint-order: stroke; stroke: white; stroke-linecap: round; stroke-linejoin: round;">South Dakota</text><text x="684.3763354700856" y="504.1588000000001" text-anchor="middle" alignment-baseline="middle" style="font-family: Arial, sans-serif; font-size: 10px; fill: black; font-weight: bold; stroke-width: 2px; paint-order: stroke; stroke: white; stroke-linecap: round; stroke-linejoin: round;">Utah</text></g></g><text x="4" y="4" style="font-family: Arial, sans-serif; font-size: 12px; fill: black; font-weight: bold; dominant-baseline: hanging;"/></g></g><g id="legend" transform="translate(1280,20)"><g transform="translate(5,0)"><g class="legendColor" transform="translate(0,0)"><g class="legendCells" transform="translate(0,16.75)"><g class="cell" transform="translate(0, 0)"><rect class="swatch" height="15" width="15" style="fill: rgb(31, 119, 180);"/><text class="label" transform="translate( 20, 12.5)" font-family="&quot;Arial&quot;, sans-serif" font-size="10px"><tspan x="0" dy="0em">Iowa</tspan></text></g><g class="cell" transform="translate(0, 21.75)"><rect class="swatch" height="15" width="15" style="fill: rgb(255, 127, 14);"/><text class="label" transform="translate( 20, 12.5)" font-family="&quot;Arial&quot;, sans-serif" font-size="10px"><tspan x="0" dy="0em">Minnesota</tspan></text></g><g class="cell" transform="translate(0, 43.5)"><rect class="swatch" height="15" width="15" style="fill: rgb(44, 160, 44);"/><text class="label" transform="translate( 20, 12.5)" font-family="&quot;Arial&quot;, sans-serif" font-size="10px"><tspan x="0" dy="0em">Nebraska</tspan></text></g><g class="cell" transform="translate(0, 65.25)"><rect class="swatch" height="15" width="15" style="fill: rgb(214, 39, 40);"/><text class="label" transform="translate( 20, 12.5)" font-family="&quot;Arial&quot;, sans-serif" font-size="10px"><tspan x="0" dy="0em">South Dakota</tspan></text></g><g class="cell" transform="translate(0, 87)"><rect class="swatch" height="15" width="15" style="fill: rgb(148, 103, 189);"/><text class="label" transform="translate( 20, 12.5)" font-family="&quot;Arial&quot;, sans-serif" font-size="10px"><tspan x="0" dy="0em">Utah</tspan></text></g></g><text class="legendTitle" font-family="&quot;Arial&quot;, sans-serif" font-size="12px" font-weight="bold"><tspan x="0" dy="0em">Colors</tspan></text></g></g></g></svg>